<?xml version="1.0" encoding="UTF-8"?>
<svg version="1.1" xmlns="http://www.w3.org/2000/svg" width="500" height="167">
<path d="M0 0 C2.475 0.495 2.475 0.495 5 1 C6.98 8.59 8.96 16.18 11 24 C12.98 22.68 14.96 21.36 17 20 C18.485 20.495 18.485 20.495 20 21 C19.41321669 24.52069985 18.64350079 26.71299843 17 30 C28.385 32.97 28.385 32.97 40 36 C40.495 37.98 40.495 37.98 41 40 C37.04 41.32 33.08 42.64 29 44 C30.629375 45.093125 32.25875 46.18625 33.9375 47.3125 C45.72606905 55.93014121 53.38374295 67.56818207 56 82 C57.69437155 99.76007756 54.14521926 114.2183018 42.75 128.1875 C32.95065569 138.82311221 19.36075708 144.97423164 5 146 C-11.22103922 146.1590298 -24.76850274 140.70969886 -36.75 129.8125 C-47.3000167 118.3854648 -52.95814865 103.91582853 -52.3828125 88.32421875 C-50.59529067 72.8019629 -44.30666731 60.75241891 -33 50 C-30.10552746 47.79844664 -27.14269192 45.82766481 -24 44 C-24.77085938 43.81824219 -25.54171875 43.63648438 -26.3359375 43.44921875 C-27.84027344 43.07216797 -27.84027344 43.07216797 -29.375 42.6875 C-30.37273438 42.44386719 -31.37046875 42.20023438 -32.3984375 41.94921875 C-35 41 -35 41 -37 38 C-36 36 -36 36 -34.11401367 35.31396484 C-32.90322144 35.01546631 -32.90322144 35.01546631 -31.66796875 34.7109375 C-30.34635742 34.38222656 -30.34635742 34.38222656 -28.99804688 34.046875 C-27.60682617 33.71429688 -27.60682617 33.71429688 -26.1875 33.375 C-25.27162109 33.14554688 -24.35574219 32.91609375 -23.41210938 32.6796875 C-19.43597317 31.70664907 -16.12579843 31 -12 31 C-13.32 28.03 -14.64 25.06 -16 22 C-14.68 21.34 -13.36 20.68 -12 20 C-9.35435928 20.93565342 -7.37036624 22.45014515 -5 24 C-4.81630859 22.28296875 -4.81630859 22.28296875 -4.62890625 20.53125 C-4.07313032 16.08504254 -3.07197292 11.82943731 -1.9375 7.5 C-1.75123047 6.77296875 -1.56496094 6.0459375 -1.37304688 5.296875 C-0.91973545 3.53012276 -0.4604998 1.76489225 0 0 Z M-33 53 C-31.59284684 56.40062014 -29.97131772 57.89229698 -27 60 C-26.49210937 59.61328125 -25.98421875 59.2265625 -25.4609375 58.828125 C-24.77257813 58.30734375 -24.08421875 57.7865625 -23.375 57.25 C-22.28638672 56.42628906 -22.28638672 56.42628906 -21.17578125 55.5859375 C-19.34316911 54.25013763 -17.4975858 53.05205949 -15.5625 51.875 C-12.86709235 50.25562349 -12.86709235 50.25562349 -12.125 47.75 C-12.08375 47.1725 -12.0425 46.595 -12 46 C-20.54844652 41.91161253 -26.21025649 47.83355149 -33 53 Z M16 46 C16.63921965 48.47627099 16.63921965 48.47627099 18 51 C20.52372901 52.36078035 20.52372901 52.36078035 23 53 C23.66 52.34 24.32 51.68 25 51 C24.34 51 23.68 51 23 51 C23 50.01 23 49.02 23 48 C24.32 48 25.64 48 27 48 C26.67 49.65 26.34 51.3 26 53 C26.61875 53.04125 27.2375 53.0825 27.875 53.125 C28.926875 53.558125 28.926875 53.558125 30 54 C31.25 57.0625 31.25 57.0625 32 60 C33.98 58.35 35.96 56.7 38 55 C34.5274244 49.63329225 29.5244793 46.92827591 24 44 C21.36423317 44 18.51486589 45.26840265 16 46 Z M-9.1875 53.5 C-12 55 -12 55 -14.8125 54.8125 C-19.63069899 55.09592347 -22.42089561 57.94776885 -26 61 C-23.525 63.97 -23.525 63.97 -21 67 C-20.27554688 66.59007813 -19.55109375 66.18015625 -18.8046875 65.7578125 C-9.20210896 60.4059754 -9.20210896 60.4059754 -4 59 C-4.66 56.69 -5.32 54.38 -6 52 C-7.30460967 51.90574527 -7.30460967 51.90574527 -9.1875 53.5 Z M10 52 C10 52.66 10 53.32 10 54 C12.70328583 56.78060468 12.70328583 56.78060468 16 59 C18.32171592 58.96624167 18.32171592 58.96624167 20 58 C20 58.99 20 59.98 20 61 C20.99 60.67 21.98 60.34 23 60 C22.49743888 57.98567734 22.49743888 57.98567734 21 56 C17.61175003 54.81758345 17.61175003 54.81758345 14 54 C12.64649406 53.37530495 11.30065517 52.7283669 10 52 Z M9 55 C9 56.32 9 57.64 9 59 C9.66 59 10.32 59 11 59 C10.34 57.68 9.68 56.36 9 55 Z M-36 56 C-43.68606699 64.06924335 -49.06612387 75.3135351 -49.125 86.5 C-49.08375 87.655 -49.0425 88.81 -49 90 C-46.66705225 90.04241723 -44.33297433 90.04092937 -42 90 C-40.39397972 88.39397972 -40.60740983 86.40408033 -40.3125 84.1875 C-38.94961588 76.28896702 -35.75236237 68.66599056 -30 63 C-30.16133896 60.41857664 -30.79859974 59.24518293 -32.4375 57.25 C-33.92679355 55.79176832 -33.92679355 55.79176832 -36 56 Z M39 56 C37.35 57.98 35.7 59.96 34 62 C34.38671875 62.46148437 34.7734375 62.92296875 35.171875 63.3984375 C41.61317854 71.46601075 44.36572887 79.89332326 46 90 C48.64 90 51.28 90 54 90 C53.72323311 77.4448473 49.81043177 66.14331962 41 57 C40.34 56.67 39.68 56.34 39 56 Z M8 61 C7.34 63.64 6.68 66.28 6 69 C7.41478135 69.64995297 8.83191487 70.29478722 10.25 70.9375 C11.03890625 71.29714844 11.8278125 71.65679687 12.640625 72.02734375 C14.78006618 72.90933192 16.71711202 73.62688283 19 74 C20.91666667 72.91666667 20.91666667 72.91666667 22 71 C22 67.99985097 21.02483185 67.02558433 18.9375 64.875 C15.28292983 62.54229563 12.23516333 61.86138915 8 61 Z M-17.625 67.25 C-18.07875 67.8275 -18.5325 68.405 -19 69 C-17.35 70.65 -15.7 72.3 -14 74 C-9.96479403 72.41037341 -5.98188718 70.71767682 -2 69 C-2.33 66.36 -2.66 63.72 -3 61 C-8.15985839 61 -13.80402133 63.97487543 -17.625 67.25 Z M-28 63 C-35.27580888 71.90073953 -38.5678699 79.44051978 -39 91 C-35.04 90.505 -35.04 90.505 -31 90 C-30.85304688 89.24976562 -30.70609375 88.49953125 -30.5546875 87.7265625 C-28.90281668 80.1887152 -26.34992103 74.36299128 -22 68 C-23.98 66.35 -25.96 64.7 -28 63 Z M24 63 C23.67 63.99 23.34 64.98 23 66 C23.99 66.33 24.98 66.66 26 67 C26 65.68 26 64.36 26 63 C25.34 63 24.68 63 24 63 Z M29 69 C30.0203871 72.21814394 31.12761082 75.28712434 32.5 78.375 C34.10293622 82.24876253 35.0695469 85.92032102 36 90 C38.64 90 41.28 90 44 90 C42.77576336 80.58197448 42.77576336 80.58197448 39 72 C38.67 72.66 38.34 73.32 38 74 C37.2575 73.54625 36.515 73.0925 35.75 72.625 C33.53069422 71.31359204 31.32032178 70.11719197 29 69 Z M-21 70 C-25.7165436 76.83750503 -28.08838864 82.73262801 -29 91 C-26.66868325 88.05350174 -26.66868325 88.05350174 -25.375 84.5625 C-23.15981362 80.43419811 -19.11199395 78.98830983 -15 77 C-16.39332574 73.63279613 -17.9789286 72.0140476 -21 70 Z M5 71 C4.67 72.65 4.34 74.3 4 76 C4.66 76 5.32 76 6 76 C5.67 76.99 5.34 77.98 5 79 C5.66 79.33 6.32 79.66 7 80 C7.33 79.01 7.66 78.02 8 77 C7.67 76.34 7.34 75.68 7 75 C8.65 74.67 10.3 74.34 12 74 C8.94419026 71.41222792 8.94419026 71.41222792 5 71 Z M-7.125 73 C-7.84945312 73.37125 -8.57390625 73.7425 -9.3203125 74.125 C-10.15175781 74.558125 -10.15175781 74.558125 -11 75 C-10.34 76.32 -9.68 77.64 -9 79 C-6.14147911 79.12126781 -6.14147911 79.12126781 -4 78.5 C-2 78 -2 78 1 78 C0.34 75.69 -0.32 73.38 -1 71 C-3.52475462 71 -4.88902934 71.84595063 -7.125 73 Z M24 72 C24.33 73.32 24.66 74.64 25 76 C25.33 75.34 25.66 74.68 26 74 C25.34 73.34 24.68 72.68 24 72 Z M20 75 C21 77 21 77 21 77 Z M12 76 C11.67 76.66 11.34 77.32 11 78 C11.66 78 12.32 78 13 78 C12.67 77.34 12.34 76.68 12 76 Z M21 79 C23.81711646 81.12821884 23.81711646 81.12821884 27 83 C27.99 82.67 28.98 82.34 30 82 C30 81.34 30 80.68 30 80 C29.01 80 28.02 80 27 80 C26.67 79.01 26.34 78.02 26 77 C24.15953612 77 22.60370406 78.17228177 21 79 Z M-2 82 C-3.0260734 83.31337396 -4.02727325 84.64664105 -5 86 C-4.505 86.7425 -4.01 87.485 -3.5 88.25 C-2 91 -2 91 -2 95 C-2.99 95.495 -2.99 95.495 -4 96 C-4 96.66 -4 97.32 -4 98 C-4.66 98.33 -5.32 98.66 -6 99 C-3.18490007 101.2773501 -3.18490007 101.2773501 0 101 C0.433125 99.7934375 0.433125 99.7934375 0.875 98.5625 C2 96 2 96 4 95 C4 93.35 4 91.7 4 90 C3.34 90 2.68 90 2 90 C2 89.34 2 88.68 2 88 C2.66 87.67 3.32 87.34 4 87 C2.3545622 85.31237149 0.68711423 83.6459651 -1 82 C-1.33 82 -1.66 82 -2 82 Z M-23 86 C-23.33 86.66 -23.66 87.32 -24 88 C-23.34 88.66 -22.68 89.32 -22 90 C-22.33 88.68 -22.66 87.36 -23 86 Z M32 84 C31.71125 84.639375 31.4225 85.27875 31.125 85.9375 C30 88 30 88 28 89 C27.67 88.01 27.34 87.02 27 86 C26.34 87.32 25.68 88.64 25 90 C27.64 90 30.28 90 33 90 C33 88.02 33 86.04 33 84 C32.67 84 32.34 84 32 84 Z M-49 93 C-49 95.97 -49 98.94 -49 102 C-48.34 102 -47.68 102 -47 102 C-47 101.34 -47 100.68 -47 100 C-44.03 100.495 -44.03 100.495 -41 101 C-40.95758277 98.66705225 -40.95907063 96.33297433 -41 94 C-42.18424326 92.58422523 -42.18424326 92.58422523 -45.5625 92.9375 C-47.2640625 92.9684375 -47.2640625 92.9684375 -49 93 Z M-39 93 C-38.67 95.64 -38.34 98.28 -38 101 C-37.34 101 -36.68 101 -36 101 C-35.67 99.02 -35.34 97.04 -35 95 C-34.34 95 -33.68 95 -33 95 C-33 94.34 -33 93.68 -33 93 C-34.98 93 -36.96 93 -39 93 Z M-27 93 C-26.34 94.32 -25.68 95.64 -25 97 C-25 95.68 -25 94.36 -25 93 C-25.66 93 -26.32 93 -27 93 Z M25 93 C26.32 93.99 27.64 94.98 29 96 C28.01 96.495 28.01 96.495 27 97 C27 97.66 27 98.32 27 99 C26.01 99 25.02 99 24 99 C23.01 100.98 22.02 102.96 21 105 C21.66 105 22.32 105 23 105 C23 105.99 23 106.98 23 108 C22.01 108.495 22.01 108.495 21 109 C21.99 109.99 22.98 110.98 24 112 C28.17391361 110.25868174 29.32012558 108.29130022 31.18359375 104.30859375 C32.49284083 100.60636876 32.81928476 96.90344911 33 93 C30.36 93 27.72 93 25 93 Z M36 93 C35.76925781 93.85722656 35.53851563 94.71445313 35.30078125 95.59765625 C33.37484506 102.34985152 31.52105284 107.59985356 27 113 C28.40715316 116.40062014 30.02868228 117.89229698 33 120 C39.65672429 111.26418922 43.00787205 103.9134075 44 93 C41.36 93 38.72 93 36 93 Z M46 93 C45.01 97.95 44.02 102.9 43 108 C43.66 108 44.32 108 45 108 C45 107.01 45 106.02 45 105 C45.99 105 46.98 105 48 105 C47.67 106.32 47.34 107.64 47 109 C46.34 109 45.68 109 45 109 C45 109.66 45 110.32 45 111 C43.68 111 42.36 111 41 111 C39.1958082 112.86392367 39.1958082 112.86392367 37.75 115.3125 C37.22921875 116.11300781 36.7084375 116.91351563 36.171875 117.73828125 C34.76997571 120.01939931 34.76997571 120.01939931 35 123 C37.4390706 125.20142332 37.4390706 125.20142332 40 127 C48.34444766 118.25819769 53.69793955 107.60872282 54.125 95.4375 C54.08375 94.633125 54.0425 93.82875 54 93 C51.36 93 48.72 93 46 93 Z M-21 95 C-23.95464588 99.60924757 -24.22407006 102.79380357 -23.71484375 108.046875 C-23.15686659 110.19667117 -23.15686659 110.19667117 -20.94140625 111.265625 C-20.30074219 111.50796875 -19.66007812 111.7503125 -19 112 C-17.68 110.68 -16.36 109.36 -15 108 C-15.4021875 107.01 -15.4021875 107.01 -15.8125 106 C-17.25705047 102.35060933 -18.62871178 98.67754567 -20 95 C-20.33 95 -20.66 95 -21 95 Z M-18 95 C-17.01 97.97 -16.02 100.94 -15 104 C-11.19649626 104.36535084 -11.19649626 104.36535084 -9.1875 102.8125 C-7.7111635 100.98153823 -7.7111635 100.98153823 -8.3125 98.3125 C-8.6528125 97.1678125 -8.6528125 97.1678125 -9 96 C-9.66 97.32 -10.32 98.64 -11 100 C-11.66 100 -12.32 100 -13 100 C-13.268125 99.360625 -13.53625 98.72125 -13.8125 98.0625 C-14.88667752 95.66868314 -14.88667752 95.66868314 -18 95 Z M-25 97 C-24 100 -24 100 -24 100 Z M-6 101 C-7.65 102.65 -9.3 104.3 -11 106 C-10.67 106.99 -10.34 107.98 -10 109 C-8.35 109.33 -6.7 109.66 -5 110 C-4.814375 109.0409375 -4.814375 109.0409375 -4.625 108.0625 C-4.41875 107.381875 -4.2125 106.70125 -4 106 C-3.34 105.67 -2.68 105.34 -2 105 C-3.32 103.68 -4.64 102.36 -6 101 Z M19 101 C20 103 20 103 20 103 Z M-44 109 C-44.90914578 111.99700964 -45.268658 113.43903453 -43.890625 116.31640625 C-43.34921875 117.05761719 -42.8078125 117.79882812 -42.25 118.5625 C-41.71890625 119.30628906 -41.1878125 120.05007812 -40.640625 120.81640625 C-40.09921875 121.53699219 -39.5578125 122.25757812 -39 123 C-38.43796875 123.75152344 -37.8759375 124.50304687 -37.296875 125.27734375 C-36.86890625 125.84582031 -36.4409375 126.41429688 -36 127 C-33.53199953 125.84826645 -31.95216435 124.95216435 -30 123 C-30.32876304 119.69895072 -31.5976603 118.01546827 -33.9375 115.75 C-34.46214844 115.22921875 -34.98679687 114.7084375 -35.52734375 114.171875 C-36.94715835 112.792444 -36.94715835 112.792444 -39 113 C-39.33 112.01 -39.66 111.02 -40 110 C-42.01508358 109.26676204 -42.01508358 109.26676204 -44 109 Z M-14 109 C-15.7143618 110.95927063 -17.38405168 112.95880212 -19 115 C-12.37559368 119.60889546 -7.12887453 121.96540904 1 122 C0.67 121.34 0.34 120.68 0 120 C-2.32156597 119.59270772 -4.6568787 119.25561323 -7 119 C-7.0825 117.906875 -7.165 116.81375 -7.25 115.6875 C-7.64754553 111.99596286 -7.64754553 111.99596286 -9.9375 110.0625 C-11.90964337 108.8473478 -11.90964337 108.8473478 -14 109 Z M21 112 C21.33 113.32 21.66 114.64 22 116 C22 114.68 22 113.36 22 112 C21.67 112 21.34 112 21 112 Z M-30 117 C-29.01 117.99 -28.02 118.98 -27 120 C-27.33 119.01 -27.66 118.02 -28 117 C-28.66 117 -29.32 117 -30 117 Z M23 117 C22.79503906 117.69867188 22.59007813 118.39734375 22.37890625 119.1171875 C22.10949219 120.02726562 21.84007813 120.93734375 21.5625 121.875 C21.29566406 122.77992187 21.02882813 123.68484375 20.75390625 124.6171875 C20 127 20 127 19 129 C23.67105792 127.44298069 27.08705685 124.91552627 31 122 C30.01 121.01 29.02 120.02 28 119 C26.02 119.99 26.02 119.99 24 121 C23.67 119.68 23.34 118.36 23 117 Z M-21.8125 117.5625 C-24.26020401 118.96702611 -24.26020401 118.96702611 -26 122 C-17.74944617 128.91387192 -9.74820181 132.30656763 1 133 C1 130.36 1 127.72 1 125 C0.14277344 124.75765625 -0.71445313 124.5153125 -1.59765625 124.265625 C-12.07657268 121.19401477 -12.07657268 121.19401477 -16 118.625 C-18.8627339 116.66080155 -18.8627339 116.66080155 -21.8125 117.5625 Z M-28 123 C-29.32 124.65 -30.64 126.3 -32 128 C-31.34 128 -30.68 128 -30 128 C-29.88398437 129.14275391 -29.88398437 129.14275391 -29.765625 130.30859375 C-28.79588292 133.71753401 -27.7778429 134.30928129 -24.75 136.0625 C-16.92355631 140.40802899 -8.06110947 143.8428939 1 143 C1 140.36 1 137.72 1 135 C-0.32451172 134.77957031 -0.32451172 134.77957031 -1.67578125 134.5546875 C-11.84327471 132.65442556 -19.82149457 129.33174614 -28 123 Z M28.75 125.6875 C21.31898829 131.32758443 12.28057606 134.45408376 3 135 C3 137.64 3 140.28 3 143 C14.57089488 143.77139299 26.36383466 139.14680543 35.125 131.6875 C36.07375 130.800625 37.0225 129.91375 38 129 C36.35830472 126.97945196 34.69088222 124.97956942 33 123 C31.23963973 123 30.05593658 124.59830499 28.75 125.6875 Z M3 125 C3 127.64 3 130.28 3 133 C6.465 132.505 6.465 132.505 10 132 C9.34 131.01 8.68 130.02 8 129 C7.34 129 6.68 129 6 129 C6 127.68 6 126.36 6 125 C5.01 125 4.02 125 3 125 Z " fill="#01529D" transform="translate(78,0)"/>
<path d="M0 0 C0.99 0.99 0.99 0.99 2 2 C-1.85421412 16.78132118 -1.85421412 16.78132118 -6 23 C-5.34 23.33 -4.68 23.66 -4 24 C-7.84470122 34.50011203 -11.51001597 40.67334398 -21 47 C-18.525 46.505 -18.525 46.505 -16 46 C-19.46685675 52.06699932 -24.26487507 56.75495836 -31 59 C-29.68 59.66 -28.36 60.32 -27 61 C-34.37472169 66.31665982 -41.16041314 66.98652537 -50.07177734 65.70117188 C-53.83932736 65.07719437 -57.58964068 64.37619322 -61.33984375 63.65625 C-64.87239828 62.9117593 -64.87239828 62.9117593 -68 63 C-67.43410156 63.38671875 -66.86820312 63.7734375 -66.28515625 64.171875 C-65.55167969 64.69265625 -64.81820312 65.2134375 -64.0625 65.75 C-63.33160156 66.26046875 -62.60070312 66.7709375 -61.84765625 67.296875 C-59.79194601 69.19177915 -59.37330824 70.27425729 -59 73 C-62.91258123 72.41901346 -65.08480759 70.51509464 -68.0625 68 C-71.69615804 64.91442409 -71.69615804 64.91442409 -76 63 C-78.48232289 64.32486003 -78.48232289 64.32486003 -81 66.25 C-81.86625 66.87390625 -82.7325 67.4978125 -83.625 68.140625 C-85.96818443 69.87733461 -85.96818443 69.87733461 -87.625 71.734375 C-89 73 -89 73 -92 73 C-91.7416116 69.51175659 -90.73533264 68.75785753 -88.0625 66.3125 C-85 64 -85 64 -83 63 C-84.16015625 63.19916016 -84.16015625 63.19916016 -85.34375 63.40234375 C-112.72368914 68.04473442 -112.72368914 68.04473442 -123 63 C-123.33 62.01 -123.66 61.02 -124 60 C-122.02 59.505 -122.02 59.505 -120 59 C-121.485 58.505 -121.485 58.505 -123 58 C-127.96105732 55.89992052 -131.62470492 52.12925709 -135 48 C-135 47.34 -135 46.68 -135 46 C-133.68 46 -132.36 46 -131 46 C-132.03125 45.525625 -133.0625 45.05125 -134.125 44.5625 C-141.37921331 40.37737694 -144.41110834 32.92529741 -146.5546875 25.1640625 C-147 23 -147 23 -147 20 C-147.79177903 18.06579693 -148.63152265 16.15100043 -149.5 14.25 C-151.55331696 9.48399105 -152.58409682 6.14005198 -152 1 C-147.12023023 5.57478416 -143.13310783 10.74604937 -139 16 C-137.68 12.04 -136.36 8.08 -135 4 C-134.01 4 -133.02 4 -132 4 C-130.53329887 9.22512279 -129.77422598 13.5814234 -130 19 C-129.34 19 -128.68 19 -128 19 C-127.54109375 19.99902344 -127.0821875 20.99804688 -126.609375 22.02734375 C-125.99033235 23.33108508 -125.37049936 24.63445134 -124.75 25.9375 C-124.44964844 26.59685547 -124.14929688 27.25621094 -123.83984375 27.93554688 C-122.20250075 31.65783556 -122.20250075 31.65783556 -118.9453125 33.765625 C-118.30335937 33.84296875 -117.66140625 33.9203125 -117 34 C-111.769917 38.23061688 -109.11883776 44.44431489 -106.39453125 50.42578125 C-105.11976001 53.25771046 -105.11976001 53.25771046 -102 55 C-102 55.66 -102 56.32 -102 57 C-100.65808594 56.85691406 -100.65808594 56.85691406 -99.2890625 56.7109375 C-90.53702539 55.90851192 -83.32495564 56.22501479 -75 59 C-73.32110979 58.36474424 -71.65583225 57.69313908 -70 57 C-62.89653484 55.42145219 -56.09903829 55.81682695 -49 57 C-49 56.34 -49 55.68 -49 55 C-48.4225 54.45472656 -47.845 53.90945312 -47.25 53.34765625 C-43.90182524 49.85416141 -42.11722599 45.71341154 -40 41.40039062 C-38.14462057 37.75123616 -36.64467546 35.01216457 -33 33 C-32.34 33 -31.68 33 -31 33 C-31.47565766 35.45906037 -31.95536052 37.91720993 -32.4375 40.375 C-32.63956055 41.42300781 -32.63956055 41.42300781 -32.84570312 42.4921875 C-33.88671875 47.7734375 -33.88671875 47.7734375 -35 50 C-34.34 49.67 -33.68 49.34 -33 49 C-32.45141073 46.59343159 -32.45141073 46.59343159 -32.125 43.6875 C-30.78128972 34.879899 -28.68179773 26.05326615 -23 19 C-22.67 19 -22.34 19 -22 19 C-21.86722656 18.01257813 -21.73445312 17.02515625 -21.59765625 16.0078125 C-21.42105469 14.72648437 -21.24445313 13.44515625 -21.0625 12.125 C-20.88847656 10.84882812 -20.71445313 9.57265625 -20.53515625 8.2578125 C-20 5 -20 5 -19 3 C-18.34 3 -17.68 3 -17 3 C-14.77343836 7.74354436 -13.53851968 11.72250715 -13 17 C-8.49452755 11.44362331 -4.08582626 5.87337525 0 0 Z M-131 21 C-131.16820551 22.93736701 -131.33451095 24.87489906 -131.5 26.8125 C-131.5928125 27.89144531 -131.685625 28.97039062 -131.78125 30.08203125 C-132.03737838 33.01090811 -132.03737838 33.01090811 -132 36 C-131.34 36.33 -130.68 36.66 -130 37 C-130 31.72 -130 26.44 -130 21 C-130.33 21 -130.66 21 -131 21 Z M-21 23 C-21.495 30.425 -21.495 30.425 -22 38 C-21.67 37.34 -21.34 36.68 -21 36 C-20.01 35.67 -19.02 35.34 -18 35 C-18.66 34.67 -19.32 34.34 -20 34 C-20 30.37 -20 26.74 -20 23 C-20.33 23 -20.66 23 -21 23 Z M-144 24 C-142.95125002 26.62187494 -142.35068687 27.79371361 -139.875 29.25 C-139.25625 29.4975 -138.6375 29.745 -138 30 C-139.64169528 27.97945196 -141.30911778 25.97956942 -143 24 C-143.33 24 -143.66 24 -144 24 Z M-9 25 C-10.485 26.98 -10.485 26.98 -12 29 C-10.68 28.34 -9.36 27.68 -8 27 C-8.33 26.34 -8.66 25.68 -9 25 Z M-121 34 C-120.52013969 39.56890517 -119.70084819 44.67067568 -118 50 C-117.34 49.67 -116.68 49.34 -116 49 C-117.32 44.05 -118.64 39.1 -120 34 C-120.33 34 -120.66 34 -121 34 Z M-30 48 C-26 49 -26 49 -26 49 Z M-108 57 C-108 57.33 -108 57.66 -108 58 C-106.35 58 -104.7 58 -103 58 C-103 57.67 -103 57.34 -103 57 C-104.65 57 -106.3 57 -108 57 Z M-48 57 C-48 57.33 -48 57.66 -48 58 C-46.35 58 -44.7 58 -43 58 C-43 57.67 -43 57.34 -43 57 C-44.65 57 -46.3 57 -48 57 Z M-115 58 C-115 58.33 -115 58.66 -115 59 C-113.02 59 -111.04 59 -109 59 C-109 58.67 -109 58.34 -109 58 C-110.98 58 -112.96 58 -115 58 Z M-42 58 C-42 58.33 -42 58.66 -42 59 C-40.35 59 -38.7 59 -37 59 C-37 58.67 -37 58.34 -37 58 C-38.65 58 -40.3 58 -42 58 Z " fill="#00529D" transform="translate(156,94)"/>
<path d="M0 0 C2 1 2 1 2.68603516 3.00952148 C2.88503418 3.87134033 3.0840332 4.73315918 3.2890625 5.62109375 C3.50820312 6.55630859 3.72734375 7.49152344 3.953125 8.45507812 C4.17484375 9.43927734 4.3965625 10.42347656 4.625 11.4375 C4.85445312 12.41783203 5.08390625 13.39816406 5.3203125 14.40820312 C7 21.67185175 7 21.67185175 7 24 C9.97 22.68 12.94 21.36 16 20 C15.06588007 23.7364797 13.77257035 26.60899585 12 30 C13.19689453 30.18755859 13.19689453 30.18755859 14.41796875 30.37890625 C18.74112764 31.12850523 23.0239787 32.01238995 27.3125 32.9375 C28.54709961 33.19176758 28.54709961 33.19176758 29.80664062 33.45117188 C31.88634759 33.90208938 33.94589305 34.44398535 36 35 C36.33 35.66 36.66 36.32 37 37 C20.29157175 41.22323462 20.29157175 41.22323462 12 43 C12.66 44.11375 13.32 45.2275 14 46.375 C16 49.75 16 49.75 16 52 C11.5 50.5 11.5 50.5 7 49 C5.02 56.92 3.04 64.84 1 73 C0.34 73 -0.32 73 -1 73 C-2.98479728 66.7620657 -3.9875138 60.45779012 -5 54 C-5.33145384 51.99968766 -5.66425785 49.99959704 -6 48 C-7.6396875 49.0209375 -7.6396875 49.0209375 -9.3125 50.0625 C-11.17578125 51.22265625 -11.17578125 51.22265625 -13 52 C-14.485 51.505 -14.485 51.505 -16 51 C-14.35 48.36 -12.7 45.72 -11 43 C-12.21816406 42.73445313 -13.43632813 42.46890625 -14.69140625 42.1953125 C-16.3151294 41.83865655 -17.93882591 41.48187926 -19.5625 41.125 C-20.36236328 40.95097656 -21.16222656 40.77695312 -21.98632812 40.59765625 C-26.71433941 39.55556397 -31.35991592 38.38268277 -36 37 C-32.30988951 33.57487084 -28.27086349 32.85334203 -23.5 31.8125 C-22.74074219 31.63525391 -21.98148438 31.45800781 -21.19921875 31.27539062 C-17.62954481 30.46580608 -14.70620574 30 -11 30 C-11.3609375 29.44570313 -11.721875 28.89140625 -12.09375 28.3203125 C-12.5578125 27.59585937 -13.021875 26.87140625 -13.5 26.125 C-14.19609375 25.04605469 -14.19609375 25.04605469 -14.90625 23.9453125 C-16 22 -16 22 -16 20 C-12.40608886 21.33488128 -9.24509304 22.96022723 -6 25 C-5.9175 23.989375 -5.835 22.97875 -5.75 21.9375 C-5.21489128 17.57006854 -4.13649803 13.3676221 -3 9.125 C-2.82178711 8.45847412 -2.64357422 7.79194824 -2.45996094 7.10522461 C-1.14002082 2.28004163 -1.14002082 2.28004163 0 0 Z " fill="#F1C681" transform="translate(80,2)"/>
<path d="M0 0 C0.66 0 1.32 0 2 0 C1.34 4.95 0.68 9.9 0 15 C1.299375 13.1746875 1.299375 13.1746875 2.625 11.3125 C5.43054618 7.56955569 8.21882305 4.74994687 12 2 C12.66 2 13.32 2 14 2 C13.61923481 7.07686921 11.82890723 10.24312665 9.05859375 14.36328125 C7.90948582 15.81507583 7.90948582 15.81507583 8 17 C8.99 16.67 9.98 16.34 11 16 C10.07126185 20.13710631 9.14654192 23.04145015 6.5 26.375 C3.92423974 29.72199081 3.32053509 32.60856446 2.6015625 36.7109375 C1.57578537 40.61421932 -0.67658599 43.74544679 -3 47 C-2.34 47 -1.68 47 -1 47 C0.14281598 56.18485435 -3.10025335 62.94516615 -7 71 C-12.57768662 69.14077113 -15.09678456 62.65070409 -17.8125 57.6875 C-19.92476005 52.90712199 -20.11107173 48.99574662 -20.0625 43.75 C-20.05347656 42.48671875 -20.04445313 41.2234375 -20.03515625 39.921875 C-20.02355469 38.95765625 -20.01195312 37.9934375 -20 37 C-19.34 37 -18.68 37 -18 37 C-16.515 40.465 -16.515 40.465 -15 44 C-15.165 43.21625 -15.33 42.4325 -15.5 41.625 C-16.84822001 31.85040496 -15.26887205 24.31044808 -12 15 C-11.34 15 -10.68 15 -10 15 C-9.34 16.98 -8.68 18.96 -8 21 C-7.84144531 20.23816406 -7.68289062 19.47632812 -7.51953125 18.69140625 C-5.94759564 11.73493981 -3.84200999 6.01358086 0 0 Z M-8 31 C-8 34.3 -8 37.6 -8 41 C-6.68 39.68 -5.36 38.36 -4 37 C-4.33 36.34 -4.66 35.68 -5 35 C-5.99 35.495 -5.99 35.495 -7 36 C-7 34.35 -7 32.7 -7 31 C-7.33 31 -7.66 31 -8 31 Z M-14 48 C-13 51 -13 51 -13 51 Z M-7 50 C-6 52 -6 52 -6 52 Z M-13 51 C-12 53 -12 53 -12 53 Z M-8 52 C-8.33 53.32 -8.66 54.64 -9 56 C-8.34 54.68 -7.68 53.36 -7 52 C-7.33 52 -7.66 52 -8 52 Z M-12 54 C-11 56 -11 56 -11 56 Z M-11 56 C-10.67 56.99 -10.34 57.98 -10 59 C-9.67 58.01 -9.34 57.02 -9 56 C-9.66 56 -10.32 56 -11 56 Z " fill="#00529D" transform="translate(24,36)"/>
<path d="M0 0 C0.66 0 1.32 0 2 0 C6.58627545 8.85746326 9.19093114 16.0214841 10 26 C10.33 22.37 10.66 18.74 11 15 C11.99 15.33 12.98 15.66 14 16 C19.52564397 27.4605949 17.98349653 40.94568445 14.0703125 52.65625 C13 55 13 55 11 56 C9.57248932 53.85873399 8.14630362 51.71674576 6.7265625 49.5703125 C5.62045159 47.9236587 4.49200116 46.29166359 3.3359375 44.6796875 C-0.38208274 39.42317613 -3 34.63602303 -3 28 C-3.804375 27.0925 -4.60875 26.185 -5.4375 25.25 C-8.00813753 22.3017547 -8.71766367 19.95270863 -9 16 C-8.34 15.67 -7.68 15.34 -7 15 C-7.61875 14.154375 -8.2375 13.30875 -8.875 12.4375 C-11.13047736 9.08627655 -12.06125645 5.91143146 -13 2 C-6.26030631 4.18048913 -2.60110695 7.99815508 1 14 C0.67 9.38 0.34 4.76 0 0 Z M2 16 C2 17.65 2 19.3 2 21 C2.33 21 2.66 21 3 21 C3 19.35 3 17.7 3 16 C2.67 16 2.34 16 2 16 Z M1 22 C1.66 22.66 2.32 23.32 3 24 C3 23.34 3 22.68 3 22 C2.34 22 1.68 22 1 22 Z M4 34 C5.98 36.97 5.98 36.97 8 40 C8.33 38.68 8.66 37.36 9 36 C6.525 35.01 6.525 35.01 4 34 Z " fill="#00529D" transform="translate(135,36)"/>
<path d="M0 0 C2 1 2 1 2.68603516 3.00952148 C2.88503418 3.87134033 3.0840332 4.73315918 3.2890625 5.62109375 C3.50820312 6.55630859 3.72734375 7.49152344 3.953125 8.45507812 C4.17484375 9.43927734 4.3965625 10.42347656 4.625 11.4375 C4.85445312 12.41783203 5.08390625 13.39816406 5.3203125 14.40820312 C7 21.67185175 7 21.67185175 7 24 C9.97 22.68 12.94 21.36 16 20 C14.517418 25.93032799 11.2184445 30.34906456 6.3125 34 C4 35 4 35 1 35 C1 35.66 1 36.32 1 37 C-9.56 36.67 -20.12 36.34 -31 36 C-27.23301677 33.17476258 -25.41326275 32.35513332 -21 31.3125 C-19.96875 31.06113281 -18.9375 30.80976562 -17.875 30.55078125 C-15 30 -15 30 -11 30 C-11.3609375 29.44570313 -11.721875 28.89140625 -12.09375 28.3203125 C-12.5578125 27.59585937 -13.021875 26.87140625 -13.5 26.125 C-14.19609375 25.04605469 -14.19609375 25.04605469 -14.90625 23.9453125 C-16 22 -16 22 -16 20 C-12.40608886 21.33488128 -9.24509304 22.96022723 -6 25 C-5.9175 23.989375 -5.835 22.97875 -5.75 21.9375 C-5.21489128 17.57006854 -4.13649803 13.3676221 -3 9.125 C-2.82178711 8.45847412 -2.64357422 7.79194824 -2.45996094 7.10522461 C-1.14002082 2.28004163 -1.14002082 2.28004163 0 0 Z " fill="#EFB95F" transform="translate(80,2)"/>
<path d="M0 0 C5.94 0 11.88 0 18 0 C16.63988088 3.40029781 15.44790784 6.13235991 13.6171875 9.20703125 C13.17246094 9.95791016 12.72773438 10.70878906 12.26953125 11.48242188 C11.57923828 12.63581055 11.57923828 12.63581055 10.875 13.8125 C10.40707031 14.60076172 9.93914062 15.38902344 9.45703125 16.20117188 C8.3078594 18.13600202 7.15435851 20.06825984 6 22 C9.96 22 13.92 22 18 22 C18.45890625 21.0821875 18.9178125 20.164375 19.390625 19.21875 C24.1953125 9.609375 24.1953125 9.609375 29 0 C29.66 0 30.32 0 31 0 C32.83629082 4.1445297 34.66853742 8.29083471 36.5 12.4375 C37.02464844 13.62150391 37.54929687 14.80550781 38.08984375 16.02539062 C38.58613281 17.15009766 39.08242188 18.27480469 39.59375 19.43359375 C40.05458984 20.47572021 40.51542969 21.51784668 40.99023438 22.59155273 C42 25 42 25 42 26 C40.35 26 38.7 26 37 26 C36.34 24.02 35.68 22.04 35 20 C31.37 20 27.74 20 24 20 C23.34 21.98 22.68 23.96 22 26 C14.41 26 6.82 26 -1 26 C-0.15811905 22.63247621 0.56213559 20.76959622 2.28515625 17.890625 C2.73310547 17.13652344 3.18105469 16.38242188 3.64257812 15.60546875 C4.11115234 14.82816406 4.57972656 14.05085937 5.0625 13.25 C5.53494141 12.45722656 6.00738281 11.66445312 6.49414062 10.84765625 C7.65823893 8.89573384 8.82852206 6.94750235 10 5 C6.7 4.67 3.4 4.34 0 4 C0 2.68 0 1.36 0 0 Z M29 8 C28.01 10.97 27.02 13.94 26 17 C28.31 17 30.62 17 33 17 C32.46930939 13.17902761 31.50298434 10.93828597 29 8 Z " fill="#00529D" transform="translate(316,133)"/>
<path d="M0 0 C2.32421875 0.08984375 2.32421875 0.08984375 5 1 C6.58203125 3.94140625 6.58203125 3.94140625 7.8125 7.5625 C8.23144531 8.76003906 8.65039062 9.95757812 9.08203125 11.19140625 C9.38496094 12.11824219 9.68789062 13.04507813 10 14 C12.52475462 11.47524538 13.04307871 9.26502003 14.125 5.875 C14.47820312 4.77929688 14.83140625 3.68359375 15.1953125 2.5546875 C15.46085938 1.71164063 15.72640625 0.86859375 16 0 C16.99 0 17.98 0 19 0 C20.65 4.62 22.3 9.24 24 14 C26.30867641 10.53698539 27.40264687 7.10992865 28.70703125 3.1796875 C30 1 30 1 32.63671875 0.1953125 C33.80654297 0.09863281 33.80654297 0.09863281 35 0 C32.43696551 9.15048279 29.20468777 18.06006196 26 27 C25.01 26.67 24.02 26.34 23 26 C21.6484375 23.09375 21.6484375 23.09375 20.375 19.5 C19.19881204 15.45739657 19.19881204 15.45739657 17 12 C16.67386719 12.99902344 16.34773438 13.99804688 16.01171875 15.02734375 C15.57093452 16.33093966 15.12949414 17.63431383 14.6875 18.9375 C14.47416016 19.59685547 14.26082031 20.25621094 14.04101562 20.93554688 C13.44958907 22.65686297 12.73136173 24.33331932 12 26 C11.01 26.33 10.02 26.66 9 27 C7.87160091 23.81369323 6.74790455 20.62574686 5.625 17.4375 C5.14933594 16.09461914 5.14933594 16.09461914 4.6640625 14.72460938 C2.94991849 9.85001235 1.35445622 4.98686155 0 0 Z " fill="#00529D" transform="translate(177,52)"/>
<path d="M0 0 C2.475 0.495 2.475 0.495 5 1 C6.98 8.59 8.96 16.18 11 24 C12.98 22.68 14.96 21.36 17 20 C17.99 20.33 18.98 20.66 20 21 C19.41321669 24.52069985 18.64350079 26.71299843 17 30 C28.385 32.97 28.385 32.97 40 36 C40.495 37.98 40.495 37.98 41 40 C36.45014389 41.45558777 32.05663064 42.85672805 27.3125 43.5 C23.42026679 44.0875069 20.55163481 45.33290611 17 47 C17.66 48.65 18.32 50.3 19 52 C18.34 52 17.68 52 17 52 C14 47.61538462 14 47.61538462 14 45 C16.68739872 44.20798823 19.37491563 43.41638134 22.0625 42.625 C22.81466797 42.40328125 23.56683594 42.1815625 24.34179688 41.953125 C28.88878695 40.6146171 33.44063865 39.29575475 38 38 C36.77023438 37.73445313 35.54046875 37.46890625 34.2734375 37.1953125 C32.64058755 36.83871309 31.00777713 36.48193267 29.375 36.125 C28.56675781 35.95097656 27.75851563 35.77695312 26.92578125 35.59765625 C22.51437032 34.62929775 18.25940436 33.5300773 14 32 C14.69941596 28.85262818 15.76078698 25.97411124 17 23 C16.236875 23.495 15.47375 23.99 14.6875 24.5 C12 26 12 26 9 26 C8.18525038 23.1047827 7.37312678 20.20887172 6.5625 17.3125 C6.33240234 16.49587891 6.10230469 15.67925781 5.86523438 14.83789062 C4.76816554 10.91070219 3.71223092 7.01960209 3 3 C-0.23376436 10.76103446 -2.05023135 18.84462249 -4 27 C-7.57770548 25.61702141 -10.74845193 24.04383021 -14 22 C-13.6390625 22.55429687 -13.278125 23.10859375 -12.90625 23.6796875 C-12.4421875 24.40414063 -11.978125 25.12859375 -11.5 25.875 C-10.80390625 26.95394531 -10.80390625 26.95394531 -10.09375 28.0546875 C-9 30 -9 30 -9 32 C-9.63091553 32.14099121 -10.26183105 32.28198242 -10.91186523 32.42724609 C-13.75577206 33.06785309 -16.59658899 33.72124155 -19.4375 34.375 C-20.43072266 34.59671875 -21.42394531 34.8184375 -22.44726562 35.046875 C-23.39150391 35.26601563 -24.33574219 35.48515625 -25.30859375 35.7109375 C-26.18314209 35.90993652 -27.05769043 36.10893555 -27.95874023 36.31396484 C-30.19275142 36.79770665 -30.19275142 36.79770665 -31 39 C-28.36 39.66 -25.72 40.32 -23 41 C-25.37131576 42.49767311 -26.5098502 43.08237812 -29.32421875 42.609375 C-30.49404297 42.18398437 -30.49404297 42.18398437 -31.6875 41.75 C-32.47511719 41.47671875 -33.26273438 41.2034375 -34.07421875 40.921875 C-36 40 -36 40 -37 38 C-36 36 -36 36 -34.11401367 35.31396484 C-33.30681885 35.11496582 -32.49962402 34.9159668 -31.66796875 34.7109375 C-30.78689453 34.49179687 -29.90582031 34.27265625 -28.99804688 34.046875 C-28.07056641 33.82515625 -27.14308594 33.6034375 -26.1875 33.375 C-25.27162109 33.14554688 -24.35574219 32.91609375 -23.41210938 32.6796875 C-19.43597317 31.70664907 -16.12579843 31 -12 31 C-13.32 28.03 -14.64 25.06 -16 22 C-14.68 21.34 -13.36 20.68 -12 20 C-9.35435928 20.93565342 -7.37036624 22.45014515 -5 24 C-4.81630859 22.28296875 -4.81630859 22.28296875 -4.62890625 20.53125 C-4.07313032 16.08504254 -3.07197292 11.82943731 -1.9375 7.5 C-1.75123047 6.77296875 -1.56496094 6.0459375 -1.37304688 5.296875 C-0.91973545 3.53012276 -0.4604998 1.76489225 0 0 Z " fill="#1B55A1" transform="translate(78,0)"/>
<path d="M0 0 C4.32386211 2.16193106 5.45233155 3.66528194 8.125 7.5625 C10.52435062 11.38705618 10.52435062 11.38705618 14 14 C14.38865234 13.17242187 14.38865234 13.17242187 14.78515625 12.328125 C16.17313604 9.66820232 17.75071524 7.23120597 19.4375 4.75 C20.03433594 3.85796875 20.63117188 2.9659375 21.24609375 2.046875 C21.82488281 1.37140625 22.40367187 0.6959375 23 0 C23.99 0 24.98 0 26 0 C26 8.58 26 17.16 26 26 C24.35 25.67 22.7 25.34 21 25 C21 20.38 21 15.76 21 11 C19.3603125 13.2275 19.3603125 13.2275 17.6875 15.5 C15.82421875 18.03125 15.82421875 18.03125 14 20 C13.01 20 12.02 20 11 20 C8.69857008 17.17780856 6.93430484 14.09488775 5 11 C4.67 15.95 4.34 20.9 4 26 C2.68 26 1.36 26 0 26 C0 17.42 0 8.84 0 0 Z " fill="#00529D" transform="translate(180,93)"/>
<path d="M0 0 C3.34672482 1.67336241 4.64465803 2.41080406 6.98046875 5.00390625 C7.76647461 5.86725586 7.76647461 5.86725586 8.56835938 6.74804688 C9.10267578 7.34681641 9.63699219 7.94558594 10.1875 8.5625 C10.73341797 9.16513672 11.27933594 9.76777344 11.84179688 10.38867188 C13.23123489 11.92273541 14.61598489 13.4610422 16 15 C16.33 15.33 16.66 15.66 17 16 C17.33 11.05 17.66 6.1 18 1 C19.65 1 21.3 1 23 1 C23 9.58 23 18.16 23 27 C20 27 20 27 18.421875 25.53125 C17.87015625 24.8609375 17.3184375 24.190625 16.75 23.5 C16.14542969 22.778125 15.54085938 22.05625 14.91796875 21.3125 C14.28503906 20.549375 13.65210938 19.78625 13 19 C11.69182144 17.4962297 10.37953312 15.99602139 9.0625 14.5 C8.051875 13.345 7.04125 12.19 6 11 C5.67 16.28 5.34 21.56 5 27 C3.35 27 1.7 27 0 27 C0 18.09 0 9.18 0 0 Z " fill="#00529D" transform="translate(416,132)"/>
<path d="M0 0 C2.08055283 -0.04234887 4.16135497 -0.07256698 6.2421875 -0.09765625 C7.98024658 -0.12484741 7.98024658 -0.12484741 9.75341797 -0.15258789 C14.46148028 0.06868891 16.40617756 0.95306359 20 4 C22.72511205 8.42830708 23.5473212 12.03163529 22.63671875 17.07421875 C21.17217969 21.50377554 18.48452507 24.24047555 14.3125 26.375 C9.87402771 27.2124476 5.50460842 27.36477997 1 27 C0 26 0 26 -0.11352539 23.49975586 C-0.10828857 22.41573486 -0.10305176 21.33171387 -0.09765625 20.21484375 C-0.09443359 19.04501953 -0.09121094 17.87519531 -0.08789062 16.66992188 C-0.07951172 15.43822266 -0.07113281 14.20652344 -0.0625 12.9375 C-0.05798828 11.70193359 -0.05347656 10.46636719 -0.04882812 9.19335938 C-0.03699608 6.12885883 -0.02051173 3.06445279 0 0 Z M5 4 C5 10.27 5 16.54 5 23 C13.18935905 22.70778236 13.18935905 22.70778236 16.5625 20.5 C18.73066058 16.72928595 18.65558666 13.24570406 18 9 C16.27310955 5.71068486 15.5579199 5.1859733 12 4 C9.69 4 7.38 4 5 4 Z " fill="#00529D" transform="translate(284,52)"/>
<path d="M0 0 C4.38410756 2.19205378 7.13092657 4.43115383 9 9 C9.7205356 15.38188672 8.84405165 18.84087804 5 24 C0.66375637 26.98719005 -2.7924678 27.55794988 -8 27 C-13.13959507 25.18602527 -15.63292134 22.91624028 -18 18 C-18.83255422 13.25953824 -18.47208811 9.94417623 -16.3125 5.625 C-11.52843721 0.19444224 -7.07959837 -1.12374577 0 0 Z M-10.9375 5.9375 C-13.36416141 9.54072452 -13.68334281 11.65127555 -13.4140625 15.91015625 C-13.0926951 18.18087834 -13.0926951 18.18087834 -11.4375 20.5 C-8.18533206 22.50133412 -5.81267501 22.93311096 -2 23 C1.24798106 21.70080758 2.58941682 20.69052626 4.375 17.6875 C5.16122884 14.30671597 5.03812905 12.32201297 4 9 C1.34171883 5.40350194 -0.06642907 4.16670909 -4.5 3.375 C-8.0827003 3.77683798 -8.0827003 3.77683798 -10.9375 5.9375 Z " fill="#00529D" transform="translate(230,52)"/>
<path d="M0 0 C3.62485923 2.11780616 6.79279058 4.89548796 8 9 C8.4850824 14.23888993 7.85631117 17.56779301 5 22 C2.63865631 24.80409563 1.02796305 25.87780528 -2.62890625 26.3125 C-11.05225758 26.49195888 -11.05225758 26.49195888 -15 24 C-18.69674323 19.78982021 -19.59390371 16.54472032 -19.3203125 11.109375 C-18.66312905 6.78158156 -16.67549238 4.60794314 -13.5 1.75 C-9.05361074 -1.36247249 -5.12325582 -1.42366466 0 0 Z M-12.5 5.5625 C-14.50133412 8.81466794 -14.93311096 11.18732499 -15 15 C-13.63571607 17.92346557 -12.27249091 19.72750909 -10 22 C-7.03424624 22.96186608 -5.39250151 23.11214329 -2.375 22.25 C0.01010915 20.99467939 1.33076586 20.09481791 3 18 C3.82597221 13.54272657 3.75167671 9.37262704 1.5625 5.375 C-3.07212981 2.88812547 -8.00510721 2.75319201 -12.5 5.5625 Z " fill="#00529D" transform="translate(198,133)"/>
<path d="M0 0 C3.32006187 1.10668729 4.0582597 1.94572595 6.25 4.5625 C7.15685547 5.63177734 7.15685547 5.63177734 8.08203125 6.72265625 C8.71496094 7.47417969 9.34789062 8.22570312 10 9 C11.30943715 10.50267448 12.62179103 12.00281393 13.9375 13.5 C14.948125 14.655 15.95875 15.81 17 17 C17.33 11.72 17.66 6.44 18 1 C19.65 1 21.3 1 23 1 C23 9.58 23 18.16 23 27 C18.29388899 25.82347225 16.49719808 23.68488769 13.4375 20.1875 C12.95603516 19.65318359 12.47457031 19.11886719 11.97851562 18.56835938 C9.49966837 15.79627847 7.23461388 12.97948518 5 10 C4.67 15.61 4.34 21.22 4 27 C2.68 27 1.36 27 0 27 C0 18.09 0 9.18 0 0 Z " fill="#00529D" transform="translate(280,132)"/>
<path d="M0 0 C3.30720322 2.56328465 5.38486545 4.89241511 6.22265625 8.98828125 C6.36639765 13.83056978 5.90283995 17.66035599 2.78515625 21.48828125 C-1.36636061 25.5385416 -4.38255102 25.3250454 -10.0078125 25.2734375 C-13.84459158 24.87839537 -15.96600057 23.58336726 -18.77734375 20.98828125 C-21.48984622 16.5367528 -21.67239046 12.05502393 -20.77734375 6.98828125 C-18.7110223 3.20808782 -16.01588898 0.77052034 -12.40234375 -1.51171875 C-7.97949237 -2.35416663 -3.93498021 -2.23991181 0 0 Z M-15.77734375 6.98828125 C-17.18735039 9.80829452 -17.02282826 11.8583538 -16.77734375 14.98828125 C-15.85711087 17.82756658 -15.85711087 17.82756658 -13.77734375 19.98828125 C-10.16111236 21.52852795 -7.88928153 22.24099438 -4.02734375 21.36328125 C-1.36915775 19.73883425 -0.1787552 18.79110416 1.22265625 15.98828125 C1.72824964 11.43794072 1.7566792 9.10276392 -0.21484375 4.98828125 C-3.48235289 2.43803021 -5.59126769 2.33426725 -9.65234375 2.5546875 C-12.6920433 3.17492031 -14.01487299 4.49144768 -15.77734375 6.98828125 Z " fill="#00529D" transform="translate(406.77734375,134.01171875)"/>
<path d="M0 0 C3.15930721 2.47621376 5.51421441 5.21592881 7.3125 8.8125 C7.71476867 14.04199274 7.2412695 17.41934575 4.3125 21.8125 C0.89892134 24.90097593 -1.72455837 26.07681338 -6.25 26.25 C-11.47557693 25.9869676 -14.1429838 24.19004147 -18 20.75 C-20.46990303 16.45053916 -20.4483897 12.65734872 -19.6875 7.8125 C-17.87516463 3.97871364 -16.38723473 2.27898982 -12.875 -0.0625 C-8.20738146 -1.70989478 -4.58167849 -2.02446259 0 0 Z M-13.6875 5.8125 C-15.56794634 8.88959402 -15.68864202 10.74740476 -15.625 14.375 C-14.93592548 17.88484339 -14.93592548 17.88484339 -12.5625 20.25 C-8.88683618 22.24764338 -6.81598931 22.47600721 -2.6875 21.8125 C0.4360883 20.02263047 0.4360883 20.02263047 2.3125 16.8125 C3.18877828 12.49260183 3.10667718 9.08318349 0.75 5.3125 C-4.40024085 2.14312101 -9.01349603 1.80621088 -13.6875 5.8125 Z " fill="#00529D" transform="translate(390.6875,93.1875)"/>
<path d="M0 0 C3.58598061 2.21262634 5.39653485 4.15446021 7 8 C7.74722522 12.28936017 7.9617225 16.31319334 5.76171875 20.171875 C2.82212966 23.70229962 0.7005083 25.68622665 -4.05078125 26.23828125 C-9.54775239 26.41866545 -12.7545588 25.84111347 -17 22 C-19.910372 17.634442 -20.6506249 14.20499921 -20 9 C-15.28378101 0.2413076 -9.46989715 -2.16359689 0 0 Z M-14 7 C-15.61469184 10.22938367 -15.58079278 13.50856753 -15 17 C-13.10350449 20.14658666 -13.10350449 20.14658666 -10 22 C-5.90500016 22.65812497 -3.80120146 22.41801815 -0.125 20.5 C2.72517741 17.1468501 3.30322126 14.35772265 3 10 C1.76245899 7.00384809 0.76729312 5.53710519 -1.875 3.6875 C-7.3173376 1.92674372 -9.88959654 3.11795229 -14 7 Z " fill="#00529D" transform="translate(291,93)"/>
<path d="M0 0 C2.98638138 3.51338986 4.37920419 6.9560276 5.125 11.5 C4.38142213 17.07683405 2.42667476 19.93275752 -1.875 23.5 C-7.27615361 25.30038454 -12.0921082 25.35842938 -17.25 22.875 C-20.74228038 19.71531775 -22.71786387 17.15226739 -23.00390625 12.32421875 C-22.68104566 6.50294446 -21.12484605 3.46008382 -16.875 -0.5 C-11.65535835 -3.83477105 -5.26566762 -2.74730484 0 0 Z M-16.875 5.5 C-18.40714888 8.56429776 -18.10438548 11.1165642 -17.875 14.5 C-16.12771222 18.22803465 -16.12771222 18.22803465 -12.875 20.5 C-8.69355989 20.89447548 -6.56553952 20.95035186 -3 18.625 C-0.83547153 16.6844662 -0.83547153 16.6844662 0.125 14.5 C0.1399921 12.38446939 0.1399921 12.38446939 -0.125 10.0625 C-0.22554688 8.88880859 -0.22554688 8.88880859 -0.328125 7.69140625 C-0.98454918 5.06102078 -1.71954535 4.11907423 -3.875 2.5 C-9.79428536 1.06791483 -12.46819626 0.82611724 -16.875 5.5 Z " fill="#00529D" transform="translate(345.875,94.5)"/>
<path d="M0 0 C13.00552486 -0.60773481 13.00552486 -0.60773481 17.375 2.0625 C19.44098839 5.79717131 19.75123045 7.79310949 19 12 C16.5 14.9375 16.5 14.9375 14 17 C14.433125 17.48210937 14.86625 17.96421875 15.3125 18.4609375 C15.869375 19.09257812 16.42625 19.72421875 17 20.375 C17.556875 21.00148437 18.11375 21.62796875 18.6875 22.2734375 C20 24 20 24 20 26 C17.76953125 26.3046875 17.76953125 26.3046875 15 26 C12.76171875 23.8828125 12.76171875 23.8828125 10.6875 21.125 C9.99011719 20.22007812 9.29273438 19.31515625 8.57421875 18.3828125 C7 16 7 16 7 14 C9.31 13.34 11.62 12.68 14 12 C13.67 9.69 13.34 7.38 13 5 C10.36 4.67 7.72 4.34 5 4 C5 11.26 5 18.52 5 26 C3.35 26 1.7 26 0 26 C0 17.42 0 8.84 0 0 Z " fill="#00529D" transform="translate(209,133)"/>
<path d="M0 0 C0.66 0 1.32 0 2 0 C2.80027558 13.9825928 -0.4902415 22.98034082 -9 34 C-12 33 -12 33 -13.38671875 30.6640625 C-16.44518481 23.5184571 -17.68738099 17.75976764 -17 10 C-13.52867905 11.40929697 -12.11906726 12.90605083 -10.25 16.125 C-9.60804688 17.21167969 -9.60804688 17.21167969 -8.953125 18.3203125 C-8.63859375 18.87460938 -8.3240625 19.42890625 -8 20 C-7.59007812 18.89140625 -7.18015625 17.7828125 -6.7578125 16.640625 C-6.21365899 15.17703971 -5.66938165 13.71350045 -5.125 12.25 C-4.85558594 11.52039063 -4.58617187 10.79078125 -4.30859375 10.0390625 C-3.02634981 6.59889584 -1.75382129 3.23520433 0 0 Z " fill="#00529D" transform="translate(155,73)"/>
<path d="M0 0 C12 0 12 0 15.75 2.0625 C18 5 18 5 18.5625 8.5625 C17.9963551 12.02227442 17.50419409 13.59212107 15 16 C14.34 16 13.68 16 13 16 C13.42152344 16.54269531 13.84304688 17.08539063 14.27734375 17.64453125 C14.82519531 18.35996094 15.37304688 19.07539062 15.9375 19.8125 C16.48277344 20.52019531 17.02804687 21.22789063 17.58984375 21.95703125 C19 24 19 24 20 27 C17.80078125 27.3359375 17.80078125 27.3359375 15 27 C12.54296875 24.6640625 12.54296875 24.6640625 10.1875 21.625 C9.39730469 20.62726563 8.60710937 19.62953125 7.79296875 18.6015625 C6 16 6 16 6 14 C8.31 13.01 10.62 12.02 13 11 C13 9.02 13 7.04 13 5 C10.03 4.67 7.06 4.34 4 4 C4 11.59 4 19.18 4 27 C2.68 27 1.36 27 0 27 C0 18.09 0 9.18 0 0 Z " fill="#00529D" transform="translate(243,52)"/>
<path d="M0 0 C5.94 0 11.88 0 18 0 C18 0.99 18 1.98 18 3 C13.71 3 9.42 3 5 3 C5 5.31 5 7.62 5 10 C8.96 10 12.92 10 17 10 C17 11.32 17 12.64 17 14 C13.04 14 9.08 14 5 14 C5 16.64 5 19.28 5 22 C9.62 22 14.24 22 19 22 C19 23.32 19 24.64 19 26 C12.73 26 6.46 26 0 26 C0 17.42 0 8.84 0 0 Z " fill="#00529D" transform="translate(210,93)"/>
<path d="M0 0 C13.35124528 -0.49449057 13.35124528 -0.49449057 16.3984375 1.828125 C18.44770001 4.60712489 18.85685919 6.5646206 19 10 C17.94989394 13.06280935 16.28409434 14.77238052 14 17 C14.433125 17.48210937 14.86625 17.96421875 15.3125 18.4609375 C15.869375 19.09257813 16.42625 19.72421875 17 20.375 C17.556875 21.00148438 18.11375 21.62796875 18.6875 22.2734375 C20 24 20 24 20 26 C17.80078125 26.3359375 17.80078125 26.3359375 15 26 C12.54296875 23.6640625 12.54296875 23.6640625 10.1875 20.625 C9.39730469 19.62726563 8.60710937 18.62953125 7.79296875 17.6015625 C6 15 6 15 6 13 C8.31 12.34 10.62 11.68 13 11 C13 8.69 13 6.38 13 4 C10.03 3.67 7.06 3.34 4 3 C4 10.59 4 18.18 4 26 C2.68 26 1.36 26 0 26 C0 17.42 0 8.84 0 0 Z " fill="#00529D" transform="translate(302,93)"/>
<path d="M0 0 C5.94 0 11.88 0 18 0 C18 0.99 18 1.98 18 3 C13.71 3 9.42 3 5 3 C5 5.31 5 7.62 5 10 C8.96 10 12.92 10 17 10 C17 11.32 17 12.64 17 14 C13.04 14 9.08 14 5 14 C5 16.64 5 19.28 5 22 C9.62 22 14.24 22 19 22 C18.67 23.32 18.34 24.64 18 26 C12.06 26 6.12 26 0 26 C0 17.42 0 8.84 0 0 Z " fill="#00529D" transform="translate(251,93)"/>
<path d="M0 0 C0.80824219 0.10183594 1.61648437 0.20367187 2.44921875 0.30859375 C3.06410156 0.39238281 3.67898437 0.47617188 4.3125 0.5625 C4.6425 2.2125 4.9725 3.8625 5.3125 5.5625 C4.48105469 5.52769531 3.64960938 5.49289063 2.79296875 5.45703125 C1.70628906 5.42996094 0.61960938 5.40289062 -0.5 5.375 C-1.57894531 5.34019531 -2.65789062 5.30539063 -3.76953125 5.26953125 C-6.6688161 5.31272186 -6.6688161 5.31272186 -8.5234375 6.8984375 C-10.95662144 10.37674742 -10.81301439 13.74665647 -10.1875 17.8125 C-8.88014561 20.89874586 -8.88014561 20.89874586 -5.3125 21.9375 C-1.64360738 22.67577128 -1.64360738 22.67577128 2.3125 22.5625 C2.3125 19.2625 2.3125 15.9625 2.3125 12.5625 C3.6325 12.5625 4.9525 12.5625 6.3125 12.5625 C6.3125 16.8525 6.3125 21.1425 6.3125 25.5625 C3.63594199 26.90077901 1.48815948 26.76828556 -1.5 26.8125 C-2.53769531 26.83828125 -3.57539063 26.8640625 -4.64453125 26.890625 C-8.10534439 26.51744361 -9.90966292 25.62394752 -12.6875 23.5625 C-15.91633266 18.77492054 -16.22006641 15.15444732 -15.6875 9.5625 C-13.89941667 5.42167545 -11.3562241 3.13060687 -7.6875 0.5625 C-4.59271121 -0.46909626 -3.16118607 -0.41232862 0 0 Z " fill="#00529D" transform="translate(246.6875,132.4375)"/>
<path d="M0 0 C0.7734375 0.495 0.7734375 0.495 1.5625 1 C1.5625 2.32 1.5625 3.64 1.5625 5 C1.046875 4.835 0.53125 4.67 0 4.5 C-3.32965473 3.8169939 -6.04204442 3.64258362 -9.4375 4 C-12.36802231 5.99524923 -14.08271503 7.42836485 -14.8828125 10.97265625 C-15.06949463 14.30182096 -14.68460632 16.59845223 -12.9375 19.4375 C-9.41924839 21.63640725 -6.56273715 21.72498419 -2.4375 22 C-2.4375 18.7 -2.4375 15.4 -2.4375 12 C-1.1175 12 0.2025 12 1.5625 12 C1.5625 16.29 1.5625 20.58 1.5625 25 C-4.03754123 26.86668041 -9.48927851 26.88555522 -14.875 24.4375 C-18.4003632 21.08410574 -20.25068112 17.92682906 -20.56640625 12.98046875 C-20.22433236 7.55911596 -18.32981232 4.71538904 -14.4375 1 C-9.92649188 -1.61163628 -4.84939664 -1.98949606 0 0 Z " fill="#00529D" transform="translate(420.4375,93)"/>
<path d="M0 0 C0.66 0 1.32 0 2 0 C3.56884528 3.6835243 5.13536632 7.36802712 6.69970703 11.0534668 C7.23259149 12.3079724 7.76611872 13.56220516 8.30029297 14.81616211 C9.0664555 16.61500938 9.830142 18.4149106 10.59375 20.21484375 C11.05458984 21.29886475 11.51542969 22.38288574 11.99023438 23.49975586 C13 26 13 26 13 27 C11.35 27 9.7 27 8 27 C7.34 25.35 6.68 23.7 6 22 C2.37 21.67 -1.26 21.34 -5 21 C-5.66 22.98 -6.32 24.96 -7 27 C-8.32 27 -9.64 27 -11 27 C-9.37212884 20.55052949 -7.04233323 14.514865 -4.375 8.4375 C-4.06167725 7.72271484 -3.74835449 7.00792969 -3.42553711 6.27148438 C-1.13999589 1.13999589 -1.13999589 1.13999589 0 0 Z M0 9 C-0.99 11.97 -1.98 14.94 -3 18 C-0.36 18 2.28 18 5 18 C3.68 15.03 2.36 12.06 1 9 C0.67 9 0.34 9 0 9 Z " fill="#00529D" transform="translate(468,92)"/>
<path d="M0 0 C0.99 0 1.98 0 3 0 C4.67557981 3.76693513 6.33891867 7.53915174 8 11.3125 C8.47695313 12.38435547 8.95390625 13.45621094 9.4453125 14.56054688 C10.12207031 16.10258789 10.12207031 16.10258789 10.8125 17.67578125 C11.23144531 18.62364502 11.65039062 19.57150879 12.08203125 20.5480957 C13 23 13 23 13 26 C11.35 25.67 9.7 25.34 8 25 C7.505 22.525 7.505 22.525 7 20 C3.37 20 -0.26 20 -4 20 C-4.66 21.98 -5.32 23.96 -6 26 C-7.32 26 -8.64 26 -10 26 C-9.385789 22.38549563 -8.39633734 19.27609839 -6.93359375 15.91796875 C-6.53076172 14.98662109 -6.12792969 14.05527344 -5.71289062 13.09570312 C-5.29201172 12.13599609 -4.87113281 11.17628906 -4.4375 10.1875 C-4.01275391 9.20845703 -3.58800781 8.22941406 -3.15039062 7.22070312 C-2.10460494 4.81187093 -1.05435216 2.40509197 0 0 Z M1 8 C0.01 10.97 -0.98 13.94 -2 17 C0.31 17 2.62 17 5 17 C4.01 14.03 3.02 11.06 2 8 C1.67 8 1.34 8 1 8 Z " fill="#00529D" transform="translate(265,133)"/>
<path d="M0 0 C0 1.65 0 3.3 0 5 C-0.66386719 4.86980469 -1.32773437 4.73960938 -2.01171875 4.60546875 C-7.83728015 3.65307635 -7.83728015 3.65307635 -13.125 5.9375 C-15.70297345 10.14818997 -15.69816692 12.11283159 -15 17 C-13.66666667 19.66666667 -13.66666667 19.66666667 -11 21 C-6.94394097 21.57350015 -2.89847343 21.29949114 1 20 C0.625 22.4375 0.625 22.4375 0 25 C-3.71492147 26.85746073 -7.94563892 26.4421807 -12 26 C-15.76266417 24.22128603 -17.51796464 22.66862969 -19.9375 19.3125 C-21.35064983 14.9067976 -21.30955881 11.43662652 -20 7 C-15.46816538 -0.93492232 -8.50719454 -2.83573151 0 0 Z " fill="#00529D" transform="translate(456,93)"/>
<path d="M0 0 C1.34129146 0.29971004 2.67334165 0.64102017 4 1 C6.09647443 1.14678114 8.19641323 1.24705138 10.296875 1.31640625 C11.50214844 1.35830078 12.70742188 1.40019531 13.94921875 1.44335938 C15.83060547 1.50233398 15.83060547 1.50233398 17.75 1.5625 C19.65458984 1.62727539 19.65458984 1.62727539 21.59765625 1.69335938 C24.73166365 1.79939722 27.86574933 1.90146058 31 2 C30.08063541 7.25479957 28.55477333 11.95734524 24.28515625 15.37109375 C22.4375 16.5 22.4375 16.5 19 18 C18.01 17.67 17.02 17.34 16 17 C17.65 14.36 19.3 11.72 21 9 C19.78183594 8.73445313 18.56367187 8.46890625 17.30859375 8.1953125 C15.6848706 7.83865655 14.06117409 7.48187926 12.4375 7.125 C11.63763672 6.95097656 10.83777344 6.77695312 10.01367188 6.59765625 C5.28566059 5.55556397 0.64008408 4.38268277 -4 3 C-2.25 1.4375 -2.25 1.4375 0 0 Z " fill="#F6D195" transform="translate(48,36)"/>
<path d="M0 0 C1.65 0 3.3 0 5 0 C5.33 7.26 5.66 14.52 6 22 C9.63 22 13.26 22 17 22 C17.33 23.32 17.66 24.64 18 26 C17 27 17 27 13.18359375 27.09765625 C11.60152953 27.09191138 10.01948969 27.07889593 8.4375 27.0625 C4.2609375 27.0315625 4.2609375 27.0315625 0 27 C0 18.09 0 9.18 0 0 Z " fill="#00529D" transform="translate(265,52)"/>
<path d="M0 0 C1.65 0 3.3 0 5 0 C5 7.26 5 14.52 5 22 C8.96 22 12.92 22 17 22 C17 23.32 17 24.64 17 26 C11.39 26 5.78 26 0 26 C0 17.42 0 8.84 0 0 Z " fill="#00529D" transform="translate(354,93)"/>
<path d="M0 0 C6.93 0 13.86 0 21 0 C21 1.32 21 2.64 21 4 C18.36 4 15.72 4 13 4 C13 11.26 13 18.52 13 26 C11.35 25.67 9.7 25.34 8 25 C8.33 18.07 8.66 11.14 9 4 C6.03 4 3.06 4 0 4 C0 2.68 0 1.36 0 0 Z " fill="#00529D" transform="translate(354,133)"/>
<path d="M0 0 C1.32 0 2.64 0 4 0 C4 7.26 4 14.52 4 22 C8.29 22 12.58 22 17 22 C17 23.32 17 24.64 17 26 C11.39 26 5.78 26 0 26 C0 17.42 0 8.84 0 0 Z " fill="#00529D" transform="translate(483,93)"/>
<path d="M0 0 C6.6 0 13.2 0 20 0 C20 0.99 20 1.98 20 3 C17.36 3 14.72 3 12 3 C12 10.59 12 18.18 12 26 C10.68 26 9.36 26 8 26 C8 18.41 8 10.82 8 3 C5.36 3 2.72 3 0 3 C0 2.01 0 1.02 0 0 Z " fill="#00529D" transform="translate(229,93)"/>
<path d="M0 0 C1.65 0 3.3 0 5 0 C5 8.58 5 17.16 5 26 C3.35 26 1.7 26 0 26 C0 17.42 0 8.84 0 0 Z " fill="#00529D" transform="translate(377,133)"/>
<path d="M0 0 C1.65 0 3.3 0 5 0 C5 8.58 5 17.16 5 26 C3.35 26 1.7 26 0 26 C0 17.42 0 8.84 0 0 Z " fill="#00529D" transform="translate(307,133)"/>
<path d="M0 0 C0.66 0.33 1.32 0.66 2 1 C1.84152588 1.52110352 1.68305176 2.04220703 1.51977539 2.57910156 C0.86021098 5.65107932 0.78002727 8.59339747 0.68359375 11.734375 C0.64169922 13.02988281 0.59980469 14.32539063 0.55664062 15.66015625 C0.51683329 17.02343476 0.47712094 18.38671606 0.4375 19.75 C0.39427726 21.12891875 0.35066179 22.50782526 0.30664062 23.88671875 C0.20056042 27.2577119 0.0985015 30.62877826 0 34 C-2.8819407 31.1459378 -5.42396997 28.1330095 -8 25 C-7.34 25 -6.68 25 -6 25 C-5.9175 23.989375 -5.835 22.97875 -5.75 21.9375 C-5.21489128 17.57006854 -4.13649803 13.3676221 -3 9.125 C-2.73268066 8.12521118 -2.73268066 8.12521118 -2.45996094 7.10522461 C-1.14002082 2.28004163 -1.14002082 2.28004163 0 0 Z " fill="#F7F5F3" transform="translate(80,2)"/>
<path d="M0 0 C0.625 1.75 0.625 1.75 1 4 C0.34 5.32 -0.32 6.64 -1 8 C10.385 10.97 10.385 10.97 22 14 C22.33 15.32 22.66 16.64 23 18 C18.45014389 19.45558777 14.05663064 20.85672805 9.3125 21.5 C5.42026679 22.0875069 2.55163481 23.33290611 -1 25 C-0.34 26.65 0.32 28.3 1 30 C0.34 30 -0.32 30 -1 30 C-4 25.61538462 -4 25.61538462 -4 23 C-1.31260128 22.20798823 1.37491563 21.41638134 4.0625 20.625 C4.81466797 20.40328125 5.56683594 20.1815625 6.34179688 19.953125 C10.88878695 18.6146171 15.44063865 17.29575475 20 16 C18.77023438 15.73445313 17.54046875 15.46890625 16.2734375 15.1953125 C14.64058755 14.83871309 13.00777713 14.48193267 11.375 14.125 C10.16263672 13.86396484 10.16263672 13.86396484 8.92578125 13.59765625 C4.51437032 12.62929775 0.25940436 11.5300773 -4 10 C-3.29445932 6.33118845 -1.72264494 3.29549466 0 0 Z " fill="#2E5FA5" transform="translate(96,22)"/>
<path d="M0 0 C0.33 0.66 0.66 1.32 1 2 C2.98700051 2.40365837 4.99225946 2.71699995 7 3 C10.11387427 3.60112046 13.21253493 4.26878259 16.3125 4.9375 C17.13556641 5.10701172 17.95863281 5.27652344 18.80664062 5.45117188 C20.88634759 5.90208938 22.94589305 6.44398535 25 7 C25.495 7.99 25.495 7.99 26 9 C24.68 9.33 23.36 9.66 22 10 C22 9.67 22 9.34 22 9 C11.77 8.67 1.54 8.34 -9 8 C-7.35 6.68 -5.7 5.36 -4 4 C-2.64852862 2.68505488 -1.30887458 1.35735142 0 0 Z " fill="#F6F5F6" transform="translate(91,30)"/>
<path d="M0 0 C0.94875 0.680625 1.8975 1.36125 2.875 2.0625 C5.10102615 2.83189681 5.10102615 2.83189681 6.875 3.0625 C6.875 3.7225 6.875 4.3825 6.875 5.0625 C-3.685 4.7325 -14.245 4.4025 -25.125 4.0625 C-21.39366494 1.2639987 -19.61011026 0.42342346 -15.25 -0.625 C-14.24195313 -0.87636719 -13.23390625 -1.12773438 -12.1953125 -1.38671875 C-7.32046952 -2.26121348 -4.28376946 -2.65593707 0 0 Z " fill="#F3AA30" transform="translate(74.125,33.9375)"/>
<path d="M0 0 C0.33 0 0.66 0 1 0 C1 9.9 1 19.8 1 30 C-1.16435982 26.75346027 -2.07789203 23.98341021 -3.1875 20.25 C-3.55230469 19.05890625 -3.91710937 17.8678125 -4.29296875 16.640625 C-5.36131942 11.13950445 -4.81191753 7.39548325 -2 2.5625 C-1.34 1.716875 -0.68 0.87125 0 0 Z " fill="#F6AB28" transform="translate(79,40)"/>
<path d="M0 0 C1.32 0 2.64 0 4 0 C4 8.58 4 17.16 4 26 C2.68 26 1.36 26 0 26 C0 17.42 0 8.84 0 0 Z " fill="#00529D" transform="translate(427,93)"/>
<path d="M0 0 C10.23 0 20.46 0 31 0 C29.35 1.32 27.7 2.64 26 4 C25.4225 4.62261719 24.845 5.24523438 24.25 5.88671875 C20.41349337 7.78499026 16.91812417 6.0486494 13 4.8125 C12.19304688 4.57724609 11.38609375 4.34199219 10.5546875 4.09960938 C6.78332175 2.97629004 3.5484387 1.77421935 0 0 Z " fill="#FBFAFA" transform="translate(47,39)"/>
<path d="M0 0 C4 5 4 5 4 7 C4.99 7.33 5.98 7.66 7 8 C6.21342661 10.91812724 5.42096721 13.83443473 4.625 16.75 C4.29242188 17.9875 4.29242188 17.9875 3.953125 19.25 C3.73398438 20.04921875 3.51484375 20.8484375 3.2890625 21.671875 C2.99056396 22.77160645 2.99056396 22.77160645 2.68603516 23.89355469 C2 26 2 26 0 30 C0 20.1 0 10.2 0 0 Z " fill="#FCFBFB" transform="translate(81,41)"/>
<path d="M0 0 C4.57457154 6.8618573 6.16453262 12.74916253 5 21 C3.92846308 23.51955978 2.84982214 24.925957 1 27 C0.67 27 0.34 27 0 27 C0 18.09 0 9.18 0 0 Z " fill="#F2AB32" transform="translate(81,9)"/>
<path d="M0 0 C0.804375 0.495 1.60875 0.99 2.4375 1.5 C6.82002454 3.34527349 10.32315231 3.28061086 15 3 C12 5 12 5 9 5 C9.66 6.11375 10.32 7.2275 11 8.375 C13 11.75 13 11.75 13 14 C7.76088796 12.53792222 3.7436678 10.6570176 0.6875 6 C0 4 0 4 0 0 Z " fill="#F6AD3B" transform="translate(83,40)"/>
<path d="M0 0 C2.9719385 1.12451727 5.33440687 2.22293791 8 4 C8 4.66 8 5.32 8 6 C8.598125 6.20625 9.19625 6.4125 9.8125 6.625 C12.81018767 8.50926082 13.61361776 10.81132084 15 14 C10.99349018 13.42764145 8.21435185 12.49112269 5 10 C0 3.31506849 0 3.31506849 0 0 Z " fill="#F6AC3B" transform="translate(64,22)"/>
<path d="M0 0 C6.6 0 13.2 0 20 0 C20 0.66 20 1.32 20 2 C14.39346792 4.25024076 10.02496376 5.77204816 4 4 C2.68 2.68 1.36 1.36 0 0 Z " fill="#F5A51F" transform="translate(83,39)"/>
<path d="M0 0 C0.66 0.33 1.32 0.66 2 1 C1.74605469 1.79921875 1.49210937 2.5984375 1.23046875 3.421875 C-1.11105417 10.89370096 -3.18829667 18.382611 -5 26 C-7.475 25.01 -7.475 25.01 -10 24 C-8.68 23.67 -7.36 23.34 -6 23 C-5.9175 21.96875 -5.835 20.9375 -5.75 19.875 C-3.77772074 3.77772074 -3.77772074 3.77772074 0 0 Z " fill="#3661A6" transform="translate(79,1)"/>
<path d="M0 0 C1.21236328 0.01353516 1.21236328 0.01353516 2.44921875 0.02734375 C3.37154297 0.04474609 3.37154297 0.04474609 4.3125 0.0625 C2.03478105 2.87094958 0.95052112 3.97985478 -2.703125 4.453125 C-4.30414063 4.38351563 -4.30414063 4.38351563 -5.9375 4.3125 C-7.01515625 4.27640625 -8.0928125 4.2403125 -9.203125 4.203125 C-10.02296875 4.15671875 -10.8428125 4.1103125 -11.6875 4.0625 C-7.77955721 0.9630971 -4.97782666 -0.07214242 0 0 Z " fill="#EFAE3F" transform="translate(60.6875,33.9375)"/>
<path d="M0 0 C0 3 0 3 -1.35546875 4.46484375 C-1.96003906 4.95082031 -2.56460938 5.43679687 -3.1875 5.9375 C-3.82171875 6.45441406 -4.4559375 6.97132812 -5.109375 7.50390625 C-5.73328125 7.99761719 -6.3571875 8.49132813 -7 9 C-7.969375 9.78375 -8.93875 10.5675 -9.9375 11.375 C-10.618125 11.91125 -11.29875 12.4475 -12 13 C-11.690625 12.29875 -11.38125 11.5975 -11.0625 10.875 C-9.96697322 7.91063343 -9.43577008 5.12301892 -9 2 C-8.67 2.66 -8.34 3.32 -8 4 C-5.36 2.68 -2.72 1.36 0 0 Z " fill="#E9E5E1" transform="translate(95,22)"/>
<path d="M0 0 C0.804375 0.495 1.60875 0.99 2.4375 1.5 C6.82002454 3.34527349 10.32315231 3.28061086 15 3 C12 5 12 5 9 5 C9.515625 5.78375 10.03125 6.5675 10.5625 7.375 C11.036875 8.24125 11.51125 9.1075 12 10 C11.67 10.66 11.34 11.32 11 12 C10.54109375 11.52949219 10.0821875 11.05898438 9.609375 10.57421875 C5.77414308 6.66905586 5.77414308 6.66905586 1.5625 3.1875 C1.046875 2.795625 0.53125 2.40375 0 2 C0 1.34 0 0.68 0 0 Z " fill="#F0E5D7" transform="translate(83,40)"/>
<path d="M0 0 C0.66 0.33 1.32 0.66 2 1 C1.45730469 1.51949219 0.91460937 2.03898437 0.35546875 2.57421875 C-4.99529043 7.75654302 -4.99529043 7.75654302 -9 14 C-9.99 13.67 -10.98 13.34 -12 13 C-10.95020485 11.38749044 -9.88455531 9.78529672 -8.8125 8.1875 C-8.22082031 7.29417969 -7.62914063 6.40085937 -7.01953125 5.48046875 C-4.87566773 2.84729016 -3.06803437 1.43107986 0 0 Z " fill="#F1B859" transform="translate(76,40)"/>
<path d="M0 0 C0.53394179 1.4117783 1.05165104 2.82970244 1.5625 4.25 C1.85253906 5.03890625 2.14257812 5.8278125 2.44140625 6.640625 C3.04522837 9.19103452 2.8473932 10.55322229 2 13 C1.67 11.02 1.34 9.04 1 7 C0.34 7 -0.32 7 -1 7 C-1.66 5.68 -2.32 4.36 -3 3 C-3.99 3.66 -4.98 4.32 -6 5 C-8.1875 4.625 -8.1875 4.625 -10 4 C-8.71086513 3.32845067 -7.41859796 2.66291141 -6.125 2 C-5.40570313 1.62875 -4.68640625 1.2575 -3.9453125 0.875 C-2 0 -2 0 0 0 Z " fill="#466DAB" transform="translate(74,50)"/>
<path d="M0 0 C0.33 0.66 0.66 1.32 1 2 C-4.96583144 10.81548975 -4.96583144 10.81548975 -10 12 C-8.52278578 8.54798361 -6.56205999 6.35038064 -3.875 3.75 C-3.15054688 3.04359375 -2.42609375 2.3371875 -1.6796875 1.609375 C-1.12539062 1.07828125 -0.57109375 0.5471875 0 0 Z " fill="#F5B140" transform="translate(94,24)"/>
<path d="M0 0 C0.33 0.66 0.66 1.32 1 2 C-1.90971331 8.51775781 -1.90971331 8.51775781 -6.25 10.4375 C-7.61125 10.7159375 -7.61125 10.7159375 -9 11 C-6.62245212 6.50907623 -3.6393937 3.47764287 0 0 Z " fill="#F9ECD9" transform="translate(77,41)"/>
<path d="M0 0 C5.94 1.485 5.94 1.485 12 3 C10 8 10 8 8 10 C8.33 8.02 8.66 6.04 9 4 C4.545 3.01 4.545 3.01 0 2 C0 1.34 0 0.68 0 0 Z " fill="#3964A9" transform="translate(57,42)"/>
<path d="M0 0 C0.93065133 2.60582371 1.14917407 3.64198224 0.0625 6.25 C-0.4634375 7.11625 -0.4634375 7.11625 -1 8 C2.465 9.485 2.465 9.485 6 11 C2.18510326 12.46726798 -0.29011622 11.43336419 -4 10 C-3.29445932 6.33118845 -1.72264494 3.29549466 0 0 Z " fill="#3562A8" transform="translate(96,22)"/>
<path d="M0 0 C2.94262485 0.63056247 5.34638358 1.59026628 8 3 C8.7425 3.37125 9.485 3.7425 10.25 4.125 C10.8275 4.41375 11.405 4.7025 12 5 C8.57056481 6.18771723 6.62215325 5.80226223 3.25 4.5625 C2.45078125 4.27503906 1.6515625 3.98757812 0.828125 3.69140625 C0.22484375 3.46324219 -0.3784375 3.23507813 -1 3 C-0.67 2.01 -0.34 1.02 0 0 Z " fill="#406BAA" transform="translate(43,37)"/>
<path d="M0 0 C4.13621084 3.3810038 7.81316569 6.66590534 11 11 C7.05735118 9.68578373 4.66043371 8.21086827 2 5 C0.75 2.25 0.75 2.25 0 0 Z " fill="#FBF7F0" transform="translate(66,25)"/>
<path d="M0 0 C2.49361571 1.20381448 4.68143083 2.45428722 7 4 C7 4.66 7 5.32 7 6 C1.25 4.375 1.25 4.375 -1 1 C-0.67 0.67 -0.34 0.34 0 0 Z " fill="#E7C384" transform="translate(89,48)"/>
<path d="M0 0 C3.37503669 1.1858237 5.64722731 2.27573689 8 5 C7.01 5.33 6.02 5.66 5 6 C2.3125 4.1875 2.3125 4.1875 0 2 C0 1.34 0 0.68 0 0 Z " fill="#E0C495" transform="translate(64,22)"/>
<path d="M0 0 C0.66 0 1.32 0 2 0 C2.33 1.32 2.66 2.64 3 4 C2.01 4 1.02 4 0 4 C0 2.68 0 1.36 0 0 Z " fill="#00529D" transform="translate(35,112)"/>
<path d="M0 0 C0.66 0 1.32 0 2 0 C2 0.99 2 1.98 2 3 C1.34 3 0.68 3 0 3 C0 2.01 0 1.02 0 0 Z " fill="#00529D" transform="translate(125,96)"/>
</svg>
