<?xml version="1.0" encoding="UTF-8"?>
<svg version="1.1" xmlns="http://www.w3.org/2000/svg" width="387" height="130">
<path d="M0 0 C127.71 0 255.42 0 387 0 C387 42.9 387 85.8 387 130 C259.29 130 131.58 130 0 130 C0 87.1 0 44.2 0 0 Z " fill="#FBFCFD" transform="translate(0,0)"/>
<path d="M0 0 C3.36591866 1.44253657 5.51047079 3.33264727 8 6 C7.67 6.66 7.34 7.32 7 8 C6.01 7.34 5.02 6.68 4 6 C3.01 6.99 2.02 7.98 1 9 C1.495 9.8353125 1.495 9.8353125 2 10.6875 C3.1309601 13.30284522 3.15662974 15.1806646 3 18 C2.401875 17.690625 1.80375 17.38125 1.1875 17.0625 C-1.08956772 15.89790296 -1.08956772 15.89790296 -4 15 C-3.484375 15.928125 -2.96875 16.85625 -2.4375 17.8125 C-1 21 -1 21 -2 24 C-3.485 23.505 -3.485 23.505 -5 23 C-5.495 20.03 -5.495 20.03 -6 17 C-6.66 17 -7.32 17 -8 17 C-7.690625 17.928125 -7.690625 17.928125 -7.375 18.875 C-7.189375 19.926875 -7.189375 19.926875 -7 21 C-7.66 21.66 -8.32 22.32 -9 23 C-7.515 23.495 -7.515 23.495 -6 24 C-6 28.29 -6 32.58 -6 37 C-7.65 37.66 -9.3 38.32 -11 39 C-11.495 39.99 -11.495 39.99 -12 41 C-11.34 41.33 -10.68 41.66 -10 42 C-8.81270449 48.15670173 -8.26535075 54.20897806 -11 60 C-9.68 59.67 -8.36 59.34 -7 59 C-9.55596484 62.12395702 -12.12667029 63.03166757 -16 64 C-18.33212027 64.07522969 -20.6685311 64.09325876 -23 64 C-23 66.31 -23 68.62 -23 71 C-20.43471112 70.40615522 -17.87324546 69.80038512 -15.3125 69.1875 C-14.59126953 69.02185547 -13.87003906 68.85621094 -13.12695312 68.68554688 C-8.91605959 67.66647218 -5.65460375 66.41858603 -2 64 C-1.175 63.731875 -0.35 63.46375 0.5 63.1875 C3.29259564 62.07511411 3.29259564 62.07511411 5.5 59 C8.10412266 55.87505281 9.38005888 55.42892413 13 54 C14.75322937 51.46811352 14.75322937 51.46811352 16 49 C16.33 49 16.66 49 17 49 C17 53.29 17 57.58 17 62 C20.3 59.36 23.6 56.72 27 54 C27.33 54.66 27.66 55.32 28 56 C27.36328125 57.875 27.36328125 57.875 26.3125 60 C25.97863281 60.70125 25.64476563 61.4025 25.30078125 62.125 C23.77525361 64.32395876 22.37645776 64.87118256 20 66 C19.896875 66.7425 19.79375 67.485 19.6875 68.25 C18.62529809 72.49880765 15.44480201 74.48601054 12 77 C11.01 77.495 11.01 77.495 10 78 C10.66 78.66 11.32 79.32 12 80 C8.03282256 82.6908737 3.9120603 82.26267157 -0.6875 82.1875 C-1.49171387 82.18105469 -2.29592773 82.17460938 -3.12451172 82.16796875 C-8.4746009 82.09861374 -13.70208907 81.78487569 -19 81 C-18.4946875 81.33773437 -17.989375 81.67546875 -17.46875 82.0234375 C-16.49421875 82.69246094 -16.49421875 82.69246094 -15.5 83.375 C-14.52546875 84.03628906 -14.52546875 84.03628906 -13.53125 84.7109375 C-13.0259375 85.13632813 -12.520625 85.56171875 -12 86 C-12 86.66 -12 87.32 -12 88 C-14.54404202 86.86931466 -16.23858527 85.78075948 -18.3125 83.875 C-21.72460063 81.49446468 -23.92829904 81.68065091 -28 82 C-28 81.67 -28 81.34 -28 81 C-29.27875 81.165 -30.5575 81.33 -31.875 81.5 C-37.08466159 82.01796347 -42.26892321 82.14590925 -47.5 82.1875 C-48.70245361 82.20683594 -48.70245361 82.20683594 -49.92919922 82.2265625 C-51.95420526 82.2300174 -53.97874197 82.12319651 -56 82 C-56.66 81.34 -57.32 80.68 -58 80 C-57.01 79.505 -57.01 79.505 -56 79 C-56.61488281 78.61328125 -57.22976562 78.2265625 -57.86328125 77.828125 C-58.67152344 77.30734375 -59.47976562 76.7865625 -60.3125 76.25 C-61.11300781 75.73953125 -61.91351563 75.2290625 -62.73828125 74.703125 C-65.00368861 72.99722239 -66.42684167 71.34191855 -68 69 C-67.01 68.505 -67.01 68.505 -66 68 C-66.47050781 67.67128906 -66.94101563 67.34257813 -67.42578125 67.00390625 C-72.64253232 63.01843804 -74.51962648 59.34445796 -76 53 C-75.44570312 53.433125 -74.89140625 53.86625 -74.3203125 54.3125 C-73.59585938 54.869375 -72.87140625 55.42625 -72.125 56 C-71.40570313 56.556875 -70.68640625 57.11375 -69.9453125 57.6875 C-68.1147915 59.18643377 -68.1147915 59.18643377 -66 59 C-66.8353125 58.38125 -66.8353125 58.38125 -67.6875 57.75 C-68.450625 57.1725 -69.21375 56.595 -70 56 C-71.20462891 55.14148438 -71.20462891 55.14148438 -72.43359375 54.265625 C-75.32087017 51.71673562 -76.67937991 49.44288343 -78.375 46 C-78.89835937 44.96875 -79.42171875 43.9375 -79.9609375 42.875 C-81.02282362 39.93684892 -81.15904779 38.83625813 -80 36 C-78.68527053 37.62319675 -77.37328338 39.248615 -76.0625 40.875 C-75.33160156 41.77992187 -74.60070312 42.68484375 -73.84765625 43.6171875 C-72 46 -72 46 -71 48 C-70.01 44.37 -69.02 40.74 -68 37 C-67.34 38.32 -66.68 39.64 -66 41 C-65.34 41 -64.68 41 -64 41 C-64.04640625 39.81664062 -64.0928125 38.63328125 -64.140625 37.4140625 C-64.38136539 28.51983341 -64.49702 20.9902409 -60 13 C-58.85890418 16.42328747 -59.15266449 17.06602175 -60.375 20.3125 C-61.64759778 23.86880066 -62.5176786 27.2378931 -63 31 C-60.69 31 -58.38 31 -56 31 C-56.04125 29.948125 -56.0825 28.89625 -56.125 27.8125 C-56.00852125 24.25989827 -55.52791932 22.15133359 -54 19 C-52.90101298 22.29696105 -53.12875556 23.40494903 -53.9375 26.6875 C-54.13214844 27.49574219 -54.32679687 28.30398437 -54.52734375 29.13671875 C-54.68332031 29.75160156 -54.83929688 30.36648437 -55 31 C-53.02 31 -51.04 31 -49 31 C-48.34 28.03 -47.68 25.06 -47 22 C-46.02391783 24.92824652 -45.91773332 26.95613276 -46 30 C-45.34 29.67 -44.68 29.34 -44 29 C-44 29.66 -44 30.32 -44 31 C-43.34 31 -42.68 31 -42 31 C-42 30.01 -42 29.02 -42 28 C-42.66 28 -43.32 28 -44 28 C-43.9375 26.1875 -43.9375 26.1875 -43 24 C-39.4375 22.25 -39.4375 22.25 -36 21 C-35.505 21.99 -35.505 21.99 -35 23 C-31.51277367 23.09963504 -28.37713054 22.91273798 -25 22 C-24.34 21.34 -23.68 20.68 -23 20 C-22.505 21.485 -22.505 21.485 -22 23 C-19.69 22.67 -17.38 22.34 -15 22 C-15 21.34 -15 20.68 -15 20 C-15.66 19.67 -16.32 19.34 -17 19 C-14.69 18.34 -12.38 17.68 -10 17 C-10 15.68 -10 14.36 -10 13 C-11.98 12.01 -13.96 11.02 -16 10 C-14.68 9.01 -13.36 8.02 -12 7 C-11.38125 7.804375 -10.7625 8.60875 -10.125 9.4375 C-8.25835959 12.03874519 -8.25835959 12.03874519 -6 13 C-5.67 12.01 -5.34 11.02 -5 10 C-5.99 9.67 -6.98 9.34 -8 9 C-8.495 6.525 -8.495 6.525 -9 4 C-8.01 3.67 -7.02 3.34 -6 3 C-4.68 4.32 -3.36 5.64 -2 7 C-0.68 6.34 0.64 5.68 2 5 C1.01 2.525 1.01 2.525 0 0 Z " fill="#EAF0F7" transform="translate(88,39)"/>
<path d="M0 0 C3.36591866 1.44253657 5.51047079 3.33264727 8 6 C7.67 6.66 7.34 7.32 7 8 C6.01 7.34 5.02 6.68 4 6 C3.01 6.99 2.02 7.98 1 9 C1.495 9.8353125 1.495 9.8353125 2 10.6875 C3.1309601 13.30284522 3.15662974 15.1806646 3 18 C2.401875 17.690625 1.80375 17.38125 1.1875 17.0625 C-1.08956772 15.89790296 -1.08956772 15.89790296 -4 15 C-3.484375 15.928125 -2.96875 16.85625 -2.4375 17.8125 C-1 21 -1 21 -2 24 C-3.485 23.505 -3.485 23.505 -5 23 C-5.495 20.03 -5.495 20.03 -6 17 C-6.66 17 -7.32 17 -8 17 C-7.690625 17.928125 -7.690625 17.928125 -7.375 18.875 C-7.189375 19.926875 -7.189375 19.926875 -7 21 C-7.66 21.66 -8.32 22.32 -9 23 C-7.515 23.495 -7.515 23.495 -6 24 C-6 28.29 -6 32.58 -6 37 C-7.65 37.66 -9.3 38.32 -11 39 C-11.495 39.99 -11.495 39.99 -12 41 C-11.34 41.33 -10.68 41.66 -10 42 C-10.33 42.99 -10.66 43.98 -11 45 C-12.98 44.67 -14.96 44.34 -17 44 C-17 42.68 -17 41.36 -17 40 C-18.65 40.66 -20.3 41.32 -22 42 C-22.33 41.01 -22.66 40.02 -23 39 C-22.505 38.01 -22.505 38.01 -22 37 C-22.66 37 -23.32 37 -24 37 C-24 36.34 -24 35.68 -24 35 C-23.34 35 -22.68 35 -22 35 C-22.33 31.7 -22.66 28.4 -23 25 C-26.93075644 25.57452746 -26.93075644 25.57452746 -30 28 C-29.505 28.4125 -29.01 28.825 -28.5 29.25 C-27 31 -27 31 -27 35 C-27.99 35.495 -27.99 35.495 -29 36 C-29 36.99 -29 37.98 -29 39 C-29.66 39 -30.32 39 -31 39 C-32.125 35.25 -32.125 35.25 -31 33 C-32.32 34.32 -33.64 35.64 -35 37 C-35.78375 36.525625 -36.5675 36.05125 -37.375 35.5625 C-38.88948678 34.66101977 -40.4235897 33.78820515 -42 33 C-42.66 33.99 -43.32 34.98 -44 36 C-44 34.68 -44 33.36 -44 32 C-44.66 32 -45.32 32 -46 32 C-45.40705795 34.41992592 -44.80120861 36.83533558 -44.1875 39.25 C-44.02185547 39.93191406 -43.85621094 40.61382812 -43.68554688 41.31640625 C-42.69999467 45.14704312 -41.6616632 48.04090166 -39 51 C-40.32 51.99 -41.64 52.98 -43 54 C-42.505 55.98 -42.505 55.98 -42 58 C-42.7425 57.79375 -43.485 57.5875 -44.25 57.375 C-47.32330841 56.95591249 -48.42786866 57.38050989 -51 59 C-49.515 59.495 -49.515 59.495 -48 60 C-46.8125 62.5625 -46.8125 62.5625 -46 65 C-49.53842155 63.8741386 -52.66189518 62.66905241 -56 61 C-55.01 64.63 -54.02 68.26 -53 72 C-55.31309705 71.88658363 -57.62550185 71.75896193 -59.9375 71.625 C-61.22527344 71.55539063 -62.51304688 71.48578125 -63.83984375 71.4140625 C-64.88269531 71.27742188 -65.92554688 71.14078125 -67 71 C-67.33 70.34 -67.66 69.68 -68 69 C-67.01 68.505 -67.01 68.505 -66 68 C-66.47050781 67.67128906 -66.94101563 67.34257813 -67.42578125 67.00390625 C-72.64253232 63.01843804 -74.51962648 59.34445796 -76 53 C-75.44570312 53.433125 -74.89140625 53.86625 -74.3203125 54.3125 C-73.59585938 54.869375 -72.87140625 55.42625 -72.125 56 C-71.40570313 56.556875 -70.68640625 57.11375 -69.9453125 57.6875 C-68.1147915 59.18643377 -68.1147915 59.18643377 -66 59 C-66.8353125 58.38125 -66.8353125 58.38125 -67.6875 57.75 C-68.450625 57.1725 -69.21375 56.595 -70 56 C-71.20462891 55.14148438 -71.20462891 55.14148438 -72.43359375 54.265625 C-75.32087017 51.71673562 -76.67937991 49.44288343 -78.375 46 C-78.89835937 44.96875 -79.42171875 43.9375 -79.9609375 42.875 C-81.02282362 39.93684892 -81.15904779 38.83625813 -80 36 C-78.68527053 37.62319675 -77.37328338 39.248615 -76.0625 40.875 C-75.33160156 41.77992187 -74.60070312 42.68484375 -73.84765625 43.6171875 C-72 46 -72 46 -71 48 C-70.01 44.37 -69.02 40.74 -68 37 C-67.34 38.32 -66.68 39.64 -66 41 C-65.34 41 -64.68 41 -64 41 C-64.04640625 39.81664062 -64.0928125 38.63328125 -64.140625 37.4140625 C-64.38136539 28.51983341 -64.49702 20.9902409 -60 13 C-58.85890418 16.42328747 -59.15266449 17.06602175 -60.375 20.3125 C-61.64759778 23.86880066 -62.5176786 27.2378931 -63 31 C-60.69 31 -58.38 31 -56 31 C-56.04125 29.948125 -56.0825 28.89625 -56.125 27.8125 C-56.00852125 24.25989827 -55.52791932 22.15133359 -54 19 C-52.90101298 22.29696105 -53.12875556 23.40494903 -53.9375 26.6875 C-54.13214844 27.49574219 -54.32679687 28.30398437 -54.52734375 29.13671875 C-54.68332031 29.75160156 -54.83929688 30.36648437 -55 31 C-53.02 31 -51.04 31 -49 31 C-48.34 28.03 -47.68 25.06 -47 22 C-46.02391783 24.92824652 -45.91773332 26.95613276 -46 30 C-45.34 29.67 -44.68 29.34 -44 29 C-44 29.66 -44 30.32 -44 31 C-43.34 31 -42.68 31 -42 31 C-42 30.01 -42 29.02 -42 28 C-42.66 28 -43.32 28 -44 28 C-43.9375 26.1875 -43.9375 26.1875 -43 24 C-39.4375 22.25 -39.4375 22.25 -36 21 C-35.505 21.99 -35.505 21.99 -35 23 C-31.51277367 23.09963504 -28.37713054 22.91273798 -25 22 C-24.34 21.34 -23.68 20.68 -23 20 C-22.505 21.485 -22.505 21.485 -22 23 C-19.69 22.67 -17.38 22.34 -15 22 C-15 21.34 -15 20.68 -15 20 C-15.66 19.67 -16.32 19.34 -17 19 C-14.69 18.34 -12.38 17.68 -10 17 C-10 15.68 -10 14.36 -10 13 C-11.98 12.01 -13.96 11.02 -16 10 C-14.68 9.01 -13.36 8.02 -12 7 C-11.38125 7.804375 -10.7625 8.60875 -10.125 9.4375 C-8.25835959 12.03874519 -8.25835959 12.03874519 -6 13 C-5.67 12.01 -5.34 11.02 -5 10 C-5.99 9.67 -6.98 9.34 -8 9 C-8.495 6.525 -8.495 6.525 -9 4 C-8.01 3.67 -7.02 3.34 -6 3 C-4.68 4.32 -3.36 5.64 -2 7 C-0.68 6.34 0.64 5.68 2 5 C1.01 2.525 1.01 2.525 0 0 Z " fill="#D0DEED" transform="translate(88,39)"/>
<path d="M0 0 C2.11044382 3.16566573 2.75552077 5.51197415 3.625 9.1875 C4.01558594 10.81751953 4.01558594 10.81751953 4.4140625 12.48046875 C4.60742188 13.31191406 4.80078125 14.14335937 5 15 C6.98 15 8.96 15 11 15 C9.28418916 19.63268926 7.34849752 20.37625207 3 24 C13.89 24.495 13.89 24.495 25 25 C18.62462536 28.18768732 13.01881651 29.29245069 6 29 C6 31.40755746 9.50696816 34.24568759 11 36 C11.99 35.67 12.98 35.34 14 35 C16 37 16 37 16.5 39.5625 C16.7475 40.7690625 16.7475 40.7690625 17 42 C17.99 42.495 17.99 42.495 19 43 C18.67 44.32 18.34 45.64 18 47 C16.35 45.35 14.7 43.7 13 42 C12.01 42.33 11.02 42.66 10 43 C11.98 44.32 13.96 45.64 16 47 C15.3125 48.9375 15.3125 48.9375 14 51 C11.375 51.75 11.375 51.75 9 52 C9 52.99 9 53.98 9 55 C5.535 55.495 5.535 55.495 2 56 C1.67 55.34 1.34 54.68 1 54 C0.505 54.309375 0.01 54.61875 -0.5 54.9375 C-4.05703393 56.44923942 -7.13278455 56.75050223 -11 57 C-11.66 56.34 -12.32 55.68 -13 55 C-15.99992729 56.29144978 -15.99992729 56.29144978 -19 58 C-19.33 58.99 -19.66 59.98 -20 61 C-19.34 61 -18.68 61 -18 61 C-18 61.99 -18 62.98 -18 64 C-19.66666667 64 -21.33333333 64 -23 64 C-22.91245449 62.24908981 -22.80426627 60.49920449 -22.6875 58.75 C-22.62949219 57.77546875 -22.57148437 56.8009375 -22.51171875 55.796875 C-21.94728533 52.71188011 -20.92077685 51.40998275 -19 49 C-19 48.01 -19 47.02 -19 46 C-16.11562221 47.29299694 -14.12780579 48.65941363 -12 51 C-8.9168649 49.80100302 -5.93720508 48.52299523 -3 47 C-3.495 44.525 -3.495 44.525 -4 42 C-6.97 42.495 -6.97 42.495 -10 43 C-9.34 42.34 -8.68 41.68 -8 41 C-7.01 41 -6.02 41 -5 41 C-5 39.02 -5 37.04 -5 35 C-5.680625 35.495 -6.36125 35.99 -7.0625 36.5 C-10.59465009 38.30365111 -13.08636991 38.23021353 -17 38 C-15.44724539 36.44724539 -13.89434193 34.89825519 -12.3125 33.375 C-10.88492071 32.19625129 -10.88492071 32.19625129 -11 31 C-12.258125 31 -13.51625 31 -14.8125 31 C-17.20833333 31 -19.60416667 31 -22 31 C-21.34 30.01 -20.68 29.02 -20 28 C-24.455 27.01 -24.455 27.01 -29 26 C-29 25.34 -29 24.68 -29 24 C-21.33854067 21.65687944 -14.02770189 19.55363461 -6 19 C-6.66 18.01 -7.32 17.02 -8 16 C-4.28139821 17.53873177 -3.64366459 18.47511388 -1 22 C-0.67 14.74 -0.34 7.48 0 0 Z " fill="#D9E1E8" transform="translate(64,6)"/>
<path d="M0 0 C3.36591866 1.44253657 5.51047079 3.33264727 8 6 C7.67 6.66 7.34 7.32 7 8 C6.01 7.34 5.02 6.68 4 6 C3.01 6.99 2.02 7.98 1 9 C1.495 9.8353125 1.495 9.8353125 2 10.6875 C3.1309601 13.30284522 3.15662974 15.1806646 3 18 C2.401875 17.690625 1.80375 17.38125 1.1875 17.0625 C-1.08956772 15.89790296 -1.08956772 15.89790296 -4 15 C-3.484375 15.928125 -2.96875 16.85625 -2.4375 17.8125 C-1 21 -1 21 -2 24 C-2.99 23.67 -3.98 23.34 -5 23 C-5.495 20.03 -5.495 20.03 -6 17 C-6.66 17 -7.32 17 -8 17 C-7.79375 17.61875 -7.5875 18.2375 -7.375 18.875 C-7.189375 19.926875 -7.189375 19.926875 -7 21 C-7.66 21.66 -8.32 22.32 -9 23 C-8.01 23.33 -7.02 23.66 -6 24 C-6 28.29 -6 32.58 -6 37 C-7.65 37.66 -9.3 38.32 -11 39 C-11.495 39.99 -11.495 39.99 -12 41 C-11.01 41.495 -11.01 41.495 -10 42 C-10.33 42.99 -10.66 43.98 -11 45 C-12.98 44.67 -14.96 44.34 -17 44 C-17 42.68 -17 41.36 -17 40 C-18.65 40.66 -20.3 41.32 -22 42 C-22.33 41.01 -22.66 40.02 -23 39 C-22.67 38.34 -22.34 37.68 -22 37 C-22.66 37 -23.32 37 -24 37 C-24 36.34 -24 35.68 -24 35 C-23.34 35 -22.68 35 -22 35 C-22.495 30.05 -22.495 30.05 -23 25 C-26.93075644 25.57452746 -26.93075644 25.57452746 -30 28 C-29.505 28.4125 -29.01 28.825 -28.5 29.25 C-27 31 -27 31 -27 35 C-27.99 35.495 -27.99 35.495 -29 36 C-29 36.99 -29 37.98 -29 39 C-29.66 39 -30.32 39 -31 39 C-32.125 35.25 -32.125 35.25 -31 33 C-32.32 34.32 -33.64 35.64 -35 37 C-37.62901288 35.47793991 -39.84365964 34.15634036 -42 32 C-41.625 29.375 -41.625 29.375 -41 27 C-41.99 27.33 -42.98 27.66 -44 28 C-43.9375 26.1875 -43.9375 26.1875 -43 24 C-39.4375 22.25 -39.4375 22.25 -36 21 C-35.67 21.66 -35.34 22.32 -35 23 C-31.51277367 23.09963504 -28.37713054 22.91273798 -25 22 C-24.34 21.34 -23.68 20.68 -23 20 C-22.67 20.99 -22.34 21.98 -22 23 C-18.535 22.505 -18.535 22.505 -15 22 C-15 21.34 -15 20.68 -15 20 C-15.66 19.67 -16.32 19.34 -17 19 C-14.69 18.34 -12.38 17.68 -10 17 C-10 15.68 -10 14.36 -10 13 C-11.98 12.01 -13.96 11.02 -16 10 C-14.68 9.01 -13.36 8.02 -12 7 C-11.071875 8.2065625 -11.071875 8.2065625 -10.125 9.4375 C-8.25835959 12.03874519 -8.25835959 12.03874519 -6 13 C-5.67 12.01 -5.34 11.02 -5 10 C-5.99 9.67 -6.98 9.34 -8 9 C-8.495 6.525 -8.495 6.525 -9 4 C-8.01 3.67 -7.02 3.34 -6 3 C-4.68 4.32 -3.36 5.64 -2 7 C-0.68 6.34 0.64 5.68 2 5 C1.34 3.35 0.68 1.7 0 0 Z " fill="#055CAA" transform="translate(88,39)"/>
<path d="M0 0 C0.66 0 1.32 0 2 0 C2.33 1.98 2.66 3.96 3 6 C5.475 6.495 5.475 6.495 8 7 C8.33 9.31 8.66 11.62 9 14 C11.31 14 13.62 14 16 14 C16.33 13.01 16.66 12.02 17 11 C17 11.99 17 12.98 17 14 C18.98 14 20.96 14 23 14 C22.34 9.38 21.68 4.76 21 0 C24.77123823 3.77123823 25.13952474 9.53227378 25.375 14.6875 C25.24197137 21.2775338 23.78655944 29.80110957 19.36328125 34.87890625 C18.91339844 35.24886719 18.46351562 35.61882812 18 36 C18.680625 34.14375 18.680625 34.14375 19.375 32.25 C21.2725842 26.61120713 22.15507005 20.87474822 23 15 C21.02 15 19.04 15 17 15 C16.67 16.32 16.34 17.64 16 19 C16 17.68 16 16.36 16 15 C13.69 15 11.38 15 9 15 C8.97421875 15.56847656 8.9484375 16.13695313 8.921875 16.72265625 C8.60738426 21.00401879 8.16744113 24.16511644 5.8125 27.8125 C3.69802652 30.71575446 3.69802652 30.71575446 4.4375 33.125 C6.50811388 35.60973666 8.56592704 37.8627652 11 40 C13.9254644 40.2236068 13.9254644 40.2236068 16 39 C14.01713431 43.62668661 11.51546182 46.24226909 7 48.5 C5.67374072 49.01847285 4.33903135 49.51546638 3 50 C2.03964844 50.35449219 1.07929687 50.70898438 0.08984375 51.07421875 C-5.15829416 52.92765036 -9.37919982 54.24220387 -15 54 C-15 51.69 -15 49.38 -15 47 C-13.95199219 46.80083984 -13.95199219 46.80083984 -12.8828125 46.59765625 C-11.97273438 46.42105469 -11.06265625 46.24445313 -10.125 46.0625 C-9.22007813 45.88847656 -8.31515625 45.71445313 -7.3828125 45.53515625 C-5.00043683 45.10036299 -5.00043683 45.10036299 -3 44 C-3.33 43.34 -3.66 42.68 -4 42 C-3.68289062 41.26394531 -3.36578125 40.52789062 -3.0390625 39.76953125 C-1.78989537 36.43998429 -1.98869384 34.20288609 -2.375 30.6875 C-2.48585938 29.61886719 -2.59671875 28.55023438 -2.7109375 27.44921875 C-2.80632812 26.64097656 -2.90171875 25.83273438 -3 25 C-3.99 24.67 -4.98 24.34 -6 24 C-4.25 22 -4.25 22 -2 20 C-0.68 20 0.64 20 2 20 C1.67 19.34 1.34 18.68 1 18 C0.8578012 14.16063232 0.82245324 10.67983361 2 7 C0.68 6.67 -0.64 6.34 -2 6 C-1.34 5.01 -0.68 4.02 0 3 C0 2.01 0 1.02 0 0 Z " fill="#88ABD2" transform="translate(80,56)"/>
<path d="M0 0 C0 2.83967231 -0.40267181 5.23735711 -1 8 C0.32 8.33 1.64 8.66 3 9 C2.67 10.65 2.34 12.3 2 14 C0.68 14.33 -0.64 14.66 -2 15 C-1.34 16.98 -0.68 18.96 0 21 C1.65 21.33 3.3 21.66 5 22 C5 22.66 5 23.32 5 24 C4.01 24.33 3.02 24.66 2 25 C3.32 25.33 4.64 25.66 6 26 C6 27.98 6 29.96 6 32 C2.37 31.67 -1.26 31.34 -5 31 C-3.370625 31.309375 -1.74125 31.61875 -0.0625 31.9375 C4.875 32.875 4.875 32.875 6 34 C6.04080783 35.99958364 6.04254356 38.00045254 6 40 C-2.55454421 39.96632069 -9.95264093 38.03214435 -17 33 C-17.8359375 30.80078125 -17.8359375 30.80078125 -18 29 C-18.99 29.33 -19.98 29.66 -21 30 C-21 29.34 -21 28.68 -21 28 C-18.4385343 25.70351351 -17.52032428 25 -14 25 C-13.71125 24.38125 -13.4225 23.7625 -13.125 23.125 C-12 21 -12 21 -10 19 C-10.69029297 18.42572266 -10.69029297 18.42572266 -11.39453125 17.83984375 C-13.4217621 15.51666679 -13.92430293 13.53856475 -14.6875 10.5625 C-15.06455078 9.14130859 -15.06455078 9.14130859 -15.44921875 7.69140625 C-16 5 -16 5 -16 1 C-11.6109185 1.51035831 -8.66291938 2.52214277 -5 5 C-3.35 3.35 -1.7 1.7 0 0 Z " fill="#F8FAFC" transform="translate(58,70)"/>
<path d="M0 0 C1.8125 0.9375 1.8125 0.9375 2.8125 3.9375 C2.85204234 6.27049825 2.85651732 8.60458189 2.8125 10.9375 C2.1525 10.9375 1.4925 10.9375 0.8125 10.9375 C0.8125 11.5975 0.8125 12.2575 0.8125 12.9375 C1.4725 12.9375 2.1325 12.9375 2.8125 12.9375 C3.1425 14.2575 3.4725 15.5775 3.8125 16.9375 C5.1325 16.6075 6.4525 16.2775 7.8125 15.9375 C7.8125 17.2575 7.8125 18.5775 7.8125 19.9375 C10.1225 20.2675 12.4325 20.5975 14.8125 20.9375 C15.72707003 26.49907448 16.13336397 30.613165 13.8125 35.9375 C15.7925 35.4425 15.7925 35.4425 17.8125 34.9375 C15.25653516 38.06145702 12.68582971 38.96916757 8.8125 39.9375 C6.48037973 40.01272969 4.1439689 40.03075876 1.8125 39.9375 C1.8125 42.2475 1.8125 44.5575 1.8125 46.9375 C3.7925 46.9375 5.7725 46.9375 7.8125 46.9375 C7.8125 47.2675 7.8125 47.5975 7.8125 47.9375 C-6.96882118 48.3065205 -6.96882118 48.3065205 -13.1875 45.9375 C-9.71237282 44.77912427 -8.05079714 45.16484057 -4.5 45.875 C-3.00919922 46.16697266 -3.00919922 46.16697266 -1.48828125 46.46484375 C-0.34939453 46.69880859 -0.34939453 46.69880859 0.8125 46.9375 C0.4825 44.9575 0.1525 42.9775 -0.1875 40.9375 C-1.23550781 40.75574219 -1.23550781 40.75574219 -2.3046875 40.5703125 C-3.21476562 40.40273437 -4.12484375 40.23515625 -5.0625 40.0625 C-5.96742187 39.90007812 -6.87234375 39.73765625 -7.8046875 39.5703125 C-10.1875 38.9375 -10.1875 38.9375 -12.1875 36.9375 C-7.8975 37.5975 -3.6075 38.2575 0.8125 38.9375 C0.8125 36.9575 0.8125 34.9775 0.8125 32.9375 C-1.4975 32.6075 -3.8075 32.2775 -6.1875 31.9375 C-6.1875 31.6075 -6.1875 31.2775 -6.1875 30.9375 C-4.2075 30.9375 -2.2275 30.9375 -0.1875 30.9375 C-0.1875 30.2775 -0.1875 29.6175 -0.1875 28.9375 C-0.97125 28.97875 -1.755 29.02 -2.5625 29.0625 C-5.1875 28.9375 -5.1875 28.9375 -7.1875 26.9375 C-7.3125 24.3125 -7.3125 24.3125 -7.1875 21.9375 C-6.1975 21.6075 -5.2075 21.2775 -4.1875 20.9375 C-2.96880071 18.43302484 -2.96880071 18.43302484 -2.1875 15.9375 C-2.8475 15.9375 -3.5075 15.9375 -4.1875 15.9375 C-4.5175 14.6175 -4.8475 13.2975 -5.1875 11.9375 C-4.1975 11.6075 -3.2075 11.2775 -2.1875 10.9375 C-2.5175 8.9575 -2.8475 6.9775 -3.1875 4.9375 C-4.1775 4.6075 -5.1675 4.2775 -6.1875 3.9375 C-2.77921598 -0.07940617 -2.77921598 -0.07940617 0 0 Z " fill="#0D60AC" transform="translate(63.1875,63.0625)"/>
<path d="M0 0 C2.11044382 3.16566573 2.75552077 5.51197415 3.625 9.1875 C4.01558594 10.81751953 4.01558594 10.81751953 4.4140625 12.48046875 C4.60742188 13.31191406 4.80078125 14.14335937 5 15 C6.98 15 8.96 15 11 15 C9.28418916 19.63268926 7.34849752 20.37625207 3 24 C13.89 24.495 13.89 24.495 25 25 C18.62462536 28.18768732 13.01881651 29.29245069 6 29 C6 30.96822886 7.84280164 32.50528545 9 34 C4.084709 32.53869727 3.92143173 31.86905288 1 27 C0.67 33.93 0.34 40.86 0 48 C-3.31658613 43.0251208 -4.38479461 36.96431647 -4 31 C-6.22114466 31 -8.35878948 33.65336573 -10 35 C-8.50242805 30.09885545 -7.45117938 29.56094351 -3 26 C-10.26 25.67 -17.52 25.34 -25 25 C-25 24.67 -25 24.34 -25 24 C-23.69675781 23.70996094 -23.69675781 23.70996094 -22.3671875 23.4140625 C-21.21476562 23.15367188 -20.06234375 22.89328125 -18.875 22.625 C-17.73804688 22.36976562 -16.60109375 22.11453125 -15.4296875 21.8515625 C-12.21601712 21.05363523 -9.12433966 20.09209441 -6 19 C-6.66 18.01 -7.32 17.02 -8 16 C-4.28139821 17.53873177 -3.64366459 18.47511388 -1 22 C-0.67 14.74 -0.34 7.48 0 0 Z " fill="#FCBB56" transform="translate(64,6)"/>
<path d="M0 0 C0 2.83967231 -0.40267181 5.23735711 -1 8 C0.32 8.33 1.64 8.66 3 9 C2.67 10.65 2.34 12.3 2 14 C0.68 14.33 -0.64 14.66 -2 15 C-1.34 16.98 -0.68 18.96 0 21 C1.65 21.33 3.3 21.66 5 22 C5 22.66 5 23.32 5 24 C-4.69128788 24.57007576 -4.69128788 24.57007576 -9 21 C-13.60699392 16.66400573 -14.8134288 11.03173692 -16 5 C-16 3.68 -16 2.36 -16 1 C-11.6109185 1.51035831 -8.66291938 2.52214277 -5 5 C-3.35 3.35 -1.7 1.7 0 0 Z " fill="#DFE9F3" transform="translate(58,70)"/>
<path d="M0 0 C0.68126953 -0.00386719 1.36253906 -0.00773437 2.06445312 -0.01171875 C5.20483459 -0.00568536 8.14795853 0.16127739 11.24609375 0.6953125 C14.02701726 1.3517375 14.02701726 1.3517375 16.9375 0.125 C27.39350628 -0.51183891 37.6002275 0.72333593 47.9375 2.125 C47.6075 2.785 47.2775 3.445 46.9375 4.125 C43.05090619 5.42053127 39.36143142 5.27291694 35.3125 5.25 C34.50377441 5.24806641 33.69504883 5.24613281 32.86181641 5.24414062 C27.48727753 5.20517116 22.26041847 4.91358051 16.9375 4.125 C17.4428125 4.46273437 17.948125 4.80046875 18.46875 5.1484375 C19.44328125 5.81746094 19.44328125 5.81746094 20.4375 6.5 C21.41203125 7.16128906 21.41203125 7.16128906 22.40625 7.8359375 C22.9115625 8.26132813 23.416875 8.68671875 23.9375 9.125 C23.9375 9.785 23.9375 10.445 23.9375 11.125 C21.39345798 9.99431466 19.69891473 8.90575948 17.625 7 C14.21289937 4.61946468 12.00920096 4.80565091 7.9375 5.125 C7.9375 4.795 7.9375 4.465 7.9375 4.125 C6.019375 4.3725 6.019375 4.3725 4.0625 4.625 C-1.14716159 5.14296347 -6.33142321 5.27090925 -11.5625 5.3125 C-12.36413574 5.32539062 -13.16577148 5.33828125 -13.99169922 5.3515625 C-16.01670526 5.3550174 -18.04124197 5.24819651 -20.0625 5.125 C-20.7225 4.465 -21.3825 3.805 -22.0625 3.125 C-14.71412742 0.87549819 -7.70648953 -0.04399518 0 0 Z " fill="#0C5DAB" transform="translate(52.0625,115.875)"/>
<path d="M0 0 C0.66 0 1.32 0 2 0 C2 0.66 2 1.32 2 2 C2.99 1.67 3.98 1.34 5 1 C7 4 7 4 7 5 C8.32 5.66 9.64 6.32 11 7 C11 8.32 11 9.64 11 11 C5.06390313 16.86440488 -3.43414168 19.76383491 -11.625 20.1875 C-12.40875 20.125625 -13.1925 20.06375 -14 20 C-14 17.69 -14 15.38 -14 13 C-13.30132812 12.86722656 -12.60265625 12.73445313 -11.8828125 12.59765625 C-10.51769531 12.33275391 -10.51769531 12.33275391 -9.125 12.0625 C-8.22007813 11.88847656 -7.31515625 11.71445313 -6.3828125 11.53515625 C-4.00043683 11.10036299 -4.00043683 11.10036299 -2 10 C-2.33 9.34 -2.66 8.68 -3 8 C-2.44140625 6.0546875 -2.44140625 6.0546875 -1.5625 3.875 C-1.27503906 3.15054688 -0.98757812 2.42609375 -0.69140625 1.6796875 C-0.46324219 1.12539062 -0.23507813 0.57109375 0 0 Z " fill="#FCFDFE" transform="translate(79,90)"/>
<path d="M0 0 C-4.455 1.485 -4.455 1.485 -9 3 C-2.73 3.33 3.54 3.66 10 4 C8.35 5.32 6.7 6.64 5 8 C3.68834743 10.11660427 3.68834743 10.11660427 3 12 C4.98 10.35 6.96 8.7 9 7 C8.690625 8.7015625 8.690625 8.7015625 8.375 10.4375 C7.84005973 14.57779114 8.48458137 17.87108021 9.51953125 21.87890625 C10.13905597 24.61388123 10.14314713 27.20863106 10 30 C7.03 30.33 4.06 30.66 1 31 C3.50816459 28.49183541 4.90837736 27.38589981 8 26 C7.505 23.525 7.505 23.525 7 21 C5.02 21.33 3.04 21.66 1 22 C1.66 21.34 2.32 20.68 3 20 C3.99 20 4.98 20 6 20 C6 18.02 6 16.04 6 14 C5.319375 14.495 4.63875 14.99 3.9375 15.5 C0.40534991 17.30365111 -2.08636991 17.23021353 -6 17 C-4.44724539 15.44724539 -2.89434193 13.89825519 -1.3125 12.375 C0.11507929 11.19625129 0.11507929 11.19625129 0 10 C-1.258125 10 -2.51625 10 -3.8125 10 C-6.20833333 10 -8.60416667 10 -11 10 C-10.34 9.01 -9.68 8.02 -9 7 C-13.455 6.01 -13.455 6.01 -18 5 C-18 4.34 -18 3.68 -18 3 C-15.75376301 2.30030318 -13.50283586 1.61564957 -11.25 0.9375 C-9.99703125 0.55464844 -8.7440625 0.17179687 -7.453125 -0.22265625 C-4 -1 -4 -1 0 0 Z " fill="#DCE4EA" transform="translate(53,27)"/>
<path d="M0 0 C0.25394531 0.89203125 0.50789063 1.7840625 0.76953125 2.703125 C1.11371094 3.87359375 1.45789063 5.0440625 1.8125 6.25 C2.14894531 7.41015625 2.48539063 8.5703125 2.83203125 9.765625 C3.89961586 12.72201315 4.96429083 14.64347706 7 17 C4.16583553 18.41708224 2.08406692 19.32812754 -1.0390625 18.3828125 C-5.06234382 16.43897995 -7.89206487 14.22304384 -11 11 C-11.99 11 -12.98 11 -14 11 C-14.33 9.02 -14.66 7.04 -15 5 C-12.03 5 -9.06 5 -6 5 C-6 3.68 -6 2.36 -6 1 C-4 0 -4 0 0 0 Z " fill="#085DAB" transform="translate(42,73)"/>
<path d="M0 0 C3.36591866 1.44253657 5.51047079 3.33264727 8 6 C7.67 6.66 7.34 7.32 7 8 C6.01 7.34 5.02 6.68 4 6 C3.01 6.99 2.02 7.98 1 9 C1.33 9.556875 1.66 10.11375 2 10.6875 C3.1309601 13.30284522 3.15662974 15.1806646 3 18 C2.401875 17.690625 1.80375 17.38125 1.1875 17.0625 C-1.08956772 15.89790296 -1.08956772 15.89790296 -4 15 C-3.484375 15.928125 -2.96875 16.85625 -2.4375 17.8125 C-1 21 -1 21 -2 24 C-2.99 23.67 -3.98 23.34 -5 23 C-5.33 21.02 -5.66 19.04 -6 17 C-6.66 17 -7.32 17 -8 17 C-7.67 18.32 -7.34 19.64 -7 21 C-10.3125 22.625 -10.3125 22.625 -14 24 C-14.99 23.34 -15.98 22.68 -17 22 C-16.34 22 -15.68 22 -15 22 C-15 21.34 -15 20.68 -15 20 C-15.66 19.67 -16.32 19.34 -17 19 C-14.69 18.34 -12.38 17.68 -10 17 C-10 15.68 -10 14.36 -10 13 C-11.98 12.01 -13.96 11.02 -16 10 C-14.68 9.01 -13.36 8.02 -12 7 C-11.38125 7.804375 -10.7625 8.60875 -10.125 9.4375 C-8.25835959 12.03874519 -8.25835959 12.03874519 -6 13 C-5.67 12.01 -5.34 11.02 -5 10 C-5.99 9.67 -6.98 9.34 -8 9 C-8.33 7.35 -8.66 5.7 -9 4 C-8.01 3.67 -7.02 3.34 -6 3 C-4.68 4.32 -3.36 5.64 -2 7 C-0.68 6.34 0.64 5.68 2 5 C1.34 3.35 0.68 1.7 0 0 Z " fill="#256EB3" transform="translate(88,39)"/>
<path d="M0 0 C3.375 1.0625 3.375 1.0625 5.3125 2.75 C6.71317538 5.79852877 6.8592732 7.74176952 6.375 11.0625 C4.8125 13.4375 4.8125 13.4375 2.375 15.0625 C-1.59987617 15.63033945 -3.68989221 15.68590519 -7.0625 13.4375 C-9.12291771 10.30566508 -9.3017545 8.74705227 -8.625 5.0625 C-5.92665364 1.21940065 -4.75860157 0.08204485 0 0 Z " fill="#F5F8FB" transform="translate(149.625,103.9375)"/>
<path d="M0 0 C2.4375 1.5625 2.4375 1.5625 4 4 C4.56288002 7.94016013 4.60396028 10.05782196 2.4375 13.4375 C-0.96719488 15.61999672 -3.03430012 15.63734462 -7 15 C-9.96135546 12.41830549 -10.86756104 10.81118865 -11.5 6.9375 C-11 4 -11 4 -9.4375 1.625 C-6.06489221 -0.62340519 -3.97487617 -0.56783945 0 0 Z " fill="#F6F8FB" transform="translate(297,74)"/>
<path d="M0 0 C1.9375 1.125 1.9375 1.125 3 3 C3.49573337 6.89504791 3.58016848 9.09493717 1.4375 12.4375 C-1.96719488 14.61999672 -4.03430012 14.63734462 -8 14 C-10.5 11.9375 -10.5 11.9375 -12 9 C-12 5.19715329 -11.7968187 2.98069994 -9.375 0 C-5.91616747 -1.45635054 -3.58701629 -0.91305869 0 0 Z " fill="#F6F8FB" transform="translate(309,105)"/>
<path d="M0 0 C2.4375 1.5625 2.4375 1.5625 4 4 C4.56288002 7.94016013 4.60396028 10.05782196 2.4375 13.4375 C-0.96719488 15.61999672 -3.03430012 15.63734462 -7 15 C-9.5 12.9375 -9.5 12.9375 -11 10 C-10.93977486 6.50694211 -10.63658168 4.09633511 -8.875 1.0625 C-5.81547541 -0.6712306 -3.43182475 -0.42145216 0 0 Z " fill="#F7F9FC" transform="translate(261,74)"/>
<path d="M0 0 C2.4375 1.625 2.4375 1.625 4 4 C4.64850195 7.80994895 4.28071139 9.50335677 2.375 12.875 C0 15 0 15 -2.9375 15.625 C-7.09324021 14.77688975 -8.57327076 13.45625074 -11 10 C-11 6.45638757 -10.65850044 4.13408409 -8.875 1.0625 C-5.81547541 -0.6712306 -3.43182475 -0.42145216 0 0 Z " fill="#F6F8FB" transform="translate(177,44)"/>
<path d="M0 0 C4.15574021 0.84811025 5.63577076 2.16874926 8.0625 5.625 C8.0625 9.16861243 7.72100044 11.49091591 5.9375 14.5625 C2.87797541 16.2962306 0.49432475 16.04645216 -2.9375 15.625 C-5.375 14 -5.375 14 -6.9375 11.625 C-7.58600195 7.81505105 -7.21821139 6.12164323 -5.3125 2.75 C-2.9375 0.625 -2.9375 0.625 0 0 Z " fill="#F7F9FC" transform="translate(217.9375,73.375)"/>
<path d="M0 0 C0.66 0.33 1.32 0.66 2 1 C2 1.66 2 2.32 2 3 C-1.96 4.98 -1.96 4.98 -6 7 C-5.505 7.5775 -5.01 8.155 -4.5 8.75 C-3 11 -3 11 -3 15 C-3.99 15.495 -3.99 15.495 -5 16 C-5 16.99 -5 17.98 -5 19 C-5.66 19 -6.32 19 -7 19 C-8.125 15.25 -8.125 15.25 -7 13 C-8.32 14.32 -9.64 15.64 -11 17 C-13.62901288 15.47793991 -15.84365964 14.15634036 -18 12 C-17.625 9.375 -17.625 9.375 -17 7 C-17.99 7.33 -18.98 7.66 -20 8 C-19.9375 6.1875 -19.9375 6.1875 -19 4 C-15.4375 2.25 -15.4375 2.25 -12 1 C-11.67 1.66 -11.34 2.32 -11 3 C-7.5184446 3.09947301 -4.3677519 2.93548664 -1 2 C-0.67 1.34 -0.34 0.68 0 0 Z " fill="#0D5FAC" transform="translate(64,59)"/>
<path d="M0 0 C0.66 0 1.32 0 2 0 C2 1.98 2 3.96 2 6 C1.01 6.495 1.01 6.495 0 7 C0.99 7 1.98 7 3 7 C3.66 8.98 4.32 10.96 5 13 C3.76115681 13.72767003 2.50831659 14.43154815 1.25 15.125 C0.55390625 15.51945312 -0.1421875 15.91390625 -0.859375 16.3203125 C-3 17 -3 17 -5.09765625 16.234375 C-11.2959932 12.21245616 -11.2959932 12.21245616 -13.125 9.0625 C-13 7 -13 7 -11 4.3125 C-7.53461634 1.64126676 -5.29877752 1.33067519 -1 1 C-0.67 0.67 -0.34 0.34 0 0 Z " fill="#F1F5F9" transform="translate(57,41)"/>
<path d="M0 0 C1.98 0 3.96 0 6 0 C5.7098066 1.33365476 5.41774108 2.66690215 5.125 4 C4.95097656 4.81984375 4.77695313 5.6396875 4.59765625 6.484375 C4 9 4 9 3.24609375 11.203125 C2.41565669 13.49375716 2.41565669 13.49375716 2 17 C4.02041215 19.93714781 4.02041215 19.93714781 7 22 C7.763125 22.598125 8.52625 23.19625 9.3125 23.8125 C9.869375 24.204375 10.42625 24.59625 11 25 C11.99 24.34 12.98 23.68 14 23 C12.55746343 26.36591866 10.66735273 28.51047079 8 31 C7.34 30.67 6.68 30.34 6 30 C6.66 28.68 7.32 27.36 8 26 C5.35261084 24.5393715 4.10551666 24 1 24 C1.66 23.01 2.32 22.02 3 21 C1.68 20.67 0.36 20.34 -1 20 C-1 19.34 -1 18.68 -1 18 C-1.99 18 -2.98 18 -4 18 C-4.33 15.03 -4.66 12.06 -5 9 C-5.99 8.67 -6.98 8.34 -8 8 C-5.1043586 4.67537469 -3.30731763 3.69848394 1 3 C1.33 2.34 1.66 1.68 2 1 C1.34 0.67 0.68 0.34 0 0 Z " fill="#E6EDF5" transform="translate(82,72)"/>
<path d="M0 0 C0.33 0 0.66 0 1 0 C1 4.29 1 8.58 1 13 C4.3 10.36 7.6 7.72 11 5 C12 7 12 7 11.43359375 8.8046875 C9.07176539 13.71358567 7.05011679 16.52258422 2 19 C-0.97530707 19.84730512 -3.9505838 20.48498749 -7 21 C-4.29949239 4.29949239 -4.29949239 4.29949239 0 0 Z " fill="#1161AD" transform="translate(104,88)"/>
<path d="M0 0 C4.4628101 2.97520673 4.81555293 6.93851191 6 12 C6.44997312 14.67412598 6.74971449 17.29691645 7 20 C0.33379074 19.123265 -4.77216833 17.46524581 -9 12 C-10.34555862 9.06467105 -11.26707022 6.14112763 -12 3 C-10.72689688 3.93441535 -9.456612 4.87267111 -8.1875 5.8125 C-7.47980469 6.33457031 -6.77210937 6.85664062 -6.04296875 7.39453125 C-4 9 -4 9 -1 12 C-0.67 8.04 -0.34 4.08 0 0 Z " fill="#0B5EAB" transform="translate(24,89)"/>
<path d="M0 0 C0.66 0 1.32 0 2 0 C6.03794254 9.33774213 4.02679454 18.68540013 1 28 C-4.37460466 22.92398449 -8.28031577 18.55668441 -9 11 C-3.125 15.75 -3.125 15.75 -2 18 C-1.34 12.06 -0.68 6.12 0 0 Z " fill="#1563AE" transform="translate(114,42)"/>
<path d="M0 0 C7 0 7 0 9.4375 1.5625 C11.60396028 4.94217804 11.56288002 7.05983987 11 11 C9.4375 13.4375 9.4375 13.4375 7 15 C4.69 15 2.38 15 0 15 C0 10.05 0 5.1 0 0 Z " fill="#F6F9FB" transform="translate(221,44)"/>
<path d="M0 0 C3.9252025 3.70090521 6.94580156 7.54959656 10 12 C10.99 8.37 11.98 4.74 13 1 C15 3 15 3 15.22705078 4.97119141 C15.21134033 6.1494751 15.21134033 6.1494751 15.1953125 7.3515625 C15.18564453 8.62773438 15.18564453 8.62773438 15.17578125 9.9296875 C15.15902344 10.81914063 15.14226563 11.70859375 15.125 12.625 C15.11597656 13.5221875 15.10695313 14.419375 15.09765625 15.34375 C15.0740497 17.56276586 15.0411231 19.78125077 15 22 C9.01719591 19.10578579 5.61387403 16.04935199 2.6875 10 C1.91986328 8.453125 1.91986328 8.453125 1.13671875 6.875 C0 4 0 4 0 0 Z " fill="#1061AD" transform="translate(7,75)"/>
<path d="M0 0 C1.18294575 3.54883725 0.58340614 5.31910043 -0.77734375 8.73046875 C-3.48802364 13.76211417 -7.48737899 19.16245966 -13 21 C-14.37681259 14.63224179 -15.08150964 7.24452893 -13 1 C-12.34 1 -11.68 1 -11 1 C-10.34 4.63 -9.68 8.26 -9 12 C-8.071875 10.576875 -7.14375 9.15375 -6.1875 7.6875 C-4.32183601 4.82681521 -2.50719458 2.32649587 0 0 Z " fill="#0B5CAB" transform="translate(120,76)"/>
<path d="M0 0 C6.29967079 3.89097314 8.80563525 10.61127051 12 17 C6.76054677 18.39718753 -0.01793018 19.57632093 -4.98046875 16.953125 C-6.625 15.625 -6.625 15.625 -9 13 C-9 12.34 -9 11.68 -9 11 C-5.04 11.33 -1.08 11.66 3 12 C2.01 8.04 1.02 4.08 0 0 Z " fill="#0F5FAC" transform="translate(31,98)"/>
<path d="M0 0 C0.33 0.99 0.66 1.98 1 3 C2.11375 3.103125 3.2275 3.20625 4.375 3.3125 C9.43554302 3.929197 14.16622643 5.42506148 19 7 C18.67 7.99 18.34 8.98 18 10 C15.36 10.33 12.72 10.66 10 11 C10.33 11.99 10.66 12.98 11 14 C7.7 13.67 4.4 13.34 1 13 C0.67 13.99 0.34 14.98 0 16 C0 14.68 0 13.36 0 12 C3.83675965 10.30731192 6.6906014 9.7182331 11 9 C4.73 8.67 -1.54 8.34 -8 8 C-5.33333333 5.33333333 -2.66666667 2.66666667 0 0 Z " fill="#EDEFF0" transform="translate(74,23)"/>
<path d="M0 0 C1.14109582 3.42328747 0.84733551 4.06602175 -0.375 7.3125 C-1.64759778 10.86880066 -2.5176786 14.2378931 -3 18 C-0.69 18 1.62 18 4 18 C3.938125 16.4221875 3.938125 16.4221875 3.875 14.8125 C3.99147875 11.25989827 4.47208068 9.15133359 6 6 C7.09898702 9.29696105 6.87124444 10.40494903 6.0625 13.6875 C5.86785156 14.49574219 5.67320313 15.30398437 5.47265625 16.13671875 C5.31667969 16.75160156 5.16070312 17.36648437 5 18 C6.98 18 8.96 18 11 18 C11.66 15.03 12.32 12.06 13 9 C13.97608217 11.92824652 14.08226668 13.95613276 14 17 C14.66 16.67 15.32 16.34 16 16 C16 16.66 16 17.32 16 18 C16.66 18 17.32 18 18 18 C17.67 16.68 17.34 15.36 17 14 C17.66 14 18.32 14 19 14 C19 15.65 19 17.3 19 19 C18.34 19 17.68 19 17 19 C16.67 20.32 16.34 21.64 16 23 C16 21.68 16 20.36 16 19 C15.34 19 14.68 19 14 19 C14 19.66 14 20.32 14 21 C12.02 21.33 10.04 21.66 8 22 C8 23.32 8 24.64 8 26 C6.35 26.33 4.7 26.66 3 27 C3.33 24.36 3.66 21.72 4 19 C1.69 19 -0.62 19 -3 19 C-3 21.31 -3 23.62 -3 26 C-3.33 26 -3.66 26 -4 26 C-4.42324766 16.52395508 -4.63162582 8.60159081 0 0 Z " fill="#719BCA" transform="translate(28,52)"/>
<path d="M0 0 C0.33 0 0.66 0 1 0 C1.66 6.27 2.32 12.54 3 19 C4.32 17.02 5.64 15.04 7 13 C9.25 11.625 9.25 11.625 11 11 C9.66878987 17.80396289 6.12480746 22.51863821 2 28 C0 27 0 27 -1.109375 23.94921875 C-2.16776447 19.88479567 -2.29710979 15.99349407 -2.25 11.8125 C-2.25773438 11.11447266 -2.26546875 10.41644531 -2.2734375 9.69726562 C-2.25926134 5.97247937 -2.05853506 3.1613217 0 0 Z " fill="#085BAA" transform="translate(13,42)"/>
<path d="M0 0 C1.875 0.25 1.875 0.25 4 1 C5.2734375 2.80859375 5.2734375 2.80859375 6 5 C5.171875 6.89453125 5.171875 6.89453125 3.75 8.8125 C1.19981604 12.51617316 0.00086319 15.63259701 -1 20 C-2.98 20 -4.96 20 -7 20 C-6.6323696 12.05918339 -4.37514276 6.56271414 0 0 Z " fill="#FDFDFE" transform="translate(40,50)"/>
<path d="M0 0 C0.66 0.33 1.32 0.66 2 1 C1.69078116 2.45903258 1.37751201 3.91720722 1.0625 5.375 C0.88847656 6.18710938 0.71445313 6.99921875 0.53515625 7.8359375 C0 10 0 10 -1 12 C3.29 11.34 7.58 10.68 12 10 C7.25 15.875 7.25 15.875 5 17 C3.37834248 17.12148305 1.75115673 17.17543652 0.125 17.1875 C-1.17050781 17.20876953 -1.17050781 17.20876953 -2.4921875 17.23046875 C-5.1241288 16.98859252 -6.73980544 16.32983541 -9 15 C-7.68944504 12.68637791 -6.3766597 10.37407322 -5.0625 8.0625 C-4.50272461 7.0734668 -4.50272461 7.0734668 -3.93164062 6.06445312 C-1.11328125 1.11328125 -1.11328125 1.11328125 0 0 Z " fill="#085BAA" transform="translate(95,99)"/>
<path d="M0 0 C1.98 0 3.96 0 6 0 C5.96881108 8.3430364 4.24783656 13.50038591 -1 20 C-2.9375 19.1875 -2.9375 19.1875 -5 18 C-6 15 -6 15 -5.0390625 12.6953125 C-4.33910156 11.42300781 -4.33910156 11.42300781 -3.625 10.125 C-1.76202642 6.72169073 -0.59262304 3.84515878 0 0 Z " fill="#FCFDFE" transform="translate(89,72)"/>
<path d="M0 0 C2.47567895 1.10030176 4.28628551 2.24108253 6.375 4 C10.0580552 6.8061373 13.37388262 8 18 8 C17.4740625 8.928125 17.4740625 8.928125 16.9375 9.875 C16.628125 10.57625 16.31875 11.2775 16 12 C16.33 12.66 16.66 13.32 17 14 C16.21625 13.79375 15.4325 13.5875 14.625 13.375 C13.75875 13.25125 12.8925 13.1275 12 13 C11.34 13.66 10.68 14.32 10 15 C7.5859375 14.92578125 7.5859375 14.92578125 5 14 C3.1640625 11.85546875 3.1640625 11.85546875 1.625 9.1875 C1.10164063 8.31480469 0.57828125 7.44210938 0.0390625 6.54296875 C-1.09401878 3.76990141 -1.08358516 2.73445903 0 0 Z " fill="#F2F6FA" transform="translate(29,83)"/>
<path d="M0 0 C3.9672797 0.26448531 5.67929288 0.7934343 8.75 3.25 C11.07106991 6.45528701 11.30405751 9.37159743 10.75 13.25 C7.50412347 17.09380115 5.46893666 19.08783616 0.4375 19.5625 C-3.82536111 19.20124058 -5.26992054 18.23007946 -8.25 15.25 C-9.81935594 12.11128812 -9.60201103 9.71144178 -9.25 6.25 C-6.8125 3.375 -6.8125 3.375 -4.25 1.25 C-3.25 0.25 -3.25 0.25 0 0 Z M-5.75 4.3125 C-7.70640324 8.14378967 -7.38891039 10.1499226 -6.25 14.25 C-5.26951062 16.31402685 -5.26951062 16.31402685 -3.25 17.25 C0.64504791 17.74573337 2.84493717 17.83016848 6.1875 15.6875 C8.35396028 12.30782196 8.31288002 10.19016013 7.75 6.25 C6.33333333 3.66666667 6.33333333 3.66666667 3.75 2.25 C-0.52465946 1.56300116 -2.37040166 1.52433137 -5.75 4.3125 Z " fill="#155FAC" transform="translate(257.25,71.75)"/>
<path d="M0 0 C0.99 0.33 1.98 0.66 3 1 C4.6635348 4.56630705 5.7531816 8.25954481 7 12 C8.65 8.04 10.3 4.08 12 0 C15.11734604 3.11734604 16.26981121 6.96289283 18 11 C19.32 7.37 20.64 3.74 22 0 C22.66 0 23.32 0 24 0 C23.41347648 4.48993869 22.2356462 8.22543184 20.4375 12.375 C19.98246094 13.43460938 19.52742188 14.49421875 19.05859375 15.5859375 C18.70925781 16.38257812 18.35992187 17.17921875 18 18 C15.77174356 15.77174356 15.30760631 14.34238372 14.375 11.375 C14.11460937 10.55773438 13.85421875 9.74046875 13.5859375 8.8984375 C13.39257812 8.27195312 13.19921875 7.64546875 13 7 C10.77174356 9.22825644 10.30760631 10.65761628 9.375 13.625 C9.11460937 14.44226562 8.85421875 15.25953125 8.5859375 16.1015625 C8.39257812 16.72804688 8.19921875 17.35453125 8 18 C7.34 18 6.68 18 6 18 C4.02 12.06 2.04 6.12 0 0 Z " fill="#1962AE" transform="translate(138,42)"/>
<path d="M0 0 C4.05247548 1.35082516 4.14905916 3.29811832 6 7 C9.29696105 8.09898702 10.40494903 7.87124444 13.6875 7.0625 C14.49574219 6.86785156 15.30398437 6.67320313 16.13671875 6.47265625 C16.75160156 6.31667969 17.36648437 6.16070312 18 6 C15.2150718 8.98970233 13.00982704 9.99754324 9 11 C6.66787973 11.07522969 4.3314689 11.09325876 2 11 C2 13.31 2 15.62 2 18 C3.98 18 5.96 18 8 18 C8 18.33 8 18.66 8 19 C-6.78132118 19.3690205 -6.78132118 19.3690205 -13 17 C-9.52487282 15.84162427 -7.86329714 16.22734057 -4.3125 16.9375 C-2.82169922 17.22947266 -2.82169922 17.22947266 -1.30078125 17.52734375 C-0.54152344 17.68332031 0.21773437 17.83929688 1 18 C0.67 16.02 0.34 14.04 0 12 C-0.69867188 11.87882812 -1.39734375 11.75765625 -2.1171875 11.6328125 C-3.02726562 11.46523437 -3.93734375 11.29765625 -4.875 11.125 C-5.77992187 10.96257812 -6.68484375 10.80015625 -7.6171875 10.6328125 C-10 10 -10 10 -12 8 C-7.71 8.66 -3.42 9.32 1 10 C1 8.02 1 6.04 1 4 C-1.31 3.67 -3.62 3.34 -6 3 C-6 2.67 -6 2.34 -6 2 C-4.02 2 -2.04 2 0 2 C0 1.34 0 0.68 0 0 Z " fill="#789FCB" transform="translate(63,92)"/>
<path d="M0 0 C0.66 0 1.32 0 2 0 C3.17374173 2.43431639 4.33915763 4.87204182 5.5 7.3125 C5.83386719 8.00279297 6.16773438 8.69308594 6.51171875 9.40429688 C9 14.66015625 9 14.66015625 9 18 C8.34 18 7.68 18 7 18 C6.67 16.68 6.34 15.36 6 14 C2.7 14 -0.6 14 -4 14 C-4.33 15.32 -4.66 16.64 -5 18 C-5.66 18 -6.32 18 -7 18 C-5.06375702 11.79522136 -2.74390859 5.89174281 0 0 Z " fill="#125CAB" transform="translate(356,73)"/>
<path d="M0 0 C0 2.83967231 -0.40267181 5.23735711 -1 8 C0.32 8.33 1.64 8.66 3 9 C2.125 13.875 2.125 13.875 1 15 C-0.66611905 15.042721 -2.33382885 15.04063832 -4 15 C-4.66 15 -5.32 15 -6 15 C-6.99 15 -7.98 15 -9 15 C-8.773125 14.46375 -8.54625 13.9275 -8.3125 13.375 C-7.86041855 9.93918099 -9.32821985 7.94233306 -11 5 C-11.66 5 -12.32 5 -13 5 C-12.67 3.68 -12.34 2.36 -12 1 C-10.576875 1.7425 -10.576875 1.7425 -9.125 2.5 C-6.27721834 4.14424369 -6.27721834 4.14424369 -4 4 C-2.62689293 2.70766393 -1.28965176 1.37562854 0 0 Z " fill="#BCD0E6" transform="translate(58,70)"/>
<path d="M0 0 C5.07388043 4.2282337 8.79445415 8.0374559 13 13 C13.33 9.04 13.66 5.08 14 1 C14.66 1 15.32 1 16 1 C16 6.94 16 12.88 16 19 C11.25604763 15.2048381 7.90025617 11.58853667 4 7 C3.67 10.96 3.34 14.92 3 19 C2.01 19 1.02 19 0 19 C0 12.73 0 6.46 0 0 Z " fill="#2A6BB2" transform="translate(215,102)"/>
<path d="M0 0 C3.33895691 2.69723546 4.6171619 6.32175412 6.1875 10.1875 C6.46013672 10.84169922 6.73277344 11.49589844 7.01367188 12.16992188 C7.68239798 13.77721092 8.34209925 15.38824962 9 17 C8.01 17 7.02 17 6 17 C5.67 16.34 5.34 15.68 5 15 C2.87423218 14.53348793 2.87423218 14.53348793 0.4375 14.375 C-0.38878906 14.30023438 -1.21507812 14.22546875 -2.06640625 14.1484375 C-2.70449219 14.09945312 -3.34257812 14.05046875 -4 14 C-4.33 15.32 -4.66 16.64 -5 18 C-5.66 18 -6.32 18 -7 18 C-6.35534798 13.66695924 -4.81074878 10.13327935 -2.9375 6.1875 C-2.11572266 4.44533203 -2.11572266 4.44533203 -1.27734375 2.66796875 C-0.85582031 1.78753906 -0.43429688 0.90710938 0 0 Z " fill="#0F58A9" transform="translate(204,103)"/>
<path d="M0 0 C2.60402269 1.80699705 3.34521401 3.11746957 5 6 C5.15205951 10.33369601 4.43408813 12.36243305 2 15.9375 C-1.56604369 18.38915504 -3.66961561 18.66643542 -7.91015625 18.43359375 C-10.92686488 17.80769719 -12.25075932 16.47809096 -14 14 C-15.45147903 11.09704195 -15.37239025 9.22738221 -15 6 C-11.12606997 -0.25899888 -7.15066277 -2.19705478 0 0 Z M-13 6 C-13 9.54361243 -12.65850044 11.86591591 -10.875 14.9375 C-7.81547541 16.6712306 -5.43182475 16.42145216 -2 16 C0.58333333 14.58333333 0.58333333 14.58333333 2 12 C2.75 8.5 2.75 8.5 2 5 C-0.38813953 2.33893024 -2.01553885 1.22150376 -5.5 0.4375 C-9.29082295 1.29043516 -10.74689043 2.88540736 -13 6 Z " fill="#115CAB" transform="translate(310,103)"/>
<path d="M0 0 C3.6277631 1.56016534 4.89108033 3.35563187 6.87109375 6.8046875 C7.02315326 11.13838351 6.30518188 13.16712055 3.87109375 16.7421875 C0.34637364 19.16543258 -1.7590958 19.60456342 -5.96875 19.3515625 C-8.12890625 18.8046875 -8.12890625 18.8046875 -11.19140625 16.2421875 C-13.47581968 12.18919593 -14.10661439 10.3673255 -13.12890625 5.8046875 C-9.719272 1.03941554 -5.84896875 -1.29977083 0 0 Z M-11.12890625 6.8046875 C-11.80566075 10.48923977 -11.62682396 12.04785258 -9.56640625 15.1796875 C-6.19379846 17.42809269 -4.10378242 17.37252695 -0.12890625 16.8046875 C2.43448064 15.32475594 2.43448064 15.32475594 3.87109375 12.8046875 C4.6212457 9.84777041 4.6212457 9.84777041 3.87109375 6.8046875 C1.58094659 3.7947798 0.07973761 2.10684847 -3.62890625 1.1796875 C-7.33755011 2.10684847 -8.83875909 3.7947798 -11.12890625 6.8046875 Z " fill="#1F64AF" transform="translate(152.12890625,102.1953125)"/>
<path d="M0 0 C2.4291373 3.01327002 4.09184125 6.0405505 5.6875 9.5625 C6.34298828 10.98755859 6.34298828 10.98755859 7.01171875 12.44140625 C8 15 8 15 8 18 C7.34 18 6.68 18 6 18 C5.67 16.68 5.34 15.36 5 14 C1.7 14 -1.6 14 -5 14 C-5.33 15.32 -5.66 16.64 -6 18 C-6.66 17.67 -7.32 17.34 -8 17 C-6.85700498 14.35290709 -5.71075628 11.70730948 -4.5625 9.0625 C-4.23701172 8.30775391 -3.91152344 7.55300781 -3.57617188 6.77539062 C-1.11328125 1.11328125 -1.11328125 1.11328125 0 0 Z " fill="#2E6EB3" transform="translate(264,103)"/>
<path d="M0 0 C2.60526888 2.60526888 3.34134224 5.17939234 4.625 8.625 C5.29402344 10.40777344 5.29402344 10.40777344 5.9765625 12.2265625 C6.31429688 13.14179687 6.65203125 14.05703125 7 15 C7.34933594 14.4225 7.69867188 13.845 8.05859375 13.25 C8.51363281 12.5075 8.96867188 11.765 9.4375 11 C9.88996094 10.2575 10.34242187 9.515 10.80859375 8.75 C11.20175781 8.1725 11.59492188 7.595 12 7 C12.33 7 12.66 7 13 7 C13.48736475 13.70126536 12.07708804 18.06561592 9 24 C3.49578623 19.41315519 0.42297831 13.55205234 -0.24609375 6.3515625 C-0.24943566 4.23278907 -0.13641163 2.11438026 0 0 Z " fill="#0D5DAB" transform="translate(7,58)"/>
<path d="M0 0 C5.625 5.625 5.625 5.625 8 9 C11.4958109 7.8347297 12.05985542 6.87955271 14.125 3.9375 C15.06273663 2.61020612 16.01598672 1.29335877 17 0 C17.33 0 17.66 0 18 0 C18 5.94 18 11.88 18 18 C17.34 18 16.68 18 16 18 C15.67 14.37 15.34 10.74 15 7 C13.35 8.98 11.7 10.96 10 13 C6.28139821 11.46126823 5.64366459 10.52488612 3 7 C2.67 10.63 2.34 14.26 2 18 C1.34 18 0.68 18 0 18 C0 12.06 0 6.12 0 0 Z " fill="#1A60AD" transform="translate(140,73)"/>
<path d="M0 0 C3.4375 1.9375 3.4375 1.9375 6 5 C6.86150218 8.19738728 6.86150218 10.80261272 6 14 C2.95666217 17.63715985 1.12108584 18.82298645 -3.5625 19.5625 C-7.52374737 18.91429589 -9.18799374 17.81200626 -12 15 C-13.55024464 11.89951072 -13.28992015 9.42105782 -13 6 C-9.33404658 0.37887142 -6.67491925 -0.66749193 0 0 Z M-9.4375 3.625 C-11.48384007 6.73543691 -11.59807728 8.33677666 -11 12 C-9.59121904 14.9901643 -9.59121904 14.9901643 -7 17 C-3.03430012 17.63734462 -0.96719488 17.61999672 2.4375 15.4375 C4.60396028 12.05782196 4.56288002 9.94016013 4 6 C2.58333333 3.41666667 2.58333333 3.41666667 0 2 C-3.97487617 1.43216055 -6.06489221 1.37659481 -9.4375 3.625 Z " fill="#0C5AAA" transform="translate(297,72)"/>
<path d="M0 0 C0.33 0 0.66 0 1 0 C1.487387 7.79819203 0.46622934 13.61774262 -4.1875 20 C-4.785625 20.66 -5.38375 21.32 -6 22 C-6.99 21.67 -7.98 21.34 -9 21 C-11.45790037 15.72006588 -12.36134972 11.78159553 -12 6 C-8.7457985 8.83430453 -7.4793247 10.68607774 -7 15 C-6.34 15 -5.68 15 -5 15 C-4.80664062 14.41992188 -4.61328125 13.83984375 -4.4140625 13.2421875 C-2.94270833 8.828125 -1.47135417 4.4140625 0 0 Z " fill="#1161AD" transform="translate(120,59)"/>
<path d="M0 0 C6.18072471 8.24096628 6.4131382 14.96227194 6 25 C1.97171484 23.67811023 -0.1286906 22.13767026 -2.8125 18.875 C-3.41707031 18.15054688 -4.02164063 17.42609375 -4.64453125 16.6796875 C-5.09183594 16.12539063 -5.53914063 15.57109375 -6 15 C-5.67 14.34 -5.34 13.68 -5 13 C-2.03 14.98 -2.03 14.98 1 17 C0.67 11.39 0.34 5.78 0 0 Z " fill="#1462AE" transform="translate(106,30)"/>
<path d="M0 0 C0.71478516 -0.01224609 1.42957031 -0.02449219 2.16601562 -0.03710938 C4.00802524 -0.0423177 5.84958123 0.06469456 7.6875 0.1875 C8.3475 0.8475 9.0075 1.5075 9.6875 2.1875 C2.46059032 4.56812907 -4.37179285 5.48789245 -11.9375 5.5 C-12.73140137 5.50515625 -13.52530273 5.5103125 -14.34326172 5.515625 C-20.05351537 5.44648463 -20.05351537 5.44648463 -22.3125 3.1875 C-14.8895459 0.91516711 -7.75129674 0.00718378 0 0 Z " fill="#0A5CAB" transform="translate(52.3125,115.8125)"/>
<path d="M0 0 C2.875 2.4375 2.875 2.4375 5 5 C5.33 5.33 5.66 5.66 6 6 C5.984375 7.9609375 5.984375 7.9609375 5.75 10.375 C5.68296875 11.16648437 5.6159375 11.95796875 5.546875 12.7734375 C4.89117706 15.44306481 4.20448873 16.3790524 2 18 C-0.9919179 18.9356747 -3.87393122 19.19743592 -7 19 C-9.92143417 17.23496686 -11.47923817 16.04152365 -13 13 C-13.39447548 8.81855989 -13.45035186 6.69053952 -11.125 3.125 C-7.55800211 -0.44199789 -4.99020234 -0.5074782 0 0 Z M-9.375 4.125 C-11.28071139 7.49664323 -11.64850195 9.19005105 -11 13 C-9.56338689 15.52006844 -9.56338689 15.52006844 -7 17 C-3.5 17.75 -3.5 17.75 0 17 C2.67838573 15.06873898 2.67838573 15.06873898 4 12 C4 8.1862249 3.84985071 5.97575452 1.3125 3.0625 C-2.97732425 1.09149967 -5.78222132 0.91040855 -9.375 4.125 Z " fill="#0C59AA" transform="translate(222,72)"/>
<path d="M0 0 C3.22083055 1.87393777 5.495267 3.21180307 6.546875 6.9375 C6.83141492 11.11075212 6.30409988 12.63352066 3.5625 15.9375 C2.2940625 16.9584375 2.2940625 16.9584375 1 18 C0.67 18.33 0.34 18.66 0 19 C-3.25 19.375 -3.25 19.375 -7 19 C-10.60521591 16.02177816 -12.79128467 13.87843794 -13.3125 9.1875 C-12.92835642 5.2692355 -11.70743683 3.78706733 -9 1 C-5.85088521 -0.57455739 -3.47991184 -0.34799118 0 0 Z M-9.5 4.0625 C-11.46601181 7.91260646 -11.21718491 9.89200092 -10 14 C-7.75662843 16.57572291 -6.36710755 16.93881541 -3 17.5 C0.14616053 17.25067606 0.14616053 17.25067606 2.375 14.875 C4.28071139 11.50335677 4.64850195 9.80994895 4 6 C2.56338689 3.47993156 2.56338689 3.47993156 0 2 C-4.27465946 1.31300116 -6.12040166 1.27433137 -9.5 4.0625 Z " fill="#2568B1" transform="translate(177,42)"/>
<path d="M0 0 C1.66666667 0.66666667 3.33333333 1.33333333 5 2 C6.299375 2.2475 6.299375 2.2475 7.625 2.5 C11.15584152 4.73000517 11.47640161 7.67666682 12.51953125 11.58984375 C13 14 13 14 13 17 C10.69 17 8.38 17 6 17 C5.81824219 16.35933594 5.63648437 15.71867187 5.44921875 15.05859375 C3.93729955 9.85604103 2.24999329 4.92855673 0 0 Z " fill="#F8FAFC" transform="translate(83,53)"/>
<path d="M0 0 C4.89672424 2.17632189 8.98947371 4.88229672 11 10 C9 10 7 10 5 10 C2.40952023 10.75285597 2.40952023 10.75285597 0 12 C-0.33 12.99 -0.66 13.98 -1 15 C-0.34 15 0.32 15 1 15 C1 15.99 1 16.98 1 18 C-0.66666667 18 -2.33333333 18 -4 18 C-3.91245449 16.24908981 -3.80426627 14.49920449 -3.6875 12.75 C-3.62949219 11.77546875 -3.57148437 10.8009375 -3.51171875 9.796875 C-2.94728533 6.71188011 -1.92077685 5.40998275 0 3 C0 2.01 0 1.02 0 0 Z " fill="#E5EDF5" transform="translate(45,52)"/>
<path d="M0 0 C4.33333333 4.33333333 8.66666667 8.66666667 13 13 C13.33 9.04 13.66 5.08 14 1 C14.66 1 15.32 1 16 1 C16 6.94 16 12.88 16 19 C11.10400219 14.98528179 7.01471821 10.89599781 3 6 C2.67 10.29 2.34 14.58 2 19 C1.34 19 0.68 19 0 19 C0 12.73 0 6.46 0 0 Z " fill="#115AAA" transform="translate(318,102)"/>
<path d="M0 0 C1.18224668 3.54674003 0.89329634 5.97522995 0.5625 9.6875 C0.46066406 10.86699219 0.35882812 12.04648437 0.25390625 13.26171875 C0.17011719 14.16535156 0.08632813 15.06898437 0 16 C3.96 13.525 3.96 13.525 8 11 C6.92537365 15.29850539 5.2709554 18.08644116 2 21 C0.02438155 22.04734508 -1.97328342 23.05532021 -4 24 C-4.41732107 15.20148083 -4.71248522 7.76297789 0 0 Z " fill="#095BAA" transform="translate(21,31)"/>
<path d="M0 0 C10.30769231 0 10.30769231 0 14 3 C15.6122045 6.224409 15.44109573 9.5046505 15 13 C13.6875 16 13.6875 16 11 18 C7.23166653 18.41749882 3.81315669 18.22697361 0 18 C0 12.06 0 6.12 0 0 Z M2 2 C2 6.95 2 11.9 2 17 C8.50035912 17.62961047 8.50035912 17.62961047 11.4375 15.4375 C13.60396028 12.05782196 13.56288002 9.94016013 13 6 C11.58333333 3.41666667 11.58333333 3.41666667 9 2 C6.69 2 4.38 2 2 2 Z " fill="#0857A8" transform="translate(219,42)"/>
<path d="M0 0 C9 0 9 0 11.5625 1.5 C12.036875 1.995 12.51125 2.49 13 3 C12.74438677 5.3431213 12.40729228 7.67843403 12 10 C11.01 10.495 11.01 10.495 10 11 C11.39759905 14.54518884 11.39759905 14.54518884 13 18 C12.01 18 11.02 18 10 18 C5 12.65116279 5 12.65116279 5 10 C6.65 9.34 8.3 8.68 10 8 C9.67 6.35 9.34 4.7 9 3 C6.69 2.67 4.38 2.34 2 2 C2 7.61 2 13.22 2 19 C1.34 19 0.68 19 0 19 C0 12.73 0 6.46 0 0 Z " fill="#2164AE" transform="translate(187,42)"/>
<path d="M0 0 C0.66 0.33 1.32 0.66 2 1 C2 1.66 2 2.32 2 3 C0.1128125 2.9071875 0.1128125 2.9071875 -1.8125 2.8125 C-4.33113951 2.83478885 -5.72995606 2.86497803 -8 4 C-9.68477849 7.36955699 -9.29650704 10.2640113 -9 14 C-5.99382731 17.00617269 -3.17618402 16.59585316 1 17 C1 14.69 1 12.38 1 10 C1.66 10 2.32 10 3 10 C3.09765625 16.15234375 3.09765625 16.15234375 3 18 C1.35034831 19.64965169 -0.5476355 19.24949498 -2.8125 19.3125 C-6.13110996 19.26035041 -7.66190477 19.1979094 -10.5625 17.5 C-12.55407355 14.03639383 -13.47728999 11.01077558 -13 7 C-9.82811014 1.19319376 -6.37171579 -0.26548816 0 0 Z " fill="#266AB2" transform="translate(191,102)"/>
<path d="M0 0 C3.96 0 7.92 0 12 0 C12 0.66 12 1.32 12 2 C8.7 2 5.4 2 2 2 C2 3.98 2 5.96 2 8 C4.97 8 7.94 8 11 8 C11 8.66 11 9.32 11 10 C8.03 10 5.06 10 2 10 C2 12.31 2 14.62 2 17 C5.3 17 8.6 17 12 17 C12 17.66 12 18.32 12 19 C8.04 19 4.08 19 0 19 C0 12.73 0 6.46 0 0 Z " fill="#165FAC" transform="translate(163,72)"/>
<path d="M0 0 C3.96 0 7.92 0 12 0 C12 0.66 12 1.32 12 2 C8.7 2 5.4 2 2 2 C2 3.98 2 5.96 2 8 C4.97 8 7.94 8 11 8 C11 8.66 11 9.32 11 10 C8.03 10 5.06 10 2 10 C2 12.31 2 14.62 2 17 C5.3 17 8.6 17 12 17 C12 17.66 12 18.32 12 19 C8.04 19 4.08 19 0 19 C0 12.73 0 6.46 0 0 Z " fill="#1761AD" transform="translate(194,72)"/>
<path d="M0 0 C0.8353125 1.2065625 0.8353125 1.2065625 1.6875 2.4375 C4.21864487 5.24228216 5.32579134 5.69381595 9 6 C8.67 6.66 8.34 7.32 8 8 C8.495 8.969375 8.99 9.93875 9.5 10.9375 C11 14 11 14 10 17 C9.01 16.67 8.02 16.34 7 16 C6.67 14.02 6.34 12.04 6 10 C5.34 10 4.68 10 4 10 C4.33 11.32 4.66 12.64 5 14 C1.6875 15.625 1.6875 15.625 -2 17 C-2.99 16.34 -3.98 15.68 -5 15 C-4.34 15 -3.68 15 -3 15 C-3 14.34 -3 13.68 -3 13 C-3.66 12.67 -4.32 12.34 -5 12 C-2.69 11.34 -0.38 10.68 2 10 C2 8.68 2 7.36 2 6 C0.02 5.01 -1.96 4.02 -4 3 C-2.68 2.01 -1.36 1.02 0 0 Z " fill="#4882BD" transform="translate(76,46)"/>
<path d="M0 0 C0.33 0.99 0.66 1.98 1 3 C-0.2375 2.9175 -1.475 2.835 -2.75 2.75 C-5.82119775 2.76636517 -6.85654719 2.91252877 -9.5625 4.5625 C-11.32334363 7.04936338 -11.32334363 7.04936338 -10.875 10.625 C-10.29259286 14.04542055 -10.29259286 14.04542055 -8 16 C-5.34462628 16.56520003 -2.70855287 16.73788198 0 17 C0 14.36 0 11.72 0 9 C0.66 9 1.32 9 2 9 C2 11.97 2 14.94 2 18 C-1.20173254 19.60086627 -4.52577059 19.49917089 -8 19 C-10.8100346 17.20636089 -12.50940468 15.98119065 -14 13 C-14.39447548 8.81855989 -14.45035186 6.69053952 -12.125 3.125 C-8.23343341 -0.76656659 -5.28274966 -0.08520564 0 0 Z " fill="#2C6CB3" transform="translate(320,72)"/>
<path d="M0 0 C8 0 8 0 11 2 C11.66 2.66 12.32 3.32 13 4 C12.38461538 9.53846154 12.38461538 9.53846154 10.4375 11.875 C9.7259375 12.431875 9.7259375 12.431875 9 13 C10.32 14.65 11.64 16.3 13 18 C12.01 18 11.02 18 10 18 C8.61328125 16.46875 8.61328125 16.46875 7.3125 14.5 C6.65701172 13.52546875 6.65701172 13.52546875 5.98828125 12.53125 C5.49908203 11.77328125 5.49908203 11.77328125 5 11 C6.2375 10.38125 6.2375 10.38125 7.5 9.75 C8.325 9.1725 9.15 8.595 10 8 C10 6.68 10 5.36 10 4 C7.36 3.34 4.72 2.68 2 2 C2 7.61 2 13.22 2 19 C1.34 19 0.68 19 0 19 C0 12.73 0 6.46 0 0 Z " fill="#135DAB" transform="translate(232,72)"/>
<path d="M0 0 C1.588125 -0.061875 3.17625 -0.12375 4.8125 -0.1875 C6.15248047 -0.23970703 6.15248047 -0.23970703 7.51953125 -0.29296875 C10 0 10 0 11.796875 1.359375 C13 3 13 3 13.4375 5.4375 C12.87447493 8.73521824 11.51068992 9.88160538 9 12 C10.65 13.98 12.3 15.96 14 18 C11.62051228 17.82374165 10.29774151 17.30280227 8.62109375 15.59765625 C7.37884514 14.09350908 6.18623944 12.54870149 5 11 C6.65 9.68 8.3 8.36 10 7 C9.67 5.68 9.34 4.36 9 3 C6.69 2.34 4.38 1.68 2 1 C2 6.61 2 12.22 2 18 C1.34 18 0.68 18 0 18 C0 12.06 0 6.12 0 0 Z " fill="#0F5BAA" transform="translate(162,103)"/>
<path d="M0 0 C2.05078125 0.03255208 4.1015625 0.06510417 6.15234375 0.09765625 C6.48234375 0.75765625 6.81234375 1.41765625 7.15234375 2.09765625 C3.82383628 5.69244432 0.16263044 8.32130393 -3.84765625 11.09765625 C-5.16765625 10.43765625 -6.48765625 9.77765625 -7.84765625 9.09765625 C-7.84765625 6.09765625 -7.84765625 6.09765625 -5.41015625 3.47265625 C-4.56453125 2.68890625 -3.71890625 1.90515625 -2.84765625 1.09765625 C-1.84765625 0.09765625 -1.84765625 0.09765625 0 0 Z " fill="#FDFDFE" transform="translate(46.84765625,35.90234375)"/>
<path d="M0 0 C1.8125 0.9375 1.8125 0.9375 2.8125 3.9375 C2.85204234 6.27049825 2.85651732 8.60458189 2.8125 10.9375 C2.1525 10.9375 1.4925 10.9375 0.8125 10.9375 C0.1525 12.2575 -0.5075 13.5775 -1.1875 14.9375 C-2.5075 14.6075 -3.8275 14.2775 -5.1875 13.9375 C-4.8575 12.9475 -4.5275 11.9575 -4.1875 10.9375 C-3.5275 10.9375 -2.8675 10.9375 -2.1875 10.9375 C-2.5175 8.9575 -2.8475 6.9775 -3.1875 4.9375 C-4.1775 4.6075 -5.1675 4.2775 -6.1875 3.9375 C-2.77921598 -0.07940617 -2.77921598 -0.07940617 0 0 Z " fill="#EEF3F8" transform="translate(63.1875,63.0625)"/>
<path d="M0 0 C4.99911924 0.47610659 7.97832683 2.03162219 12 5 C11.1875 6.9375 11.1875 6.9375 10 9 C7 10 7 10 4.95703125 9.22265625 C4.24933594 8.83980469 3.54164062 8.45695312 2.8125 8.0625 C2.09707031 7.68222656 1.38164063 7.30195312 0.64453125 6.91015625 C0.10183594 6.60980469 -0.44085938 6.30945312 -1 6 C-0.67 4.02 -0.34 2.04 0 0 Z " fill="#FBFCFD" transform="translate(68,48)"/>
<path d="M0 0 C6 0 6 0 9 2 C8.875 4.3125 8.875 4.3125 8 7 C7.01 7.45375 6.02 7.9075 5 8.375 C4.01 8.91125 3.02 9.4475 2 10 C1.02126462 13.59385054 1.02126462 13.59385054 1 17 C0.67 17 0.34 17 0 17 C0 11.39 0 5.78 0 0 Z " fill="#EFF4F9" transform="translate(234,74)"/>
<path d="M0 0 C6 0 6 0 7.9375 1.25 C9 3 9 3 8.8125 5.0625 C8 7 8 7 6 9 C3.375 9.125 3.375 9.125 1 9 C1 11.64 1 14.28 1 17 C0.67 17 0.34 17 0 17 C0 11.39 0 5.78 0 0 Z " fill="#E6EDF5" transform="translate(164,104)"/>
<path d="M0 0 C0.33 0.66 0.66 1.32 1 2 C0.06027344 2.18175781 0.06027344 2.18175781 -0.8984375 2.3671875 C-1.71570313 2.53476563 -2.53296875 2.70234375 -3.375 2.875 C-4.18710937 3.03742188 -4.99921875 3.19984375 -5.8359375 3.3671875 C-8.18673923 3.86658932 -8.18673923 3.86658932 -10 6 C-10.54265886 10.61559472 -10.54265886 10.61559472 -8.7734375 14.7109375 C-6.47695154 16.38018941 -5.12026158 16.30957659 -2.3125 16.1875 C-1.50425781 16.16042969 -0.69601562 16.13335937 0.13671875 16.10546875 C1.05904297 16.05326172 1.05904297 16.05326172 2 16 C2 16.66 2 17.32 2 18 C-1.63782632 19.21260877 -4.17735999 19.39544552 -8 19 C-11.07858499 16.96944394 -12.645391 15.4855968 -13.515625 11.83984375 C-13.84949668 7.29463616 -13.43292832 5.51740214 -10.4375 1.9375 C-6.57653841 -0.23867835 -4.35950104 -0.4359501 0 0 Z " fill="#1A62AE" transform="translate(346,72)"/>
<path d="M0 0 C0.66 1.98 1.32 3.96 2 6 C0.76115681 6.72767003 -0.49168341 7.43154815 -1.75 8.125 C-2.44609375 8.51945312 -3.1421875 8.91390625 -3.859375 9.3203125 C-6 10 -6 10 -8.140625 9.3046875 C-10 8 -10 8 -12 5 C-4.74193548 0 -4.74193548 0 0 0 Z " fill="#FDFDFE" transform="translate(60,48)"/>
<path d="M0 0 C2.31 0 4.62 0 7 0 C7.66 0.66 8.32 1.32 9 2 C8.625 4.625 8.625 4.625 8 7 C6.02 7.66 4.04 8.32 2 9 C1.67 11.31 1.34 13.62 1 16 C0.67 16 0.34 16 0 16 C0 10.72 0 5.44 0 0 Z " fill="#E8EEF6" transform="translate(189,44)"/>
<path d="M0 0 C3.63 0 7.26 0 11 0 C9.47489648 3.81275879 7.99242873 6.86017055 5.875 10.3125 C5.33617187 11.19550781 4.79734375 12.07851562 4.2421875 12.98828125 C3.83226562 13.65214844 3.42234375 14.31601563 3 15 C5.97 15.33 8.94 15.66 12 16 C12 16.66 12 17.32 12 18 C7.71 18 3.42 18 -1 18 C0.64151513 13.89621218 2.38460291 10.46298399 4.625 6.6875 C5.25664062 5.61886719 5.88828125 4.55023438 6.5390625 3.44921875 C7.02117187 2.64097656 7.50328125 1.83273438 8 1 C5.36 1 2.72 1 0 1 C0 0.67 0 0.34 0 0 Z " fill="#135AAA" transform="translate(243,103)"/>
<path d="M0 0 C0.66 0 1.32 0 2 0 C2 1.32 2 2.64 2 4 C2.66 4 3.32 4 4 4 C4.33 3.34 4.66 2.68 5 2 C5.70226141 3.24176695 6.38629109 4.49385599 7.0625 5.75 C7.44535156 6.44609375 7.82820313 7.1421875 8.22265625 7.859375 C9.1312406 10.36140628 8.88336837 11.5332355 8 14 C6.35 14.33 4.7 14.66 3 15 C2.49363393 13.25183142 1.99515381 11.50137737 1.5 9.75 C1.2215625 8.77546875 0.943125 7.8009375 0.65625 6.796875 C0 4 0 4 0 0 Z " fill="#F4F7FB" transform="translate(42,71)"/>
<path d="M0 0 C0.66 0.33 1.32 0.66 2 1 C2.80045663 3.69058598 3.4954659 6.33218727 4.125 9.0625 C4.30675781 9.82111328 4.48851563 10.57972656 4.67578125 11.36132812 C5.12456584 13.23913735 5.56323336 15.11935915 6 17 C8.62113708 17 10.50935112 16.68707555 13 16 C12.67 17.65 12.34 19.3 12 21 C11.67 20.34 11.34 19.68 11 19 C9.02 19.33 7.04 19.66 5 20 C2.97944157 15.60748167 1.59104765 11.84659077 1 7 C-0.32 8.32 -1.64 9.64 -3 11 C-2.25 3.375 -2.25 3.375 0 0 Z " fill="#C6D3DF" transform="translate(64,2)"/>
<path d="M0 0 C4.62 0 9.24 0 14 0 C14 0.66 14 1.32 14 2 C12.02 2 10.04 2 8 2 C8 7.61 8 13.22 8 19 C7.34 19 6.68 19 6 19 C6 13.39 6 7.78 6 2 C4.02 2 2.04 2 0 2 C0 1.34 0 0.68 0 0 Z " fill="#1C5EAC" transform="translate(177,72)"/>
<path d="M0 0 C3.77123823 3.77123823 4.13952474 9.53227378 4.375 14.6875 C4.24197137 21.2775338 2.78655944 29.80110957 -1.63671875 34.87890625 C-2.08660156 35.24886719 -2.53648438 35.61882812 -3 36 C-2.54625 34.7625 -2.0925 33.525 -1.625 32.25 C0.2725842 26.61120713 1.15507005 20.87474822 2 15 C0.02 15 -1.96 15 -4 15 C-4 14.67 -4 14.34 -4 14 C-2.02 14 -0.04 14 2 14 C1.34 9.38 0.68 4.76 0 0 Z " fill="#84A9D1" transform="translate(101,56)"/>
<path d="M0 0 C-0.33 0.598125 -0.66 1.19625 -1 1.8125 C-2.20787988 4.05386471 -2.20787988 4.05386471 -2 7 C1.89459074 7.21081851 1.89459074 7.21081851 5 6 C3.125 11.75 3.125 11.75 2 14 C-0.69725519 12.11192137 -2.13216429 10.80175356 -4 8 C-4.598125 8.309375 -5.19625 8.61875 -5.8125 8.9375 C-8 10 -8 10 -11 11 C-9.60249952 7.84164893 -7.94801766 5.67727175 -5.5 3.25 C-4.8915625 2.63640625 -4.283125 2.0228125 -3.65625 1.390625 C-2 0 -2 0 0 0 Z " fill="#9DBBDB" transform="translate(42,38)"/>
<path d="M0 0 C1.86147549 3.72295098 -0.79795425 8.24961727 -2 12 C1.63 11.01 5.26 10.02 9 9 C9 9.99 9 10.98 9 12 C1.575 13.485 1.575 13.485 -6 15 C-3.94921875 4.16015625 -3.94921875 4.16015625 -3 1 C-2.01 0.67 -1.02 0.34 0 0 Z " fill="#D1DEED" transform="translate(99,97)"/>
<path d="M0 0 C4.97333608 -0.29254918 8.0436971 -0.16504232 12 3 C14.31747481 6.20032236 14.48440174 9.12478608 14 13 C12 15.375 12 15.375 10 17 C9.34 16.34 8.68 15.68 8 15 C8.66 14.34 9.32 13.68 10 13 C10.4771467 8.40680071 10.4771467 8.40680071 8.9375 4.1875 C6.12453812 2.46342659 3.18505255 1.7812393 0 1 C0 0.67 0 0.34 0 0 Z " fill="#2269B1" transform="translate(254,72)"/>
<path d="M0 0 C1.32 0 2.64 0 4 0 C4 0.66 4 1.32 4 2 C3.29875 2.515625 2.5975 3.03125 1.875 3.5625 C-1.480581 6.40744911 -3.44782687 9.46817695 -5.765625 13.171875 C-6.17296875 13.77515625 -6.5803125 14.3784375 -7 15 C-7.33 15 -7.66 15 -8 15 C-8.04898438 14.14535156 -8.09796875 13.29070312 -8.1484375 12.41015625 C-8.22320312 11.30542969 -8.29796875 10.20070313 -8.375 9.0625 C-8.44460937 7.96035156 -8.51421875 6.85820313 -8.5859375 5.72265625 C-8.72257812 4.82417969 -8.85921875 3.92570312 -9 3 C-9.66 2.67 -10.32 2.34 -11 2 C-10.01 1.67 -9.02 1.34 -8 1 C-7.34 2.65 -6.68 4.3 -6 6 C-2.79329326 5.30480486 -2.79329326 5.30480486 -1.5625 2.4375 C-1.046875 1.633125 -0.53125 0.82875 0 0 Z " fill="#D4E0EE" transform="translate(118,74)"/>
<path d="M0 0 C0.66 0 1.32 0 2 0 C2 5.61 2 11.22 2 17 C5.3 17 8.6 17 12 17 C12 17.66 12 18.32 12 19 C8.04 19 4.08 19 0 19 C0 12.73 0 6.46 0 0 Z " fill="#1963AE" transform="translate(271,72)"/>
<path d="M0 0 C0.66 0 1.32 0 2 0 C2 5.61 2 11.22 2 17 C5.3 17 8.6 17 12 17 C12 17.66 12 18.32 12 19 C8.04 19 4.08 19 0 19 C0 12.73 0 6.46 0 0 Z " fill="#2064AE" transform="translate(368,72)"/>
<path d="M0 0 C7.59 0 15.18 0 23 0 C16.93066105 3.03466948 10.80852492 4.78559903 4 4 C2.68 2.68 1.36 1.36 0 0 Z " fill="#FAAA1C" transform="translate(66,31)"/>
<path d="M0 0 C0.061875 0.556875 0.12375 1.11375 0.1875 1.6875 C1.81299275 6.31390245 6.0921679 9.25004408 10 12 C10.99 11.34 11.98 10.68 13 10 C11.55746343 13.36591866 9.66735273 15.51047079 7 18 C6.34 17.67 5.68 17.34 5 17 C5.66 15.68 6.32 14.36 7 13 C4.35261084 11.5393715 3.10551666 11 0 11 C0.66 10.01 1.32 9.02 2 8 C0.68 7.67 -0.64 7.34 -2 7 C-2 6.34 -2 5.68 -2 5 C-2.66 4.67 -3.32 4.34 -4 4 C-3.34 4 -2.68 4 -2 4 C-1.34 2.68 -0.68 1.36 0 0 Z " fill="#87AAD1" transform="translate(83,85)"/>
<path d="M0 0 C2.31 0 4.62 0 7 0 C7 2.31 7 4.62 7 7 C5.35 7 3.7 7 2 7 C1.67 8.32 1.34 9.64 1 11 C-0.17571451 7.32589215 -0.07366746 3.83070817 0 0 Z " fill="#F1F4F9" transform="translate(25,71)"/>
<path d="M0 0 C0.33 0 0.66 0 1 0 C1 6.93 1 13.86 1 21 C-2.13639275 16.29541087 -3.81110743 9.67775204 -3 4 C-1.5625 1.6875 -1.5625 1.6875 0 0 Z " fill="#FAA713" transform="translate(63,33)"/>
<path d="M0 0 C3.1875 -0.3125 3.1875 -0.3125 7 0 C9.875 2.4375 9.875 2.4375 12 5 C12.33 5.33 12.66 5.66 13 6 C13.03055066 9.06728639 12.71990667 12.01829701 12 15 C9.9375 17.0625 9.9375 17.0625 8 18 C8 15 8 15 10 12 C10.40302902 8.48188593 10.40302902 8.48188593 9 5 C6.16352157 3.16588613 3.20302029 2.04179044 0 1 C0 0.67 0 0.34 0 0 Z " fill="#2669B1" transform="translate(215,72)"/>
<path d="M0 0 C3.18446935 5.91401451 4.34333902 12.3048892 4 19 C1.03 19.33 -1.94 19.66 -5 20 C-2.49183541 17.49183541 -1.09162264 16.38589981 2 15 C1.67 13.35 1.34 11.7 1 10 C-0.98 10.33 -2.96 10.66 -5 11 C-4.34 10.34 -3.68 9.68 -3 9 C-2.01 9 -1.02 9 0 9 C0 7.02 0 5.04 0 3 C-0.66 2.67 -1.32 2.34 -2 2 C-1.34 2 -0.68 2 0 2 C0 1.34 0 0.68 0 0 Z " fill="#AAC0D4" transform="translate(59,38)"/>
<path d="M0 0 C2.64 0.66 5.28 1.32 8 2 C8 3.65 8 5.3 8 7 C5.69 7.33 3.38 7.66 1 8 C0.67 7.34 0.34 6.68 0 6 C-1.98 6.99 -1.98 6.99 -4 8 C-4 7.34 -4 6.68 -4 6 C-3.34 6 -2.68 6 -2 6 C-2 5.34 -2 4.68 -2 4 C-1.34 4 -0.68 4 0 4 C0 2.68 0 1.36 0 0 Z " fill="#D3DFEE" transform="translate(65,54)"/>
<path d="M0 0 C0.33 0 0.66 0 1 0 C1.13277344 0.97582031 1.26554688 1.95164063 1.40234375 2.95703125 C1.57894531 4.22933594 1.75554688 5.50164063 1.9375 6.8125 C2.11152344 8.07707031 2.28554687 9.34164062 2.46484375 10.64453125 C2.90392455 13.98321703 2.90392455 13.98321703 4 17 C4.99 15.68 5.98 14.36 7 13 C7.66 13.33 8.32 13.66 9 14 C7.02 18.455 7.02 18.455 5 23 C1.18020515 18.63452017 -1.03352336 13.82713639 -0.96484375 8.03515625 C-0.71854194 5.33971254 -0.40819037 2.67536818 0 0 Z " fill="#D5E1EE" transform="translate(10,52)"/>
<path d="M0 0 C2.4291373 3.01327002 4.09184125 6.0405505 5.6875 9.5625 C6.34298828 10.98755859 6.34298828 10.98755859 7.01171875 12.44140625 C8 15 8 15 8 18 C7.34 18 6.68 18 6 18 C5.67 16.68 5.34 15.36 5 14 C1.7 14 -1.6 14 -5 14 C-5 13.67 -5 13.34 -5 13 C-2.03 13 0.94 13 4 13 C3.01 10.03 2.02 7.06 1 4 C0.34 4 -0.32 4 -1 4 C-0.67 2.68 -0.34 1.36 0 0 Z " fill="#0E57A9" transform="translate(264,103)"/>
<path d="M0 0 C0.66 0 1.32 0 2 0 C2 0.66 2 1.32 2 2 C2.99 1.67 3.98 1.34 5 1 C5.66 1.99 6.32 2.98 7 4 C5.10595266 7.34243648 4.05908409 7.97997149 0.3125 9.25 C-1.3271875 9.62125 -1.3271875 9.62125 -3 10 C-2.01 6.7 -1.02 3.4 0 0 Z " fill="#EBF1F7" transform="translate(79,90)"/>
<path d="M0 0 C-2.46735884 2.46735884 -4.72171521 2.9072384 -8 4 C-10.29926298 5.87046826 -10.29926298 5.87046826 -10.25 8.875 C-10.01152253 11.85596832 -9.54507335 13.4892558 -8 16 C-9.9375 15.625 -9.9375 15.625 -12 15 C-13.55024464 11.89951072 -13.28992015 9.42105782 -13 6 C-9.18395402 0.14872949 -6.78763028 -0.12569686 0 0 Z " fill="#1B63AE" transform="translate(297,72)"/>
<path d="M0 0 C-0.556875 0.226875 -1.11375 0.45375 -1.6875 0.6875 C-4.80152749 2.45492101 -6.79351756 4.16309401 -9 7 C-9 10.7455316 -8.81498619 12.98941713 -6.4375 15.9375 C-5.7259375 16.4634375 -5.7259375 16.4634375 -5 17 C-5.66 17.33 -6.32 17.66 -7 18 C-11.85542169 13.30120482 -11.85542169 13.30120482 -12.3125 9.1875 C-11.92835642 5.2692355 -10.70743683 3.78706733 -8 1 C-5.29120665 -0.35439668 -2.99066732 -0.06501451 0 0 Z " fill="#1A60AD" transform="translate(176,42)"/>
<path d="M0 0 C2.97 0.495 2.97 0.495 6 1 C5.67 1.99 5.34 2.98 5 4 C2.36 4.33 -0.28 4.66 -3 5 C-2.67 5.99 -2.34 6.98 -2 8 C-5.3 7.67 -8.6 7.34 -12 7 C-12.33 7.99 -12.66 8.98 -13 10 C-13 8.68 -13 7.36 -13 6 C-9.33552568 4.35199144 -6.18796534 3.66419027 -2.1875 3.375 C-1.21167969 3.30023438 -0.23585938 3.22546875 0.76953125 3.1484375 C1.50558594 3.09945312 2.24164063 3.05046875 3 3 C3 2.34 3 1.68 3 1 C2.01 0.67 1.02 0.34 0 0 Z " fill="#ACC1D3" transform="translate(87,29)"/>
<path d="M0 0 C1.32 1.32 2.64 2.64 4 4 C3.81577127 9.52686178 2.42709555 14.6721766 1 20 C0.67 20 0.34 20 0 20 C0 13.4 0 6.8 0 0 Z " fill="#FEFDFC" transform="translate(65,34)"/>
<path d="M0 0 C0.99928333 2.698065 1.03624754 3.88010429 0.1875 6.6875 C-1 9 -1 9 -3 10 C-2.01 11.485 -2.01 11.485 -1 13 C-2.98 13 -4.96 13 -7 13 C-8.25664978 10.09399739 -9 8.20395416 -9 5 C-4.25 5.875 -4.25 5.875 -2 7 C-1.34 4.69 -0.68 2.38 0 0 Z " fill="#B6CCE3" transform="translate(60,13)"/>
<path d="M0 0 C3.03920174 3.03920174 3.44265837 3.73410982 4.1875 7.6875 C4.34605469 8.49574219 4.50460938 9.30398437 4.66796875 10.13671875 C4.77753906 10.75160156 4.88710938 11.36648437 5 12 C2.68690295 11.88658363 0.37449815 11.75896193 -1.9375 11.625 C-3.22527344 11.55539063 -4.51304688 11.48578125 -5.83984375 11.4140625 C-7.40412109 11.20910156 -7.40412109 11.20910156 -9 11 C-9.33 10.34 -9.66 9.68 -10 9 C-6.30458414 8.04975021 -3.69541586 8.04975021 0 9 C0 6.03 0 3.06 0 0 Z " fill="#DBE5F1" transform="translate(30,99)"/>
<path d="M0 0 C3.98340057 2.1023503 6.49400352 4.24100528 9 8 C9.75 10.8125 9.75 10.8125 10 13 C6.17387297 11.49687867 4.29908033 9.37198449 2 6 C0.75 2.6875 0.75 2.6875 0 0 Z " fill="#1462AD" transform="translate(97,32)"/>
<path d="M0 0 C2 2 4 4 6 6 C6.66 4.35 7.32 2.7 8 1 C8.66 1.33 9.32 1.66 10 2 C9.34 5.96 8.68 9.92 8 14 C4.81994972 10.11327187 1.89445553 6.10047867 -1 2 C-0.67 1.34 -0.34 0.68 0 0 Z " fill="#E0E9F3" transform="translate(10,75)"/>
<path d="M0 0 C0 3 0 3 -2 6 C-2.66 6 -3.32 6 -4 6 C-4.33 6.99 -4.66 7.98 -5 9 C-11.75 10.125 -11.75 10.125 -14 9 C-13.195625 8.566875 -12.39125 8.13375 -11.5625 7.6875 C-8.72153646 6.19525998 -8.72153646 6.19525998 -8 3 C-8.99 2.34 -9.98 1.68 -11 1 C-9.35 1.33 -7.7 1.66 -6 2 C-6 3.32 -6 4.64 -6 6 C-4.02 4.02 -2.04 2.04 0 0 Z " fill="#C8D6E5" transform="translate(61,34)"/>
<path d="M0 0 C0.66 0.33 1.32 0.66 2 1 C1.09648559 2.63234937 0.1766431 4.25566824 -0.75 5.875 C-1.26046875 6.77992187 -1.7709375 7.68484375 -2.296875 8.6171875 C-4.05697297 11.07970989 -5.21006094 11.94467523 -8 13 C-7.88759583 8.3914291 -6.61543768 6.27090202 -3.4375 3.125 C-2.30330262 2.07067568 -1.16107206 1.02465367 0 0 Z " fill="#1561AD" transform="translate(30,32)"/>
<path d="M0 0 C1.32 0.99 2.64 1.98 4 3 C3.38461538 8.53846154 3.38461538 8.53846154 1.4375 10.875 C0.7259375 11.431875 0.7259375 11.431875 0 12 C1.32 13.65 2.64 15.3 4 17 C3.01 17 2.02 17 1 17 C-0.38671875 15.46875 -0.38671875 15.46875 -1.6875 13.5 C-2.34298828 12.52546875 -2.34298828 12.52546875 -3.01171875 11.53125 C-3.50091797 10.77328125 -3.50091797 10.77328125 -4 10 C-2.7625 9.38125 -2.7625 9.38125 -1.5 8.75 C-0.675 8.1725 0.15 7.595 1 7 C1 5.68 1 4.36 1 3 C0.34 2.34 -0.32 1.68 -1 1 C-0.67 0.67 -0.34 0.34 0 0 Z " fill="#2768B1" transform="translate(241,73)"/>
<path d="M0 0 C0.99 0.99 1.98 1.98 3 3 C1.35 6.96 -0.3 10.92 -2 15 C-2.66 15 -3.32 15 -4 15 C-5.32 12.03 -6.64 9.06 -8 6 C-5 7 -5 7 -3 10 C-2.01 6.7 -1.02 3.4 0 0 Z " fill="#D1DDED" transform="translate(117,59)"/>
<path d="M0 0 C1.19882813 0.15275391 1.19882813 0.15275391 2.421875 0.30859375 C3.02515625 0.39238281 3.6284375 0.47617188 4.25 0.5625 C3.59 1.2225 2.93 1.8825 2.25 2.5625 C2.7553125 2.90023437 3.260625 3.23796875 3.78125 3.5859375 C4.4309375 4.03195313 5.080625 4.47796875 5.75 4.9375 C6.3996875 5.37835938 7.049375 5.81921875 7.71875 6.2734375 C8.2240625 6.69882813 8.729375 7.12421875 9.25 7.5625 C9.25 8.2225 9.25 8.8825 9.25 9.5625 C6.70595798 8.43181466 5.01141473 7.34325948 2.9375 5.4375 C-0.48126831 3.05231281 -2.67167146 3.4855504 -6.75 3.5625 C-7.41 2.5725 -8.07 1.5825 -8.75 0.5625 C-5.62819599 -0.40411363 -3.22916205 -0.42738909 0 0 Z " fill="#86ABD2" transform="translate(66.75,117.4375)"/>
<path d="M0 0 C6.97630627 0.23648496 6.97630627 0.23648496 9.64453125 2.2265625 C11.84961219 4.70489555 12.95307829 6.56832023 13.3125 9.875 C13.1578125 10.926875 13.1578125 10.926875 13 12 C12.01 11.67 11.02 11.34 10 11 C9.32060826 9.00428677 8.65438441 7.00405227 8 5 C4.81237635 2.87491756 2.73487777 2.4979837 -1 2 C-0.67 1.34 -0.34 0.68 0 0 Z " fill="#2366B0" transform="translate(302,102)"/>
<path d="M0 0 C0.33 0 0.66 0 1 0 C1.33 3.3 1.66 6.6 2 10 C2.99 9.34 3.98 8.68 5 8 C5.99 8.33 6.98 8.66 8 9 C7.236875 9.556875 6.47375 10.11375 5.6875 10.6875 C3.03568819 12.96929156 1.68044905 14.97519171 0 18 C-0.33 18 -0.66 18 -1 18 C-0.505 9.09 -0.505 9.09 0 0 Z " fill="#C4D4E7" transform="translate(16,44)"/>
<path d="M0 0 C0.33 0 0.66 0 1 0 C1.33 1.65 1.66 3.3 2 5 C2.7425 4.360625 3.485 3.72125 4.25 3.0625 C6.7111121 1.21666593 8.03466926 0.43930826 11 0 C11 0.66 11 1.32 11 2 C9.03062339 3.62356346 7.06654852 5.13559566 5 6.625 C4.14148438 7.25535156 4.14148438 7.25535156 3.265625 7.8984375 C1.84796067 8.93805801 0.42450738 9.96977591 -1 11 C-2.41687119 6.74938644 -1.19320039 4.28148375 0 0 Z " fill="#DBE5F1" transform="translate(106,91)"/>
<path d="M0 0 C0.33 0.66 0.66 1.32 1 2 C0.38511719 2.09796875 -0.22976563 2.1959375 -0.86328125 2.296875 C-5.86554872 3.11175199 -5.86554872 3.11175199 -9.9375 5.875 C-10.288125 6.57625 -10.63875 7.2775 -11 8 C-11.5878125 9.11375 -11.5878125 9.11375 -12.1875 10.25 C-12.455625 10.8275 -12.72375 11.405 -13 12 C-13.375 8.8125 -13.375 8.8125 -13 5 C-8.90316709 0.30363057 -6.35977596 -0.6359776 0 0 Z " fill="#1660AD" transform="translate(346,72)"/>
<path d="M0 0 C0.33 1.32 0.66 2.64 1 4 C-2.3125 5.625 -2.3125 5.625 -6 7 C-6.99 6.34 -7.98 5.68 -9 5 C-8.34 5 -7.68 5 -7 5 C-7 4.34 -7 3.68 -7 3 C-7.66 2.67 -8.32 2.34 -9 2 C-2.25 0 -2.25 0 0 0 Z " fill="#88ACD2" transform="translate(80,56)"/>
<path d="M0 0 C2.31 0 4.62 0 7 0 C5.55873214 3.36295835 3.79407345 5.62927102 1 8 C0.01 8 -0.98 8 -2 8 C-1.34 5.36 -0.68 2.72 0 0 Z " fill="#FCD799" transform="translate(68,21)"/>
<path d="M0 0 C0.66 0 1.32 0 2 0 C2 5.94 2 11.88 2 18 C1.01 17.34 0.02 16.68 -1 16 C-1.05632424 13.19564589 -0.95814702 10.64853322 -0.6875 7.875 C-0.62626953 7.12089844 -0.56503906 6.36679688 -0.50195312 5.58984375 C-0.3485467 3.72536562 -0.17606541 1.86247502 0 0 Z " fill="#105CAB" transform="translate(332,103)"/>
<path d="M0 0 C0.66 0 1.32 0 2 0 C2.99 2.64 3.98 5.28 5 8 C2.69 8 0.38 8 -2 8 C-1.125 2.25 -1.125 2.25 0 0 Z " fill="#E3EBF4" transform="translate(356,77)"/>
<path d="M0 0 C0.66 0.33 1.32 0.66 2 1 C1.67 1.66 1.34 2.32 1 3 C3.97 3.33 6.94 3.66 10 4 C10 4.66 10 5.32 10 6 C5.71 6 1.42 6 -3 6 C-1 1 -1 1 0 0 Z " fill="#236AB1" transform="translate(245,115)"/>
<path d="M0 0 C0.99 0.99 1.98 1.98 3 3 C-2.28 3 -7.56 3 -13 3 C-8.67928508 0.11952339 -5.20215728 -0.44273679 0 0 Z " fill="#FAA50F" transform="translate(58,27)"/>
<path d="M0 0 C2.03876191 3.05814287 2.41616481 4.44883672 2.8125 8 C2.92207031 8.86625 3.03164062 9.7325 3.14453125 10.625 C3 13 3 13 0 16 C0 10.72 0 5.44 0 0 Z " fill="#FAA611" transform="translate(65,12)"/>
<path d="M0 0 C2.64 0 5.28 0 8 0 C8 0.66 8 1.32 8 2 C6.35 2.33 4.7 2.66 3 3 C3 4.32 3 5.64 3 7 C2.01 7 1.02 7 0 7 C0 4.69 0 2.38 0 0 Z " fill="#DEE6F1" transform="translate(33,71)"/>
<path d="M0 0 C2.46278801 2.46278801 2.99771255 4.70676982 4 8 C1.69 8 -0.62 8 -3 8 C-1.125 1.125 -1.125 1.125 0 0 Z " fill="#EAF0F6" transform="translate(264,107)"/>
<path d="M0 0 C2.15377564 2.62198774 3.40072174 4.64404172 4 8 C1.69 8 -0.62 8 -3 8 C-1.125 2.25 -1.125 2.25 0 0 Z " fill="#E9EFF6" transform="translate(204,107)"/>
<path d="M0 0 C2.1875 0.3125 2.1875 0.3125 4 1 C3.67 2.65 3.34 4.3 3 6 C1.68 6.33 0.36 6.66 -1 7 C-1.66 5.68 -2.32 4.36 -3 3 C-1.75 1.4375 -1.75 1.4375 0 0 Z " fill="#F9FBFD" transform="translate(57,78)"/>
<path d="M0 0 C0.12375 0.639375 0.2475 1.27875 0.375 1.9375 C0.58125 2.618125 0.7875 3.29875 1 4 C1.66 4.33 2.32 4.66 3 5 C2.67 6.65 2.34 8.3 2 10 C2.99 10.33 3.98 10.66 5 11 C3.02 11.99 1.04 12.98 -1 14 C-1.08333357 9.1666528 -0.95261487 4.76307437 0 0 Z " fill="#CDDBEB" transform="translate(21,34)"/>
<path d="M0 0 C0.66 0.66 1.32 1.32 2 2 C1.34 3.32 0.68 4.64 0 6 C2.31 6 4.62 6 7 6 C7 6.33 7 6.66 7 7 C4.36 7 1.72 7 -1 7 C-1.33 8.65 -1.66 10.3 -2 12 C-2.66 12 -3.32 12 -4 12 C-3.33501617 7.61110675 -1.81242323 4.0188515 0 0 Z " fill="#3272B5" transform="translate(201,109)"/>
<path d="M0 0 C-0.33 0.99 -0.66 1.98 -1 3 C-1.66 3 -2.32 3 -3 3 C-2.67 4.65 -2.34 6.3 -2 8 C-3.65 8.33 -5.3 8.66 -7 9 C-6.34 7.02 -5.68 5.04 -5 3 C-5.66 2.67 -6.32 2.34 -7 2 C-4.35261084 0.5393715 -3.10551666 0 0 0 Z " fill="#84A7D0" transform="translate(66,76)"/>
<path d="M0 0 C2.38672669 2.96283313 4.7353371 5.94270509 7 9 C6.67 9.66 6.34 10.32 6 11 C3 9 3 9 2 6 C-1.00007271 4.29144978 -1.00007271 4.29144978 -4 3 C-2.68 2.01 -1.36 1.02 0 0 Z " fill="#3C7AB9" transform="translate(76,46)"/>
<path d="M0 0 C3.07267167 4.09689556 5 6.86170509 5 12 C4.01 12.33 3.02 12.66 2 13 C1.34 8.71 0.68 4.42 0 0 Z " fill="#2B6EB3" transform="translate(106,30)"/>
<path d="M0 0 C0.33 0 0.66 0 1 0 C1.05422947 1.4370809 1.09289723 2.87475462 1.125 4.3125 C1.14820312 5.11300781 1.17140625 5.91351563 1.1953125 6.73828125 C1 9 1 9 -1 12 C-1.99 11.67 -2.98 11.34 -4 11 C-2.68 7.37 -1.36 3.74 0 0 Z " fill="#0858A9" transform="translate(120,59)"/>
<path d="M0 0 C0.66 0 1.32 0 2 0 C2.33 1.98 2.66 3.96 3 6 C3.66 6 4.32 6 5 6 C4.34 7.32 3.68 8.64 3 10 C2.67 9.01 2.34 8.02 2 7 C-0.01508358 6.26676204 -0.01508358 6.26676204 -2 6 C-1.34 5.01 -0.68 4.02 0 3 C0 2.01 0 1.02 0 0 Z " fill="#EEF3F8" transform="translate(80,56)"/>
<path d="M0 0 C0.66 0.66 1.32 1.32 2 2 C1.01 2.7734375 1.01 2.7734375 0 3.5625 C-2.65637543 6.79995755 -2.31342132 8.92552281 -2 13 C-2.99 12.67 -3.98 12.34 -5 12 C-5.35338623 9.03155565 -5.5417682 6.84401782 -3.88671875 4.265625 C-2.64496832 2.79651181 -1.32662082 1.39295186 0 0 Z " fill="#0A58A9" transform="translate(300,103)"/>
<path d="M0 0 C4.89672424 2.17632189 8.98947371 4.88229672 11 10 C9.68 10 8.36 10 7 10 C5.5 7.75 5.5 7.75 4 5 C2.68557638 3.64802142 1.3565164 2.30973998 0 1 C0 0.67 0 0.34 0 0 Z " fill="#81A6CF" transform="translate(45,52)"/>
<path d="M0 0 C0.66 0.33 1.32 0.66 2 1 C1.649375 1.61875 1.29875 2.2375 0.9375 2.875 C0.628125 3.57625 0.31875 4.2775 0 5 C0.33 5.66 0.66 6.32 1 7 C0.2575 6.79375 -0.485 6.5875 -1.25 6.375 C-4.32330841 5.95591249 -5.42786866 6.38050989 -8 8 C-6.10186436 4.39354228 -4.81257069 2.52502828 -1 1 C-0.67 0.67 -0.34 0.34 0 0 Z " fill="#9BB9DA" transform="translate(45,90)"/>
<path d="M0 0 C4.455 2.97 4.455 2.97 9 6 C9.33 4.68 9.66 3.36 10 2 C9.67 4.31 9.34 6.62 9 9 C2.07692308 4.53846154 2.07692308 4.53846154 0 2 C0 1.34 0 0.68 0 0 Z " fill="#ECF2F7" transform="translate(13,91)"/>
<path d="M0 0 C0.66 0.33 1.32 0.66 2 1 C2.25 3.75 2.25 3.75 2 7 C0 9.375 0 9.375 -2 11 C-2.66 10.34 -3.32 9.68 -4 9 C-3.525625 8.443125 -3.05125 7.88625 -2.5625 7.3125 C-0.87604004 4.81653926 -0.41046893 2.9553763 0 0 Z " fill="#3071B5" transform="translate(266,78)"/>
<path d="M0 0 C5.02254631 -0.2954439 7.89542386 0.01485372 12 3 C11.01 4.485 11.01 4.485 10 6 C9.649375 5.525625 9.29875 5.05125 8.9375 4.5625 C6.15836457 2.32126175 3.4855283 2.32882342 0 2 C0 1.34 0 0.68 0 0 Z " fill="#2569B1" transform="translate(221,42)"/>
<path d="M0 0 C3.23739279 1.6186964 4.42244771 4.84489543 6 8 C4.02 8 2.04 8 0 8 C0 5.36 0 2.72 0 0 Z " fill="#F1F5F9" transform="translate(65,94)"/>
<path d="M0 0 C0.0825 0.598125 0.165 1.19625 0.25 1.8125 C1.20548903 4.599343 2.6450848 5.32876986 5 7 C5 7.66 5 8.32 5 9 C4.21625 8.67 3.4325 8.34 2.625 8 C0.15667503 6.88133489 0.15667503 6.88133489 -2 7 C-2 6.34 -2 5.68 -2 5 C-2.66 4.67 -3.32 4.34 -4 4 C-3.34 4 -2.68 4 -2 4 C-1.34 2.68 -0.68 1.36 0 0 Z " fill="#5C8DC3" transform="translate(83,85)"/>
<path d="M0 0 C1 2 1 2 0.375 4.5625 C-1 7 -1 7 -3.625 7.8125 C-4.40875 7.874375 -5.1925 7.93625 -6 8 C-4.73058503 4.08597051 -3.48832306 2.20927127 0 0 Z " fill="#1863AE" transform="translate(23,53)"/>
<path d="M0 0 C2.875 0.3125 2.875 0.3125 4.875 1.3125 C4.875 1.9725 4.875 2.6325 4.875 3.3125 C3.01875 3.2815625 3.01875 3.2815625 1.125 3.25 C-1.7890825 3.24483319 -4.33453327 3.38234442 -7.125 4.3125 C-4.78015899 1.42654183 -3.77942612 0.37794261 0 0 Z " fill="#195EAC" transform="translate(188.125,101.6875)"/>
<path d="M0 0 C0.33 1.32 0.66 2.64 1 4 C1.66 4 2.32 4 3 4 C3.99 7.63 4.98 11.26 6 15 C2.20543443 11.20543443 0.15869928 7.48628866 -0.1875 2.0625 C-0.125625 1.381875 -0.06375 0.70125 0 0 Z " fill="#79A1CD" transform="translate(25,78)"/>
<path d="M0 0 C0.66 0 1.32 0 2 0 C2.33 0.99 2.66 1.98 3 3 C2.01 3.33 1.02 3.66 0 4 C-0.80212628 5.87387216 -0.80212628 5.87387216 -1.1875 8.0625 C-1.34605469 8.79597656 -1.50460937 9.52945313 -1.66796875 10.28515625 C-1.77753906 10.85105469 -1.88710938 11.41695312 -2 12 C-2.66 11.67 -3.32 11.34 -4 11 C-3.52269162 9.5410574 -3.04308958 8.08286504 -2.5625 6.625 C-2.29566406 5.81289062 -2.02882813 5.00078125 -1.75390625 4.1640625 C-1 2 -1 2 0 0 Z " fill="#1D64AF" transform="translate(356,73)"/>
<path d="M0 0 C2.31 0.66 4.62 1.32 7 2 C7 2.99 7 3.98 7 5 C7.66 5.33 8.32 5.66 9 6 C8.67 7.32 8.34 8.64 8 10 C6.66370254 8.52351062 5.33103329 7.0437367 4 5.5625 C3.2575 4.73878906 2.515 3.91507813 1.75 3.06640625 C0 1 0 1 0 0 Z " fill="#F5F1E9" transform="translate(67,33)"/>
<path d="M0 0 C0.99 0.99 1.98 1.98 3 3 C2.67 3.33 2.34 3.66 2 4 C1.76346477 6.52596259 1.57826308 9.03107207 1.4375 11.5625 C1.39431641 12.27341797 1.35113281 12.98433594 1.30664062 13.71679688 C1.20028223 15.47761912 1.09961154 17.2387832 1 19 C0.67 19 0.34 19 0 19 C0 12.73 0 6.46 0 0 Z " fill="#3E7BBA" transform="translate(318,102)"/>
<path d="M0 0 C3 3.625 3 3.625 3 7 C2.34 7 1.68 7 1 7 C0.67 5.68 0.34 4.36 0 3 C-3.3 3 -6.6 3 -10 3 C-10 2.67 -10 2.34 -10 2 C-6.7 2 -3.4 2 0 2 C0 1.34 0 0.68 0 0 Z " fill="#497FBC" transform="translate(362,84)"/>
<path d="M0 0 C2 2 2 2 2.1953125 5.0390625 C2.17210937 6.22242187 2.14890625 7.40578125 2.125 8.625 C2.10695313 9.81351563 2.08890625 11.00203125 2.0703125 12.2265625 C2.04710937 13.14179687 2.02390625 14.05703125 2 15 C1.67 15 1.34 15 1 15 C0.855625 13.7625 0.71125 12.525 0.5625 11.25 C0.28640847 8.98124786 -0.02786575 6.89689673 -0.625 4.6875 C-1 3 -1 3 0 0 Z " fill="#0857A9" transform="translate(20,76)"/>
<path d="M0 0 C0 1.32 0 2.64 0 4 C-1.98 4.33 -3.96 4.66 -6 5 C-6 4.01 -6 3.02 -6 2 C-3 0 -3 0 0 0 Z " fill="#9AB7D8" transform="translate(71,79)"/>
<path d="M0 0 C0.66 0 1.32 0 2 0 C2.33 1.98 2.66 3.96 3 6 C2.01 6.495 2.01 6.495 1 7 C1 7.99 1 8.98 1 10 C0.34 10 -0.32 10 -1 10 C-1.91078492 7.44980222 -2.17843392 6.40445022 -1.0625 3.875 C-0.711875 3.25625 -0.36125 2.6375 0 2 C0 1.34 0 0.68 0 0 Z " fill="#266BB2" transform="translate(58,68)"/>
<path d="M0 0 C2 3 2 3 2 6 C-0.31 6 -2.62 6 -5 6 C-5 5.01 -5 4.02 -5 3 C-3.68 3 -2.36 3 -1 3 C-0.67 2.01 -0.34 1.02 0 0 Z " fill="#F1F5F9" transform="translate(86,64)"/>
<path d="M0 0 C0.33 0 0.66 0 1 0 C1.268125 1.093125 1.53625 2.18625 1.8125 3.3125 C2.87663739 6.61692663 3.34654664 7.94960422 6 10 C5.01 10.495 5.01 10.495 4 11 C1.22355795 8.67137119 0.09655054 7.37877519 -0.8125 3.8125 C-0.874375 2.884375 -0.93625 1.95625 -1 1 C-0.67 0.67 -0.34 0.34 0 0 Z " fill="#0C59A9" transform="translate(165,49)"/>
<path d="M0 0 C2.46800047 1.15173355 4.04783565 2.04783565 6 4 C6 4.99 6 5.98 6 7 C1.545 6.01 1.545 6.01 -3 5 C-3 4.67 -3 4.34 -3 4 C-1.35 3.67 0.3 3.34 2 3 C1.34 2.01 0.68 1.02 0 0 Z " fill="#FBCA76" transform="translate(56,22)"/>
<path d="M0 0 C0.66 0 1.32 0 2 0 C1.6875 1.875 1.6875 1.875 1 4 C-2.4352048 6.29013653 -3.985331 6.17842973 -8 6 C-5 4 -5 4 -2.875 3 C-0.82955462 2.14139842 -0.82955462 2.14139842 0 0 Z " fill="#165FAC" transform="translate(155,115)"/>
<path d="M0 0 C1 4 1 4 0 7 C0.66 7.33 1.32 7.66 2 8 C0.625 9.5 0.625 9.5 -1 11 C-1.66 11 -2.32 11 -3 11 C-2.01 7.37 -1.02 3.74 0 0 Z " fill="#9BB9D9" transform="translate(95,76)"/>
<path d="M0 0 C2.6855594 2.6855594 3.06049974 5.37621328 4 9 C3.01 9.495 3.01 9.495 2 10 C1.34 9.67 0.68 9.34 0 9 C0 6.03 0 3.06 0 0 Z " fill="#3171B4" transform="translate(7,58)"/>
<path d="M0 0 C3.73639216 1.24546405 4.18756513 2.63404953 6 6 C4.02 6 2.04 6 0 6 C0 4.02 0 2.04 0 0 Z " fill="#E5E2DB" transform="translate(53,20)"/>
<path d="M0 0 C3.03200339 1.0106678 3.99878825 1.63493157 6 4 C6.33 4.99 6.66 5.98 7 7 C6.67 7.66 6.34 8.32 6 9 C5.34 9 4.68 9 4 9 C2.68 6.03 1.36 3.06 0 0 Z " fill="#E0E9F3" transform="translate(109,65)"/>
<path d="M0 0 C2.9375 1.125 2.9375 1.125 6 3 C6.875 6.1875 6.875 6.1875 7 9 C4.03595495 6.19195732 1.55500981 3.81684226 0 0 Z " fill="#DDE7F2" transform="translate(106,52)"/>
<path d="M0 0 C0.33 0.99 0.66 1.98 1 3 C-0.40445835 5.2636564 -2.1967913 7.0208685 -4 9 C-4.66 8.34 -5.32 7.68 -6 7 C-4.02 4.69 -2.04 2.38 0 0 Z " fill="#1A65AF" transform="translate(28,42)"/>
<path d="M0 0 C3.41021743 0.78697325 6.68885166 1.87119943 10 3 C7 5 7 5 5 4.8125 C2.73911422 3.89401515 1.55381318 2.86457582 0 1 C0 0.67 0 0.34 0 0 Z " fill="#3272B5" transform="translate(296,116)"/>
<path d="M0 0 C0.66 0.33 1.32 0.66 2 1 C2 1.66 2 2.32 2 3 C4.31 3.33 6.62 3.66 9 4 C6 6 6 6 4 5.875 C1.45365799 4.76097537 0.48677017 3.30449377 -1 1 C-0.67 0.67 -0.34 0.34 0 0 Z " fill="#2E6EB3" transform="translate(141,115)"/>
<path d="M0 0 C0.33 0 0.66 0 1 0 C1.28875 1.11375 1.5775 2.2275 1.875 3.375 C2.69241329 7.00291092 2.69241329 7.00291092 5 9 C4.01 9.33 3.02 9.66 2 10 C0.4375 8.375 0.4375 8.375 -1 6 C-0.6875 2.75 -0.6875 2.75 0 0 Z " fill="#2769B1" transform="translate(334,80)"/>
<path d="M0 0 C3.91593446 0.78318689 7.36406635 2.39179858 11 4 C11 4.33 11 4.66 11 5 C8.3125 5.3125 8.3125 5.3125 5 5 C2.125 2.5 2.125 2.5 0 0 Z " fill="#0D58A9" transform="translate(307,86)"/>
<path d="M0 0 C0.33 0.99 0.66 1.98 1 3 C1.66 3.66 2.32 4.32 3 5 C0.625 5.625 0.625 5.625 -2 6 C-2.66 5.34 -3.32 4.68 -4 4 C-3.34 4 -2.68 4 -2 4 C-2 3.34 -2 2.68 -2 2 C-2.66 1.67 -3.32 1.34 -4 1 C-2 0 -2 0 0 0 Z " fill="#5389C0" transform="translate(75,57)"/>
<path d="M0 0 C0.99 0.33 1.98 0.66 3 1 C4.1875 4.5625 4.1875 4.5625 5 8 C4.01 8.495 4.01 8.495 3 9 C2.01 6.03 1.02 3.06 0 0 Z " fill="#2368B1" transform="translate(138,42)"/>
<path d="M0 0 C3.43927579 1.2419607 6.25207819 2.55740284 9 5 C9 5.66 9 6.32 9 7 C5.18315774 5.44499019 2.80804268 2.96404505 0 0 Z " fill="#3974B7" transform="translate(67,120)"/>
<path d="M0 0 C2.15377564 2.62198774 3.40072174 4.64404172 4 8 C3.01 8.495 3.01 8.495 2 9 C1.67 7.35 1.34 5.7 1 4 C0.34 4 -0.32 4 -1 4 C-0.67 2.68 -0.34 1.36 0 0 Z " fill="#165EAC" transform="translate(264,103)"/>
<path d="M0 0 C0.99 0.99 1.98 1.98 3 3 C2.67 3.99 2.34 4.98 2 6 C-0.0625 6.6875 -0.0625 6.6875 -2 7 C-1.125 2.25 -1.125 2.25 0 0 Z " fill="#1962AE" transform="translate(204,103)"/>
<path d="M0 0 C3.7952131 1.49097658 5.61042731 3.75700849 8 7 C7.01 7 6.02 7 5 7 C3.61328125 5.46875 3.61328125 5.46875 2.3125 3.5 C1.87550781 2.8503125 1.43851563 2.200625 0.98828125 1.53125 C0.49908203 0.77328125 0.49908203 0.77328125 0 0 Z " fill="#165EAC" transform="translate(237,83)"/>
<path d="M0 0 C0.66 0.33 1.32 0.66 2 1 C-0.31 3.31 -2.62 5.62 -5 8 C-5 5 -5 5 -2.5 2.3125 C-1.675 1.549375 -0.85 0.78625 0 0 Z " fill="#FDBB51" transform="translate(60,33)"/>
<path d="M0 0 C2.97 0.495 2.97 0.495 6 1 C5.67 1.99 5.34 2.98 5 4 C2.625 4.625 2.625 4.625 0 5 C-0.66 4.34 -1.32 3.68 -2 3 C-0.35 3 1.3 3 3 3 C3 2.34 3 1.68 3 1 C2.01 0.67 1.02 0.34 0 0 Z " fill="#BFD1E2" transform="translate(87,29)"/>
<path d="M0 0 C0.33 1.32 0.66 2.64 1 4 C-0.98 4.66 -2.96 5.32 -5 6 C-3.63016497 2.83884224 -3.0109362 2.0072908 0 0 Z " fill="#FAFBFD" transform="translate(99,93)"/>
<path d="M0 0 C2.64 0 5.28 0 8 0 C8.33 0.99 8.66 1.98 9 3 C4.545 2.01 4.545 2.01 0 1 C0 0.67 0 0.34 0 0 Z " fill="#256CB2" transform="translate(312,72)"/>
<path d="M0 0 C1.15941038 3.47823115 0.70820884 5.45895578 0 9 C-0.99 8.67 -1.98 8.34 -3 8 C-1.125 2.25 -1.125 2.25 0 0 Z " fill="#2468B0" transform="translate(21,31)"/>
</svg>
